<?xml version="1.0" encoding="UTF-8" standalone="no"?>
<!DOCTYPE svg PUBLIC "-//W3C//DTD SVG 1.1//EN" "http://www.w3.org/Graphics/SVG/1.1/DTD/svg11.dtd">
<svg width="100%" height="100%" viewBox="0 0 98 96" version="1.1" xmlns="http://www.w3.org/2000/svg" xmlns:xlink="http://www.w3.org/1999/xlink" xml:space="preserve" xmlns:serif="http://www.serif.com/" style="fill-rule:evenodd;clip-rule:evenodd;stroke-linecap:round;stroke-linejoin:round;stroke-miterlimit:90;">
    <g transform="matrix(1,0,0,1,-776.869,-710.028)">
        <g transform="matrix(0.953723,0,0,0.940227,67.5101,157.949)">
            <g transform="matrix(0.514376,0.890925,-0.882168,0.50932,967.197,-400.618)">
                <path d="M748.873,667.044C729.508,611.391 793.126,605.819 812.865,613.786C891.353,645.463 785.242,771.566 748.873,667.044Z" style="fill:none;stroke:white;stroke-width:2.59px;"/>
            </g>
        </g>
        <g transform="matrix(0.953723,0,0,0.940227,67.5101,157.949)">
            <g transform="matrix(0.491182,0.850751,-0.842227,0.48626,959.316,-353.721)">
                <path d="M748.873,667.044C729.508,611.391 793.126,605.819 812.865,613.786C891.353,645.463 785.242,771.566 748.873,667.044Z" style="fill:none;stroke:white;stroke-width:2.72px;"/>
            </g>
        </g>
        <g transform="matrix(0.953723,0,0,0.940227,67.5101,157.949)">
            <g transform="matrix(0.5,0.866025,-0.866025,0.5,968.001,-374.808)">
                <path d="M748.873,667.044C729.508,611.391 793.126,605.819 812.865,613.786C891.353,645.463 785.242,771.566 748.873,667.044Z" style="fill:none;stroke:rgb(55,18,60);stroke-width:3.19px;"/>
            </g>
        </g>
        <g transform="matrix(0.953723,0,0,0.940227,67.5101,157.949)">
            <g transform="matrix(0.191501,0.331689,-0.331689,0.191501,859.944,255.102)">
                <path d="M748.873,667.044C729.508,611.391 793.126,605.819 812.865,613.786C891.353,645.463 785.242,771.566 748.873,667.044Z" style="fill:rgb(255,121,1);stroke:white;stroke-width:2.77px;"/>
            </g>
        </g>
    </g>
</svg>
