<?xml version="1.0" encoding="UTF-8" standalone="no"?>
<!DOCTYPE svg PUBLIC "-//W3C//DTD SVG 1.1//EN" "http://www.w3.org/Graphics/SVG/1.1/DTD/svg11.dtd">
<svg width="100%" height="100%" viewBox="0 0 241 67" version="1.1" xmlns="http://www.w3.org/2000/svg" xmlns:xlink="http://www.w3.org/1999/xlink" xml:space="preserve" xmlns:serif="http://www.serif.com/" style="fill-rule:evenodd;clip-rule:evenodd;stroke-linejoin:round;stroke-miterlimit:2;">
    <g transform="matrix(1,0,0,1,-368.814,-685.988)">
        <g transform="matrix(0.953723,0,0,0.940227,67.5101,157.949)">
            <g transform="matrix(0.796785,0.72378,-0.72378,0.796785,245.617,-333.515)">
                <path d="M609.193,573.253C635.132,580.431 665.828,573.74 688.812,560.708C710.811,548.232 735.231,524.125 729.765,496.279C727.773,486.14 719.746,477.252 708.737,481.361C698.515,485.178 694.842,496.481 699.053,506.167C710.425,532.323 749.058,522.988 767.898,511.899C779.811,504.889 790.039,495.051 797.475,483.395C804.375,472.579 810.545,458.548 809.552,445.479C809.409,443.603 806.278,443.425 805.841,445.221C803.5,454.821 802.03,464.114 797.61,473.103C793.027,482.422 786.548,490.831 778.861,497.795C763.616,511.606 739.342,522.774 718.477,516.819C707.418,513.663 694.473,498.59 705.899,488.22C710.532,484.016 717.536,483.307 721.774,488.422C725.645,493.094 726.399,500.178 726.05,505.993C724.628,529.653 703.582,548.421 684.105,558.974C673.092,564.941 661.108,569.037 648.756,571.113C635.539,573.334 622.871,572.405 609.663,570.985C608.372,570.847 607.911,572.898 609.193,573.253Z" style="fill:rgb(55,18,60);fill-rule:nonzero;"/>
            </g>
        </g>
    </g>
</svg>
