<?xml version="1.0" encoding="UTF-8" standalone="no"?>
<!DOCTYPE svg PUBLIC "-//W3C//DTD SVG 1.1//EN" "http://www.w3.org/Graphics/SVG/1.1/DTD/svg11.dtd">
<svg width="100%" height="100%" viewBox="0 0 175 46" version="1.1" xmlns="http://www.w3.org/2000/svg" xmlns:xlink="http://www.w3.org/1999/xlink" xml:space="preserve" xmlns:serif="http://www.serif.com/" style="fill-rule:evenodd;clip-rule:evenodd;stroke-linejoin:round;stroke-miterlimit:2;">
    <g transform="matrix(1,0,0,1,-433.473,-704.844)">
        <g transform="matrix(0.953723,0,0,0.940227,67.5101,157.949)">
            <g transform="matrix(0.556219,0.462465,-0.508059,0.611056,339.31,-37.6182)">
                <path d="M602.04,571.568C628.188,586.066 660.663,582.721 685.52,567.056C697.481,559.518 707.779,549.61 716.351,538.399C725.101,526.955 734.085,513.023 735.979,498.455C737.299,488.294 733.117,471.381 719.722,472.664C707.936,473.793 696.654,486.85 695.944,498.34C695.149,511.208 706.442,520.799 718.133,523.198C732.082,526.062 747.388,521.236 759.909,515.206C787.315,502.009 808.427,476.397 815.479,446.764C816.152,443.938 811.883,442.39 811.175,445.248C805.859,466.705 793.494,485.753 776.201,499.514C767.387,506.527 757.317,512.08 746.612,515.614C734.351,519.661 719.004,522.471 707.946,513.972C695.743,504.592 699.855,489.332 710.941,481.054C717.414,476.22 725.13,474.783 729.654,482.968C733.327,489.612 732.381,498.073 730.174,505.027C723.799,525.121 708.64,544.507 691.697,557.681C689.851,559.116 687.984,560.478 686.104,561.759C662.117,578.106 629.981,583.135 603.733,569.086C602.05,568.185 600.341,570.626 602.04,571.568Z" style="fill:rgb(55,18,60);fill-rule:nonzero;"/>
            </g>
        </g>
    </g>
</svg>
