<?xml version="1.0" encoding="UTF-8" standalone="no"?>
<!DOCTYPE svg PUBLIC "-//W3C//DTD SVG 1.1//EN" "http://www.w3.org/Graphics/SVG/1.1/DTD/svg11.dtd">
<svg width="100%" height="100%" viewBox="0 0 85 113" version="1.1" xmlns="http://www.w3.org/2000/svg" xmlns:xlink="http://www.w3.org/1999/xlink" xml:space="preserve" xmlns:serif="http://www.serif.com/" style="fill-rule:evenodd;clip-rule:evenodd;stroke-linejoin:round;stroke-miterlimit:2;">
    <g transform="matrix(1,0,0,1,-1457.88,-576.84)">
        <g transform="matrix(0.953723,0,0,0.940227,67.5101,157.949)">
            <g transform="matrix(0.214824,0.637851,-0.96842,0.326158,1644.03,194.955)">
                <path d="M414.08,199.809L400.818,192.665C399.599,192.008 398.511,193.865 399.732,194.522C403.52,196.563 407.31,198.603 411.099,200.644C407.004,202.449 402.909,204.254 398.814,206.059C398.109,206.37 398.113,207.602 398.814,207.914C403.113,209.83 406.949,212.25 410.484,215.306C406.125,217.794 401.579,219.782 396.768,221.282C395.816,221.578 395.793,222.697 396.512,223.243C400.578,226.33 404.645,229.417 408.711,232.504C403.807,235.191 399.017,238.05 394.333,241.111C393.711,241.518 393.596,242.544 394.333,242.923C398.685,245.162 402.884,247.641 407.168,249.999C407.955,250.432 408.533,249.341 407.853,248.826C404.419,246.225 400.709,244.014 396.928,241.951C401.588,238.99 406.341,236.194 411.205,233.576C411.983,233.157 411.805,232.181 411.205,231.725C407.243,228.717 403.282,225.709 399.321,222.701C404.054,221.079 408.534,219.001 412.854,216.415C413.426,216.074 413.589,215.204 413.071,214.73C409.669,211.608 406.007,209.065 401.925,207.021C405.977,205.236 410.028,203.45 414.08,201.665C414.824,201.337 414.738,200.163 414.08,199.809Z" style="fill:rgb(55,18,60);fill-rule:nonzero;"/>
            </g>
        </g>
        <g transform="matrix(0.953723,0,0,0.940227,67.5101,157.949)">
            <g transform="matrix(0.63007,0.236673,-0.35933,0.956608,1296.78,166.637)">
                <path d="M414.08,199.809L400.818,192.665C399.599,192.008 398.511,193.865 399.732,194.522C403.52,196.563 407.31,198.603 411.099,200.644C407.004,202.449 402.909,204.254 398.814,206.059C398.109,206.37 398.113,207.602 398.814,207.914C403.113,209.83 406.949,212.25 410.484,215.306C406.125,217.794 401.579,219.782 396.768,221.282C395.816,221.578 395.793,222.697 396.512,223.243C400.578,226.33 404.645,229.417 408.711,232.504C403.807,235.191 399.017,238.05 394.333,241.111C393.711,241.518 393.596,242.544 394.333,242.923C398.685,245.162 402.884,247.641 407.168,249.999C407.955,250.432 408.533,249.341 407.853,248.826C404.419,246.225 400.709,244.014 396.928,241.951C401.588,238.99 406.341,236.194 411.205,233.576C411.983,233.157 411.805,232.181 411.205,231.725C407.243,228.717 403.282,225.709 399.321,222.701C404.054,221.079 408.534,219.001 412.854,216.415C413.426,216.074 413.589,215.204 413.071,214.73C409.669,211.608 406.007,209.065 401.925,207.021C405.977,205.236 410.028,203.45 414.08,201.665C414.824,201.337 414.738,200.163 414.08,199.809Z" style="fill:rgb(55,18,60);fill-rule:nonzero;"/>
            </g>
        </g>
        <g transform="matrix(0.953723,0,0,0.940227,67.5101,157.949)">
            <g transform="matrix(1.43501,0.41925,-0.253929,0.869151,1242.82,110.082)">
                <path d="M279.592,387.366C267.655,386.481 255.152,386.004 243.223,387.131C242.566,387.192 242.546,388.133 243.223,388.167C255.301,388.772 267.494,388.643 279.592,388.982C280.642,389.013 280.618,387.442 279.592,387.366Z" style="fill:rgb(55,18,60);fill-rule:nonzero;"/>
            </g>
        </g>
        <g transform="matrix(0.953723,0,0,0.940227,67.5101,157.949)">
            <g transform="matrix(1.22089,-0.786432,0.337381,0.523764,1056.4,504.185)">
                <path d="M279.592,387.366C267.655,386.481 255.152,386.004 243.223,387.131C242.566,387.192 242.546,388.133 243.223,388.167C255.301,388.772 267.494,388.643 279.592,388.982C280.642,389.013 280.618,387.442 279.592,387.366Z" style="fill:rgb(55,18,60);fill-rule:nonzero;"/>
            </g>
        </g>
        <g transform="matrix(0.953723,0,0,0.940227,67.5101,157.949)">
            <g transform="matrix(0.827061,-1.19374,0.711829,0.493179,1002.76,617.791)">
                <path d="M273.109,378.007C265.159,377.532 257.17,377.016 249.206,376.967C248.451,376.962 248.481,378.047 249.206,378.119C257.14,378.904 265.146,379.231 273.109,379.593C274.132,379.639 274.123,378.067 273.109,378.007Z" style="fill:rgb(55,18,60);fill-rule:nonzero;"/>
            </g>
        </g>
    </g>
</svg>
