<?xml version="1.0" encoding="UTF-8" standalone="no"?>
<!DOCTYPE svg PUBLIC "-//W3C//DTD SVG 1.1//EN" "http://www.w3.org/Graphics/SVG/1.1/DTD/svg11.dtd">
<svg width="100%" height="100%" viewBox="0 0 25 15" version="1.1" xmlns="http://www.w3.org/2000/svg" xmlns:xlink="http://www.w3.org/1999/xlink" xml:space="preserve" xmlns:serif="http://www.serif.com/" style="fill-rule:evenodd;clip-rule:evenodd;stroke-linejoin:round;stroke-miterlimit:1.41421;">
    <g transform="matrix(1,0,0,1,-3.79726,-6.83578)">
        <g transform="matrix(-0.0307048,0.0280541,0.0324348,0.0345019,15.7253,0.000351254)">
            <g>
                <g id="flash">
                    <g>
                        <g>
                            <path d="M400.388,175.787C398.681,172.374 396.121,170.667 392.708,170.667L292.015,170.667L391.855,12.8C393.562,10.24 393.562,6.827 391.855,4.267C390.148,1.707 387.588,0 384.175,0L247.642,0C244.229,0 241.669,1.707 239.962,4.267L111.962,260.267C110.255,262.827 110.255,266.24 111.962,268.8C113.669,271.36 117.082,273.067 119.642,273.067L207.535,273.067L111.962,500.907C110.255,504.32 111.962,508.587 115.375,511.147C116.228,512 117.935,512 119.642,512C122.202,512 124.762,511.147 126.469,509.44L399.536,185.173C401.242,182.613 402.095,179.2 400.388,175.787ZM149.508,454.827L228.015,267.094C228.868,264.534 228.868,261.974 227.162,259.414C225.455,257.707 222.895,256.001 220.335,256.001L133.295,256.001L252.762,17.067L368.815,17.067L268.122,174.933C266.415,177.493 266.415,180.906 268.122,183.466C269.829,186.026 272.389,187.733 275.802,187.733L374.789,187.733L149.508,454.827Z" style="fill:rgb(55,18,60);fill-rule:nonzero;stroke:rgb(55,18,60);stroke-width:1px;"/>
                        </g>
                    </g>
                </g>
            </g>
        </g>
    </g>
</svg>
