<?xml version="1.0" encoding="UTF-8" standalone="no"?>
<!DOCTYPE svg PUBLIC "-//W3C//DTD SVG 1.1//EN" "http://www.w3.org/Graphics/SVG/1.1/DTD/svg11.dtd">
<svg width="100%" height="100%" viewBox="0 0 155 84" version="1.1" xmlns="http://www.w3.org/2000/svg" xmlns:xlink="http://www.w3.org/1999/xlink" xml:space="preserve" xmlns:serif="http://www.serif.com/" style="fill-rule:evenodd;clip-rule:evenodd;stroke-linejoin:round;stroke-miterlimit:1.41421;">
    <g transform="matrix(1,0,0,1,-1228.4,-483.324)">
        <g transform="matrix(1,0,0,1,-5.00004,0)">
            <g transform="matrix(-0.629403,-0.0861221,0.0861221,-0.629403,1716.78,904.731)">
                <path d="M609.193,573.253C635.132,580.431 665.828,573.74 688.812,560.708C710.811,548.232 735.231,524.125 729.765,496.279C727.773,486.14 719.746,477.252 708.737,481.361C698.515,485.178 694.842,496.481 699.053,506.167C710.425,532.323 749.058,522.988 767.898,511.899C779.811,504.889 790.039,495.051 797.475,483.395C804.375,472.579 810.545,458.548 809.552,445.479C809.409,443.603 806.278,443.425 805.841,445.221C803.5,454.821 802.03,464.114 797.61,473.103C793.027,482.422 786.548,490.831 778.861,497.795C763.616,511.606 739.342,522.774 718.477,516.819C707.418,513.663 694.473,498.59 705.899,488.22C710.532,484.016 717.536,483.307 721.774,488.422C725.645,493.094 726.399,500.178 726.05,505.993C724.628,529.653 703.582,548.421 684.105,558.974C673.092,564.941 661.108,569.037 648.756,571.113C635.539,573.334 622.871,572.405 609.663,570.985C608.372,570.847 607.911,572.898 609.193,573.253Z" style="fill:rgb(55,18,60);fill-rule:nonzero;stroke:white;stroke-width:1.1px;"/>
            </g>
        </g>
        <g transform="matrix(1,0,0,1,-5.00004,0)">
            <g transform="matrix(-0.629403,-0.0861221,0.0861221,-0.629403,1716.78,904.731)">
                <path d="M602.04,571.568C628.188,586.066 660.663,582.721 685.52,567.056C697.481,559.518 707.779,549.61 716.351,538.399C725.101,526.955 734.085,513.023 735.979,498.455C737.299,488.294 733.117,471.381 719.722,472.664C707.936,473.793 696.654,486.85 695.944,498.34C695.149,511.208 706.442,520.799 718.133,523.198C732.082,526.062 747.388,521.236 759.909,515.206C787.315,502.009 808.427,476.397 815.479,446.764C816.152,443.938 811.883,442.39 811.175,445.248C805.859,466.705 793.494,485.753 776.201,499.514C767.387,506.527 757.317,512.08 746.612,515.614C734.351,519.661 719.004,522.471 707.946,513.972C695.743,504.592 699.855,489.332 710.941,481.054C717.414,476.22 725.13,474.783 729.654,482.968C733.327,489.612 732.381,498.073 730.174,505.027C723.104,527.311 705.232,548.723 686.104,561.759C662.117,578.106 629.981,583.135 603.733,569.086C602.05,568.185 600.341,570.626 602.04,571.568Z" style="fill:rgb(55,18,60);fill-rule:nonzero;stroke:white;stroke-width:1.1px;"/>
            </g>
        </g>
        <g transform="matrix(1,0,0,1,-5.00004,0)">
            <g transform="matrix(-0.629403,-0.0861221,0.0861221,-0.629403,1716.78,904.731)">
                <path d="M791.153,464.873C795.69,460.192 799.052,454.174 803.026,448.993C807.635,442.986 812.467,437.066 817.897,431.784C816.475,431.301 815.052,430.816 813.629,430.333C815.186,437.229 816.459,444.191 817.345,451.206C818.207,458.028 817.49,465.683 819.381,472.251C819.931,474.162 823.17,474.938 823.734,472.555C825.236,466.214 823.771,458.526 822.996,452.119C822.065,444.417 820.616,436.827 818.743,429.3C818.177,427.023 815.442,426.599 814.03,428.346C809.346,434.147 804.501,439.792 800.083,445.808C796.108,451.218 791.348,457.089 789.018,463.422C788.578,464.616 790.202,465.854 791.153,464.873Z" style="fill:rgb(55,18,60);fill-rule:nonzero;stroke:white;stroke-width:1.1px;"/>
            </g>
        </g>
        <g transform="matrix(1,0,0,1,-5.00004,0)">
            <g transform="matrix(-0.629403,-0.0861221,0.0861221,-0.629403,1716.78,904.731)">
                <path d="M790.051,470.392C800.029,456.808 818.121,432.091 817.323,431.93C816.551,431.774 820.206,443.817 822.111,451.519C823.865,458.604 824.394,466.495 827.166,473.231C828.043,475.359 831.309,474.532 831.452,472.385C831.957,464.864 829.178,456.641 827.297,449.417C825.329,441.862 823.042,434.368 820.255,427.073C819.539,425.199 816.782,425.251 815.762,426.76C806.33,440.716 796.668,454.517 787.078,468.364C785.753,470.277 788.684,472.253 790.051,470.392Z" style="fill:rgb(55,18,60);fill-rule:nonzero;stroke:white;stroke-width:1.1px;"/>
            </g>
        </g>
    </g>
</svg>
