<?xml version="1.0" encoding="UTF-8" standalone="no"?>
<!DOCTYPE svg PUBLIC "-//W3C//DTD SVG 1.1//EN" "http://www.w3.org/Graphics/SVG/1.1/DTD/svg11.dtd">
<svg width="100%" height="100%" viewBox="0 0 241 67" version="1.1" xmlns="http://www.w3.org/2000/svg" xmlns:xlink="http://www.w3.org/1999/xlink" xml:space="preserve" xmlns:serif="http://www.serif.com/" style="fill-rule:evenodd;clip-rule:evenodd;stroke-linejoin:round;stroke-miterlimit:2;">
    <g transform="matrix(1,0,0,1,-368.814,-685.988)">
        <g transform="matrix(0.953723,0,0,0.940227,67.5101,157.949)">
            <g transform="matrix(0.796785,0.72378,-0.72378,0.796785,245.617,-333.515)">
                <path d="M609.193,573.253C635.132,580.431 665.828,573.74 688.812,560.708C710.811,548.232 735.231,524.125 729.765,496.279C727.773,486.14 719.746,477.252 708.737,481.361C698.515,485.178 694.842,496.481 699.053,506.167C710.425,532.323 749.058,522.988 767.898,511.899C779.811,504.889 790.039,495.051 797.475,483.395C804.375,472.579 810.545,458.548 809.552,445.479C809.409,443.603 806.278,443.425 805.841,445.221C803.5,454.821 802.03,464.114 797.61,473.103C793.027,482.422 786.548,490.831 778.861,497.795C763.616,511.606 739.342,522.774 718.477,516.819C707.418,513.663 694.473,498.59 705.899,488.22C710.532,484.016 717.536,483.307 721.774,488.422C725.645,493.094 726.399,500.178 726.05,505.993C724.628,529.653 703.582,548.421 684.105,558.974C673.092,564.941 661.108,569.037 648.756,571.113C635.539,573.334 622.871,572.405 609.663,570.985C608.372,570.847 607.911,572.898 609.193,573.253Z" style="fill:rgb(55,18,60);fill-rule:nonzero;"/>
            </g>
        </g>
        <g transform="matrix(0.953723,0,0,0.940227,67.5101,157.949)">
            <g transform="matrix(0.556219,0.462465,-0.508059,0.611056,339.31,-37.6182)">
                <path d="M602.04,571.568C628.188,586.066 660.663,582.721 685.52,567.056C697.481,559.518 707.779,549.61 716.351,538.399C725.101,526.955 734.085,513.023 735.979,498.455C737.299,488.294 733.117,471.381 719.722,472.664C707.936,473.793 696.654,486.85 695.944,498.34C695.149,511.208 706.442,520.799 718.133,523.198C732.082,526.062 747.388,521.236 759.909,515.206C787.315,502.009 808.427,476.397 815.479,446.764C816.152,443.938 811.883,442.39 811.175,445.248C805.859,466.705 793.494,485.753 776.201,499.514C767.387,506.527 757.317,512.08 746.612,515.614C734.351,519.661 719.004,522.471 707.946,513.972C695.743,504.592 699.855,489.332 710.941,481.054C717.414,476.22 725.13,474.783 729.654,482.968C733.327,489.612 732.381,498.073 730.174,505.027C723.799,525.121 708.64,544.507 691.697,557.681C689.851,559.116 687.984,560.478 686.104,561.759C662.117,578.106 629.981,583.135 603.733,569.086C602.05,568.185 600.341,570.626 602.04,571.568Z" style="fill:rgb(55,18,60);fill-rule:nonzero;"/>
            </g>
        </g>
    </g>
</svg>
