<?xml version="1.0" encoding="UTF-8" standalone="no"?>
<!DOCTYPE svg PUBLIC "-//W3C//DTD SVG 1.1//EN" "http://www.w3.org/Graphics/SVG/1.1/DTD/svg11.dtd">
<svg width="100%" height="100%" viewBox="0 0 52 29" version="1.1" xmlns="http://www.w3.org/2000/svg" xmlns:xlink="http://www.w3.org/1999/xlink" xml:space="preserve" xmlns:serif="http://www.serif.com/" style="fill-rule:evenodd;clip-rule:evenodd;stroke-linejoin:round;stroke-miterlimit:2;">
    <g transform="matrix(1,0,0,1,-694.867,-773.603)">
        <g transform="matrix(0.953723,0,0,0.940227,67.5101,157.949)">
            <g transform="matrix(0.954431,0.0356195,-0.023235,0.622587,445.797,405.166)">
                <path d="M279.592,387.366C267.655,386.481 255.152,386.004 243.223,387.131C242.566,387.192 242.546,388.133 243.223,388.167C255.301,388.772 267.494,388.643 279.592,388.982C280.642,389.013 280.618,387.442 279.592,387.366Z" style="fill:rgb(55,18,60);fill-rule:nonzero;"/>
            </g>
        </g>
        <g transform="matrix(0.953723,0,0,0.940227,67.5101,157.949)">
            <g transform="matrix(1.4351,-0.222571,0.0954834,0.61566,272.453,486.652)">
                <path d="M279.592,387.366C267.655,386.481 255.152,386.004 243.223,387.131C242.566,387.192 242.546,388.133 243.223,388.167C255.301,388.772 267.494,388.643 279.592,388.982C280.642,389.013 280.618,387.442 279.592,387.366Z" style="fill:rgb(55,18,60);fill-rule:nonzero;"/>
            </g>
        </g>
        <g transform="matrix(0.953723,0,0,0.940227,67.5101,157.949)">
            <g transform="matrix(1.18454,-0.375604,0.188312,0.59388,306.357,545.846)">
                <path d="M279.592,387.366C267.655,386.481 255.152,386.004 243.223,387.131C242.566,387.192 242.546,388.133 243.223,388.167C255.301,388.772 267.494,388.643 279.592,388.982C280.642,389.013 280.618,387.442 279.592,387.366Z" style="fill:rgb(55,18,60);fill-rule:nonzero;"/>
            </g>
        </g>
    </g>
</svg>
