<?xml version="1.0" encoding="UTF-8" standalone="no"?>
<!DOCTYPE svg PUBLIC "-//W3C//DTD SVG 1.1//EN" "http://www.w3.org/Graphics/SVG/1.1/DTD/svg11.dtd">
<svg width="100%" height="100%" viewBox="0 0 52 28" version="1.1" xmlns="http://www.w3.org/2000/svg" xmlns:xlink="http://www.w3.org/1999/xlink" xml:space="preserve" xmlns:serif="http://www.serif.com/" style="fill-rule:evenodd;clip-rule:evenodd;stroke-linejoin:round;stroke-miterlimit:2;">
    <g transform="matrix(1,0,0,1,-1259.11,-780.775)">
        <g transform="matrix(0.953723,0,0,0.940227,67.5101,157.949)">
            <g transform="matrix(0.916327,0.269355,-0.175704,0.597731,1109.41,365.53)">
                <path d="M279.592,387.366C267.655,386.481 255.152,386.004 243.223,387.131C242.566,387.192 242.546,388.133 243.223,388.167C255.301,388.772 267.494,388.643 279.592,388.982C280.642,389.013 280.618,387.442 279.592,387.366Z" style="fill:rgb(55,18,60);fill-rule:nonzero;"/>
            </g>
        </g>
        <g transform="matrix(0.953723,0,0,0.940227,67.5101,157.949)">
            <g transform="matrix(1.44574,0.137366,-0.0589305,0.620227,921.347,401.862)">
                <path d="M279.592,387.366C267.655,386.481 255.152,386.004 243.223,387.131C242.566,387.192 242.546,388.133 243.223,388.167C255.301,388.772 267.494,388.643 279.592,388.982C280.642,389.013 280.618,387.442 279.592,387.366Z" style="fill:rgb(55,18,60);fill-rule:nonzero;"/>
            </g>
        </g>
        <g transform="matrix(0.953723,0,0,0.940227,67.5101,157.949)">
            <g transform="matrix(1.24054,-0.07261,0.0364037,0.621956,939.645,467.577)">
                <path d="M279.592,387.366C267.655,386.481 255.152,386.004 243.223,387.131C242.566,387.192 242.546,388.133 243.223,388.167C255.301,388.772 267.494,388.643 279.592,388.982C280.642,389.013 280.618,387.442 279.592,387.366Z" style="fill:rgb(55,18,60);fill-rule:nonzero;"/>
            </g>
        </g>
    </g>
</svg>
