<?xml version="1.0" encoding="UTF-8" standalone="no"?>
<!DOCTYPE svg PUBLIC "-//W3C//DTD SVG 1.1//EN" "http://www.w3.org/Graphics/SVG/1.1/DTD/svg11.dtd">
<svg width="100%" height="100%" viewBox="0 0 180 100" version="1.1" xmlns="http://www.w3.org/2000/svg" xmlns:xlink="http://www.w3.org/1999/xlink" xml:space="preserve" xmlns:serif="http://www.serif.com/" style="fill-rule:evenodd;clip-rule:evenodd;stroke-linecap:round;stroke-linejoin:round;stroke-miterlimit:90;">
    <g transform="matrix(1,0,0,1,-1000.75,-2847.73)">
        <g transform="matrix(1,0,0,1,2.20666,1558.71)">
            <g transform="matrix(1.5442,0,0,1.67028,-517.971,-684.475)">
                <path d="M1043.92,1183.13L1059.86,1240.19L1097.62,1240.19" style="fill:none;stroke:rgb(55,18,60);stroke-width:1.87px;"/>
            </g>
        </g>
        <g transform="matrix(1,0,0,1,2.20666,1558.71)">
            <g transform="matrix(1.5442,0,0,1.67028,-611.969,-684.475)">
                <path d="M1043.92,1183.13L1059.86,1240.19L1097.62,1240.19" style="fill:none;stroke:rgb(55,18,60);stroke-width:1.87px;"/>
            </g>
        </g>
        <g transform="matrix(1,0,0,1,2.20666,1558.71)">
            <g transform="matrix(1.5442,0,0,1.67028,-515.331,-688.59)">
                <path d="M1044.41,1184.89L1059.86,1240.19L1095.83,1240.08" style="fill:none;stroke:rgb(255,121,0);stroke-width:1.87px;"/>
            </g>
        </g>
        <g transform="matrix(1,0,0,1,2.20666,1558.71)">
            <g transform="matrix(1.5442,0,0,1.67028,-609.329,-688.59)">
                <path d="M1044.41,1184.89L1059.86,1240.19L1095.83,1240.08" style="fill:none;stroke:rgb(255,121,0);stroke-width:1.87px;"/>
            </g>
        </g>
    </g>
</svg>
