<?xml version="1.0" encoding="UTF-8" standalone="no"?><!DOCTYPE svg PUBLIC "-//W3C//DTD SVG 1.1//EN" "http://www.w3.org/Graphics/SVG/1.1/DTD/svg11.dtd"><svg width="100%" height="100%" viewBox="0 0 201 100" version="1.1" xmlns="http://www.w3.org/2000/svg" xmlns:xlink="http://www.w3.org/1999/xlink" xml:space="preserve" xmlns:serif="http://www.serif.com/" style="fill-rule:evenodd;clip-rule:evenodd;stroke-linecap:round;stroke-linejoin:round;stroke-miterlimit:90;"><path d="M4.166,1.5l139.317,0l25.664,38.662c0,0 18.664,7.666 19.331,9.332c0.666,1.667 4.333,21.664 2.333,24.331c-2,2.666 -8.999,2 -8.999,2c0,0 -10.332,18.997 -27.663,1.999l-92.989,-1.333c0,0 -13.332,19.664 -26.331,-0.333l-33.329,-1l2.666,-73.658Z" style="fill:none;stroke:#ff7900;stroke-width:3px;"/><path d="M11.804,7.658l139.317,0l25.664,38.662c0,0 18.664,7.666 19.331,9.333c0.666,1.666 4.332,21.664 2.333,24.33c-2,2.666 -8.999,2 -8.999,2c0,0 -10.332,18.998 -27.664,2l-92.989,-1.334c0,0 -13.331,19.665 -26.33,-0.333l-33.329,-1l2.666,-73.658Z" style="fill:none;stroke:#37123c;stroke-width:3px;"/><path d="M49.51,19.572l-29.002,42.073l51.022,-36.463l-25.242,31.554l37.058,-22.439l-18.261,30.854l44.578,-41.372l-14.501,24.543l22.02,-14.025l-16.113,30.153l26.854,-25.945l-7.519,17.53l18.798,-14.024l-11.816,23.841" style="fill:none;stroke:#ff7900;stroke-width:3px;"/><path d="M55.056,20.268l-29.002,42.073l51.022,-36.463l-25.242,31.555l37.058,-22.439l-18.261,30.853l44.578,-41.371l-14.501,24.542l22.02,-14.024l-16.113,30.152l26.854,-25.945l-7.519,17.531l18.798,-14.025l-11.816,23.842" style="fill:none;stroke:#37123c;stroke-width:3px;"/><circle cx="53.77" cy="83.179" r="15.12" style="fill:#37123c;"/><circle cx="174.226" cy="84.344" r="15.12" style="fill:#37123c;"/></svg>