<?xml version="1.0" encoding="UTF-8" standalone="no"?>
<!DOCTYPE svg PUBLIC "-//W3C//DTD SVG 1.1//EN" "http://www.w3.org/Graphics/SVG/1.1/DTD/svg11.dtd">
<svg width="100%" height="100%" viewBox="0 0 120 88" version="1.1" xmlns="http://www.w3.org/2000/svg" xmlns:xlink="http://www.w3.org/1999/xlink" xml:space="preserve" xmlns:serif="http://www.serif.com/" style="fill-rule:evenodd;clip-rule:evenodd;stroke-linecap:round;stroke-linejoin:round;stroke-miterlimit:90;">
    <g transform="matrix(1,0,0,1,-748.388,-2859.94)">
        <g transform="matrix(1,0,0,1,-15.2126,1558.71)">
            <g transform="matrix(1.38978,0,0,1.42444,-303.278,-416.392)">
                <path d="M852.472,1212.79C852.472,1209.53 849.755,1206.88 846.409,1206.88L774.8,1206.88C771.453,1206.88 768.737,1209.53 768.737,1212.79L768.737,1260.11C768.737,1263.38 771.453,1266.03 774.8,1266.03L846.409,1266.03C849.755,1266.03 852.472,1263.38 852.472,1260.11L852.472,1212.79Z" style="fill:none;stroke:rgb(55,18,60);stroke-width:2.13px;"/>
            </g>
        </g>
        <g transform="matrix(1,0,0,1,-15.2126,1558.71)">
            <g transform="matrix(1.24179,0,0,1.20915,-183.356,-149.997)">
                <path d="M852.472,1212.79C852.472,1209.53 849.891,1206.88 846.712,1206.88L774.497,1206.88C771.318,1206.88 768.737,1209.53 768.737,1212.79L768.737,1260.11C768.737,1263.38 771.318,1266.03 774.497,1266.03L846.712,1266.03C849.891,1266.03 852.472,1263.38 852.472,1260.11L852.472,1212.79Z" style="fill:none;stroke:rgb(55,18,60);stroke-width:2.45px;"/>
            </g>
        </g>
        <g transform="matrix(1,0,0,1,-15.2126,1558.71)">
            <g transform="matrix(1.25703,0,0,1.25703,-209.407,-207.927)">
                <path d="M795.19,1217.65C795.19,1217.65 865.201,1217.26 854.188,1217.26C843.175,1217.26 793.616,1224.73 793.616,1224.73L843.175,1227.09C843.175,1227.09 805.809,1233.78 802.269,1234.17C798.73,1234.56 829.015,1238.1 834.129,1238.5C839.242,1238.89 861.661,1240.86 845.142,1241.64C828.622,1242.43 799.91,1247.94 799.91,1247.94L854.581,1247.54L791.65,1256.2L851.828,1257.38" style="fill:none;stroke:rgb(255,121,0);stroke-width:2.39px;"/>
            </g>
        </g>
        <g transform="matrix(1,0,0,1,-15.2126,1558.71)">
            <g transform="matrix(1.25703,0,0,1.25703,-217.66,-213.361)">
                <path d="M795.19,1217.65C795.19,1217.65 865.201,1217.26 854.188,1217.26C843.175,1217.26 793.616,1224.73 793.616,1224.73L843.175,1227.09C843.175,1227.09 805.809,1233.78 802.269,1234.17C798.73,1234.56 829.015,1238.1 834.129,1238.5C839.242,1238.89 861.661,1240.86 845.142,1241.64C828.622,1242.43 799.91,1247.94 799.91,1247.94L854.581,1247.54L791.65,1256.2L851.828,1257.38" style="fill:none;stroke:rgb(55,18,60);stroke-width:2.39px;"/>
            </g>
        </g>
    </g>
</svg>
