<?xml version="1.0" encoding="UTF-8" standalone="no"?>
<!DOCTYPE svg PUBLIC "-//W3C//DTD SVG 1.1//EN" "http://www.w3.org/Graphics/SVG/1.1/DTD/svg11.dtd">
<svg width="100%" height="100%" viewBox="0 0 144 144" version="1.1" xmlns="http://www.w3.org/2000/svg" xmlns:xlink="http://www.w3.org/1999/xlink" xml:space="preserve" xmlns:serif="http://www.serif.com/" style="fill-rule:evenodd;clip-rule:evenodd;stroke-linejoin:round;stroke-miterlimit:2;">
    <g transform="matrix(1,0,0,1,-1361.43,-889.808)">
        <g transform="matrix(0.0397935,0.872234,0.872234,-0.0397935,-1260.11,199.325)">
            <g transform="matrix(-0.255057,0.733278,0.795701,0.276769,484.335,2324.38)">
                <path d="M547.905,850.118C559.38,816.636 588.198,789.818 622.311,780.437C640.587,775.409 662.898,774.176 679.245,785.353C697.18,797.616 702.599,820.488 702.908,840.962C703.297,866.614 699.31,892.725 694.386,917.829C693.56,922.045 700.056,923.829 700.836,919.607C705.431,894.762 708.865,869.182 708.854,843.873C708.844,822.728 704.204,799.719 687.801,784.94C672.316,770.991 650.095,769.44 630.444,773.062C611.949,776.47 594.506,785.158 580.144,797.214C563.816,810.919 551.689,829.04 545.581,849.478C545.133,850.976 547.406,851.574 547.905,850.118Z" style="fill:rgb(55,18,60);fill-rule:nonzero;"/>
            </g>
        </g>
        <g transform="matrix(0.0397935,0.872234,0.872234,-0.0397935,-1260.11,199.325)">
            <g transform="matrix(-0.255057,0.733278,0.795701,0.276769,484.335,2324.38)">
                <path d="M547.674,848.183C565.883,822.628 593.307,806.401 623.93,800.308C637.897,797.528 656.914,795.117 668.114,806.17C680.118,818.015 676.273,840.079 674.476,855.05C672.009,875.584 666.952,895.729 659.739,915.101C658.588,918.191 663.556,919.547 664.684,916.464C671.714,897.235 676.527,877.318 679.006,856.993C680.935,841.172 684.356,819.953 673.949,806.211C664.508,793.743 647.189,793.028 632.997,794.968C616.663,797.199 600.634,802.357 586.146,810.24C570.055,818.994 555.476,831.413 545.798,847.086C545.051,848.296 546.876,849.303 547.674,848.183Z" style="fill:rgb(55,18,60);fill-rule:nonzero;"/>
            </g>
        </g>
        <g transform="matrix(0.0397935,0.872234,0.872234,-0.0397935,-1260.11,199.325)">
            <g transform="matrix(-0.255057,0.733278,0.795701,0.276769,484.335,2324.38)">
                <path d="M697.463,922.001C710.169,924.191 722.769,926.905 735.063,930.82C734.659,929.29 734.255,927.761 733.852,926.231C711.915,943.348 691.033,961.754 671.104,981.166C672.631,981.362 674.157,981.56 675.685,981.756C661.735,959.193 649.106,935.846 637.826,911.837C636.989,913.296 636.152,914.755 635.314,916.214C644.486,916.425 653.43,917.727 662.283,920.123C665.852,921.089 667.372,915.565 663.809,914.59C654.473,912.034 644.989,910.646 635.314,910.396C632.941,910.335 631.916,912.871 632.803,914.773C644.021,938.825 656.656,962.148 670.648,984.7C671.643,986.304 673.858,986.628 675.229,985.29C695.125,965.85 716.036,947.517 737.734,930.114C739.409,928.771 738.339,926.045 736.522,925.525C723.874,921.905 711.038,919.465 697.882,918.899C696.137,918.825 695.688,921.695 697.463,922.001Z" style="fill:rgb(55,18,60);fill-rule:nonzero;"/>
            </g>
        </g>
    </g>
</svg>
