<?xml version="1.0" encoding="UTF-8" standalone="no"?>
<!DOCTYPE svg PUBLIC "-//W3C//DTD SVG 1.1//EN" "http://www.w3.org/Graphics/SVG/1.1/DTD/svg11.dtd">
<svg width="100%" height="100%" viewBox="0 0 96 45" version="1.1" xmlns="http://www.w3.org/2000/svg" xmlns:xlink="http://www.w3.org/1999/xlink" xml:space="preserve" xmlns:serif="http://www.serif.com/" style="fill-rule:evenodd;clip-rule:evenodd;stroke-linejoin:round;stroke-miterlimit:1.41421;">
    <g transform="matrix(1,0,0,1,-969.756,-2267.28)">
        <g transform="matrix(1,0,0,1,-0.98516,-1002.19)">
            <g transform="matrix(0.369252,0,0,0.369252,653.461,3077.7)">
                <path d="M875.418,621.924C889.604,609.763 904.869,598.645 921.171,588.574C922.017,588.053 922.712,586.979 921.986,586.101C905.836,566.563 888.985,547.486 871.509,528.816C921.816,548.574 974.962,566.721 1031.08,561.018C1032,560.923 1032.79,559.959 1032.77,559.193C1032.54,552.074 1032.31,544.954 1032.08,537.835C1058.26,554.015 1084.2,570.477 1109.88,587.244C1083.58,603.696 1056.53,619.159 1028.38,633.182C1028.91,623.968 1029.42,614.752 1029.9,605.536C1029.96,604.468 1028.9,603.666 1027.73,603.585C975.903,599.972 923.85,606.155 875.418,621.924ZM1027.11,638.08C1057.25,622.929 1086.53,606.548 1114.41,588.471C1115.47,587.78 1114.96,586.438 1114.08,585.877C1087,568.683 1059.65,551.827 1032,535.331C1031.99,534.79 1031.97,534.249 1031.95,533.707C1031.87,531.219 1027.36,531.105 1027.44,533.607C1027.56,537.324 1027.69,541.041 1027.81,544.758C1027.88,546.944 1029.54,554.244 1028.17,555.908C1024.72,560.14 1010.97,558.459 1005.55,558.377C989.059,558.128 972.655,555.877 956.661,552.396C924.953,545.493 894.871,534.033 865.242,522.262C863.02,521.378 860.903,523.415 862.541,525.142C881.497,545.136 899.72,565.629 917.21,586.584C898.591,598.262 881.277,611.252 865.263,625.512C863.466,627.111 865.615,629.258 867.82,628.492C917.816,611.144 971.481,603.816 1025.39,607.261C1024.88,616.981 1024.39,626.703 1023.93,636.426C1023.87,637.799 1025.73,638.773 1027.11,638.08Z" style="fill:rgb(55,18,60);fill-rule:nonzero;stroke:rgb(55,18,60);stroke-width:5.42px;"/>
            </g>
        </g>
    </g>
</svg>
