<?xml version="1.0" encoding="UTF-8" standalone="no"?>
<!DOCTYPE svg PUBLIC "-//W3C//DTD SVG 1.1//EN" "http://www.w3.org/Graphics/SVG/1.1/DTD/svg11.dtd">
<svg width="100%" height="100%" viewBox="0 0 76 80" version="1.1" xmlns="http://www.w3.org/2000/svg" xmlns:xlink="http://www.w3.org/1999/xlink" xml:space="preserve" xmlns:serif="http://www.serif.com/" style="fill-rule:evenodd;clip-rule:evenodd;stroke-miterlimit:10;">
    <g transform="matrix(1,0,0,1,-0.0209901,-0.0264768)">
        <g>
            <path d="M50.07,1.93C34.774,-3.083 17.878,2.024 7.92,14.67C-1.858,27.431 -2.628,45.044 6,58.61C9.813,64.48 15.174,69.183 21.49,72.2C21.59,72.37 21.75,72.39 22.06,72.53L22.06,72.47C29.771,76.034 38.456,76.925 46.73,75C48.319,74.619 49.882,74.138 51.41,73.56C51.538,73.51 51.662,73.45 51.78,73.38C64.696,68.255 73.867,56.513 75.71,42.74C75.957,40.807 76.054,38.858 76,36.91C75.446,21.037 65.096,7.075 50.07,1.93ZM30.84,63.93C32.059,63.847 33.264,63.622 34.43,63.26C36.769,62.383 39.169,61.678 41.61,61.15C43.07,60.91 46.72,60.43 46.83,62.69C48.111,62.162 49.456,61.806 50.83,61.63C50.62,61.74 50.43,61.87 50.22,61.98C44.226,65.005 37.317,65.7 30.84,63.93ZM52,61C51.736,60.949 51.469,60.922 51.2,60.92C50.426,60.941 49.659,61.068 48.92,61.3C48.516,61.477 48.093,61.607 47.66,61.69C47.39,61.92 47.22,61.86 47.15,61.54C47.053,61.393 46.939,61.259 46.81,61.14C44.81,59.26 40.59,60.54 38.32,61.21C35.09,62.16 31.99,63.77 28.53,63.13C28.35,63.13 28.18,63.05 28.01,63.01C24.673,61.72 21.635,59.764 19.08,57.26C13.958,52.191 11.073,45.276 11.073,38.07C11.073,23.286 23.216,11.11 38,11.07C39.298,11.07 40.594,11.161 41.88,11.34C52.445,12.881 61.146,20.551 64,30.84C67.052,42.406 62.163,54.692 52,61Z" style="fill:rgb(0,102,179);fill-rule:nonzero;"/>
            <path d="M38,65.62C37.969,65.62 37.939,65.62 37.908,65.62C22.772,65.62 10.318,53.166 10.318,38.03C10.318,30.696 13.243,23.655 18.44,18.48C23.616,13.276 30.661,10.347 38.001,10.347C53.136,10.347 65.591,22.802 65.591,37.937C65.591,38.018 65.591,38.099 65.59,38.18C65.408,51.497 55.704,62.914 42.59,65.24C41.07,65.496 39.531,65.624 37.99,65.62M37.99,66.31C53.506,66.297 66.266,53.526 66.266,38.01C66.266,29.578 62.498,21.573 56,16.2C50.923,11.996 44.535,9.694 37.943,9.694C22.413,9.694 9.633,22.474 9.633,38.004C9.633,39.897 9.823,41.785 10.2,43.64C12.854,56.815 24.561,66.361 38,66.31" style="fill:white;fill-rule:nonzero;"/>
            <path d="M64.82,59.58C64.43,58.95 64.02,58.34 63.61,57.72L62.74,58.82L64.82,59.58ZM60.57,59.1C59.91,58.89 60.76,58.1 61.19,58.2C61.62,58.3 61.69,58.6 62.06,58.49C62.24,58.43 62.47,58.04 62.58,57.91C63.01,57.35 63.22,57.17 62.84,56.59C62.61,56.25 62.44,56.15 62.69,55.76C62.94,55.37 63.05,55.44 63.34,55.65C63.95,56.08 64.22,57.06 64.63,57.65C65.04,58.24 66,59.16 65.75,60C65.41,61 64.17,60.51 63.49,60.23C62.53,59.79 61.55,59.45 60.57,59.1ZM65.17,54.66C65.55,54.87 66.17,54.47 66.39,54.15C66.61,53.83 66.49,53.56 66.09,53.32C65.69,53.08 65.4,52.83 65.09,53.32C64.78,53.81 64.63,54.32 65.16,54.66M64.72,55.58C63.47,54.88 64.13,53.49 64.66,52.58C65.07,51.83 65.34,51.83 66.1,52.22C66.86,52.61 67.34,52.98 67.99,53.31C68.64,53.64 69.37,53.87 69.22,54.59C69.014,55.171 68.738,55.725 68.4,56.24C68.16,56.65 67.58,57.33 67.34,56.53C67.15,55.93 68,55.13 68.27,54.66C68.06,54.55 67.46,54.05 67.27,54.12C67.08,54.19 66.81,54.7 66.69,54.86C66.17,55.56 65.69,56.12 64.77,55.62M65.89,50.83C65.69,50.75 65.89,50.19 65.96,50.07C66.21,49.74 66.47,49.81 66.87,49.82C67.57,49.82 68.34,49.82 68.58,49.04C68.07,48.87 66.49,48.77 66.58,47.96C66.77,46.71 69.46,49.05 68.91,47.35C68.73,46.78 68,46.63 67.62,46.24C67.24,45.85 67.18,45.3 67.62,45.1C68.3,44.81 69.62,46.54 69.62,47.1C70.246,46.582 71.086,46.4 71.87,46.61C72.073,46.702 72.204,46.906 72.204,47.129C72.204,47.324 72.104,47.506 71.94,47.61C71.65,47.81 71.08,47.61 70.74,47.68C70.4,47.75 69.09,48.04 69.96,48.56C70.26,48.73 72.14,48.92 71.26,49.75C70.73,50.25 70,49.25 69.43,49.4C68.51,49.64 69.9,50.67 70.23,50.91C70.56,51.15 70.82,51.34 70.62,51.8C70.42,52.26 70.26,52.22 69.89,52.06C69.247,51.683 68.771,51.075 68.56,50.36C67.775,50.953 66.752,51.135 65.81,50.85M69.19,43.26C68.574,42.988 68.129,42.431 68,41.77C68,41.36 68.23,40.67 68.75,40.71C69.54,40.71 68.86,41.36 68.94,41.71C69.08,42.33 69.94,41.89 70.3,41.71C70.66,41.53 73.7,40.14 73.07,41.5C72.66,42.39 71.07,42.5 70.22,42.66C70.953,42.99 71.668,43.361 72.36,43.77C72.74,44.02 73.06,44.64 72.43,44.88C72.04,45.02 71.43,44.44 71.12,44.25C70.5,43.89 69.86,43.56 69.23,43.2L69.19,43.26ZM68.37,39.26C68.15,39.26 68.15,38.48 68.22,38.37C68.44,38.08 69.33,38.22 69.66,38.21C70.27,38.21 72.06,38.5 72.32,37.85C72.77,36.74 71.23,36.98 70.61,36.85C69.99,36.72 67.61,36.37 68.09,35.14C68.144,34.906 68.373,34.752 68.61,34.79C69.06,34.87 68.82,35.06 69.07,35.27C69.516,35.608 70.051,35.81 70.61,35.85C71.48,35.99 73.02,35.68 73.15,36.85C73.24,37.63 73.45,38.93 72.56,39.19C71.923,39.275 71.277,39.275 70.64,39.19C69.93,39.16 69.17,39.2 68.41,39.23L68.37,39.26ZM68.73,34.18C67.86,34.35 67.58,32.99 67.59,32.38C67.618,31.51 68.179,30.741 69,30.45C69.969,29.971 71.128,30.071 72,30.71C72.646,31.28 72.93,32.16 72.74,33C72.62,33.26 72.17,33.75 71.84,33.5C71.51,33.25 71.84,32.86 71.84,32.5C71.84,32.496 71.84,32.492 71.84,32.488C71.84,31.774 71.253,31.188 70.54,31.188C70.46,31.188 70.379,31.195 70.3,31.21C69.57,31.21 68.58,31.6 68.5,32.45C68.45,32.92 69.45,33.99 68.73,34.11M68.54,22.39C68.33,22 68.16,21.44 67.66,21.39C67.16,21.34 66.98,21.58 66.92,21.99C66.92,22.24 66.99,22.9 67.23,22.99C67.47,23.08 68.33,22.57 68.58,22.43L68.54,22.39ZM65.47,25.2C65.14,25.35 64.94,24.53 65.01,24.34C65.18,23.91 66.24,23.64 66.61,23.43C66.445,22.994 66.026,22.703 65.56,22.7C65.02,22.7 64.17,23.17 63.76,22.56C63.13,21.62 65.68,21.56 66.13,21.97C66.096,21.857 66.078,21.74 66.078,21.622C66.078,21.021 66.533,20.51 67.13,20.44C67.926,20.388 68.677,20.835 69.01,21.56C69.6,22.48 69.66,23.04 68.63,23.56C67.6,24.08 66.55,24.67 65.51,25.24L65.47,25.2ZM65,17.14C64.29,17.36 63.6,17.62 62.91,17.87L63.75,19L65,17.14ZM63.53,21.14C63.3,21.47 63,21.22 62.85,20.97C62.7,20.72 62.79,20.46 62.95,20.15C63.31,19.48 63.31,19.47 62.78,18.83C62.25,18.19 62.26,18.2 61.52,18.41C60.78,18.62 60.28,17.98 61.04,17.51C61.748,17.211 62.481,16.973 63.23,16.8C63.9,16.54 65,15.8 65.67,16.39C66.34,16.98 65.67,17.97 65.27,18.56C64.64,19.41 64.08,20.28 63.51,21.15L63.53,21.14ZM61.53,13.86C61.83,13.55 61.67,13.23 61.44,12.94C61.06,12.44 60.97,12.57 60.58,12.99C60.19,13.41 60.08,13.41 60.49,13.79C60.9,14.17 61.22,14.22 61.49,13.86M60.24,15.58C60.58,15.23 60.41,14.84 60.14,14.51C59.67,13.93 59.6,14.01 59.14,14.51C58.68,15.01 58.59,15.03 59.14,15.44C59.48,15.72 59.91,16 60.3,15.58M61.08,16.27C60.572,16.776 59.765,16.844 59.18,16.43C58.75,16.2 57.9,15.66 57.74,15.17C57.52,14.49 58.27,14.02 58.74,13.56C59.21,13.1 59.54,12.63 59.95,12.17C60.36,11.71 60.64,11.43 61.17,11.59C61.697,11.883 62.132,12.316 62.43,12.84C62.94,13.72 62.43,15.25 61.21,14.73C61.549,15.199 61.507,15.849 61.11,16.27M57.04,11.46C57.49,10.79 57.73,9.84 56.92,9.32C56.11,8.8 54.98,9.65 54.64,10.52C53.97,12.27 56.14,12.89 57.04,11.46M57.95,12C57.52,12.69 56.763,13.111 55.95,13.111C54.658,13.111 53.594,12.047 53.594,10.755C53.594,10.315 53.717,9.884 53.95,9.51C55.77,6.8 59.75,9.21 57.95,12M54,7.23C53.72,7.88 53,7.17 52.66,7.02C52.1,6.81 52.06,7.08 51.84,7.58C51.51,8.33 51.29,9.12 50.89,9.84C50.67,10.24 50,11.07 49.66,10.12C49.48,9.64 50.12,8.91 50.33,8.51C50.68,7.82 50.89,6.63 51.46,6.11C52.03,5.59 52.37,6.03 52.93,6.26C53.3,6.41 54.28,6.65 54,7.26M48,7C48.18,6.35 48.22,5.48 47.54,5.1C46.62,4.58 45.85,5.34 45.54,6.17C45.23,7 45.24,7.95 46.16,8.29C47.08,8.63 47.81,7.8 48,7M49,7.23C48.792,8.337 47.817,9.147 46.69,9.147C45.401,9.147 44.34,8.086 44.34,6.797C44.34,6.496 44.398,6.199 44.51,5.92C44.773,4.886 45.711,4.157 46.778,4.157C48.061,4.157 49.118,5.214 49.118,6.497C49.118,6.746 49.078,6.994 49,7.23M42.62,8.08C42.62,8.33 41.77,8.19 41.69,8.08C41.61,7.97 41.69,6.92 41.75,6.64C41.81,5.99 42.38,4.25 41.63,3.96C40.63,3.56 40.72,4.96 40.54,5.6C40.36,6.24 39.66,8.53 38.54,7.85C37.97,7.5 38.41,7.13 38.71,6.85C39.181,6.452 39.493,5.899 39.59,5.29C39.689,4.687 39.819,4.09 39.98,3.5C40.23,2.89 40.61,3 41.16,3.06C42.03,3.17 43.05,2.93 43.08,4.06C43.043,4.602 42.966,5.14 42.85,5.67C42.82,6.49 42.77,7.29 42.69,8.07L42.62,8.08ZM35.23,4C35.04,4.72 34.87,5.43 34.69,6.15L36.09,6.05L35.23,4ZM37.77,7.45C38.01,8.08 36.98,7.98 36.77,7.68C36.56,7.38 36.7,6.97 36.38,6.79C36.15,6.735 35.91,6.735 35.68,6.79C35.341,6.774 35.002,6.822 34.68,6.93C34.33,7.14 34.49,7.27 34.37,7.64C34.15,8.27 33.37,8.5 33.37,7.64C33.528,6.73 33.759,5.833 34.06,4.96C34.2,4.28 34.28,3.15 35.14,3.02C36,2.89 36.34,3.92 36.58,4.58C36.94,5.52 37.35,6.47 37.77,7.43L37.77,7.45ZM32.29,8.21C32.39,8.56 31.48,8.56 31.29,8.43C30.87,8.11 31.16,7.26 30.89,6.86C30.62,6.46 30.54,6.59 30.02,6.7C29.69,6.77 29.14,6.7 29.02,7.08C28.9,7.46 29.32,8.08 29.39,8.36C29.46,8.64 29.33,9.54 28.69,9.23C28.37,9.07 28.32,8.45 28.26,8.15C28.12,7.51 27.98,6.86 27.8,6.22C27.68,5.77 27.18,4.88 27.56,4.46C28.07,3.88 28.44,4.6 28.56,5C28.73,5.66 28.61,6.11 29.36,6.07C29.64,6.07 30.36,5.9 30.54,5.63C30.72,5.36 30.31,4.74 30.25,4.38C30.16,3.74 30.66,3.2 31.2,3.84C31.51,4.21 31.49,4.94 31.58,5.38C31.79,6.31 32.06,7.25 32.29,8.19L32.29,8.21ZM20,8.66C19.52,8.97 18.35,9.94 19.52,10.34C19.879,10.408 20.249,10.304 20.52,10.06C20.85,9.75 20.74,9.96 20.62,9.57C20.451,9.243 20.243,8.937 20,8.66ZM23,11.54C23.16,11.81 22.37,12.12 22.21,12.08C21.89,11.98 21.73,11.45 21.59,11.19C20.92,9.95 20.37,11.19 20.59,12.08C20.71,12.57 20.91,13 20.44,13.37C19.97,13.74 19.91,13.63 19.7,13.27C19.416,12.571 19.416,11.789 19.7,11.09C19.563,11.144 19.418,11.171 19.271,11.171C18.708,11.171 18.22,10.764 18.12,10.21C18.015,9.404 18.412,8.61 19.12,8.21C20,7.56 20.56,7.46 21.18,8.45C21.8,9.44 22.4,10.53 23,11.54ZM15,12.6C15.27,13.29 15.58,13.96 15.87,14.6L16.92,13.66L15,12.6ZM19.1,13.8C19.72,14.13 18.74,14.71 18.33,14.58C17.92,14.45 17.91,14.11 17.53,14.15C17.34,14.15 17.04,14.52 16.92,14.63C16.4,15.11 16.17,15.25 16.44,15.89C16.6,16.26 16.75,16.39 16.44,16.73C16.13,17.07 16.03,16.98 15.78,16.73C15.26,16.2 15.16,15.19 14.86,14.52C14.56,13.85 13.76,12.81 14.15,12.07C14.65,11.07 15.79,11.85 16.41,12.24C17.28,12.79 18.19,13.29 19.09,13.8L19.1,13.8ZM15.2,17.73C15.37,17.86 14.98,18.34 14.9,18.39C14.6,18.56 14.48,18.39 14.2,18.23C13.92,18.07 13.28,17.23 13.01,17.23C12.91,17.23 12.55,17.72 12.47,17.8C12.02,18.3 11.75,18.55 12.27,19.05C12.61,19.38 13.48,19.67 13.41,20.17C13.28,21.04 12.53,20.53 12.18,20.23C11.53,19.67 10.84,19.11 10.18,18.61C9.78,18.33 8.68,17.73 9.46,17.19C10.24,16.65 10.79,17.79 11.23,18.14C11.68,17.59 12.67,16.95 11.97,16.35C11.59,16.02 10.4,15.52 11.27,14.91C11.83,14.52 12.49,15.37 12.86,15.72C13.57,16.47 14.4,17.09 15.2,17.73ZM10.44,21.86C9.71,21.47 8.44,22.61 9.44,23.21C9.646,23.347 9.872,23.452 10.11,23.52C10.48,23.57 10.25,23.66 10.53,23.35C10.724,23.162 10.834,22.902 10.834,22.632C10.834,22.333 10.7,22.05 10.47,21.86M10.9,20.92C12.17,21.65 11.65,23.53 10.84,24.45C10.32,25.05 9.84,24.53 9.31,24.21C8.53,23.73 7.71,23.32 6.9,22.9C6.5,22.69 5.9,22.13 6.64,21.76C7.38,21.39 7.73,22.59 8.3,22.42C8.61,22.33 9,21.48 9.24,21.22C9.625,20.7 10.358,20.567 10.9,20.92M9.78,26.17C10.12,26.29 9.58,27.05 9.41,27.1C9.24,27.15 8.59,26.82 8.3,26.7C7.468,26.285 6.588,25.973 5.68,25.77C5.464,26.059 5.345,26.409 5.34,26.77C5.49,27.28 7.04,27.71 7.48,27.99C7.966,28.244 8.358,28.647 8.6,29.14C8.75,29.52 8.89,30.23 8.3,30.26C7.71,30.29 7.74,29.56 7.5,29.26C7.146,28.892 6.711,28.611 6.23,28.44C5.56,28.13 4.37,27.81 4.35,26.94C4.35,26.34 4.99,24.83 5.6,24.74C6.21,24.65 6.91,25.18 7.38,25.34L9.78,26.17ZM4,32.4C4.63,32.77 5.29,33.1 5.94,33.45L6.18,32.07L4,32.4ZM8,30.78C8.67,30.69 8.33,31.68 8,31.84C7.67,32 7.29,31.74 7,32C6.889,32.21 6.827,32.443 6.82,32.68C6.69,33.4 6.58,33.68 7.21,34.08C7.52,34.24 7.68,34.22 7.73,34.62C7.78,35.02 7.63,35.16 7.32,35.18C6.57,35.18 5.58,34.18 4.91,33.89C4.24,33.6 3.1,33.27 3,32.47C2.86,31.47 4,31.35 4.72,31.26C5.79,31.12 6.86,31 7.94,30.78L8,30.78ZM4.15,36.54C4.149,36.54 4.147,36.54 4.146,36.54C3.696,36.54 3.326,36.91 3.326,37.36C3.326,37.387 3.327,37.413 3.33,37.44C3.33,37.79 3.27,37.71 3.47,37.86C3.727,37.946 4,37.977 4.27,37.95C5.57,38.01 5.05,36.58 4.15,36.54M4.15,35.54C4.797,35.525 5.384,35.93 5.6,36.54C5.8,37.03 5.6,37.84 6.11,38.02C6.62,38.2 7.22,37.73 7.52,38.16C7.97,38.8 7.22,39.07 6.79,39.04C5.98,39.04 5.17,38.95 4.36,38.94C3.76,38.94 2.83,39.19 2.57,38.49C2.17,37.39 2.86,35.49 4.15,35.55M7.15,40.36C7.81,40.3 7.79,41.94 7.83,42.36C7.91,43.57 6.83,43.36 5.91,43.43C4.99,43.5 3.37,44.16 2.91,43.31C2.68,42.87 2.36,41.21 2.91,40.87C3.91,40.2 3.44,42.5 3.68,42.68C4.062,42.732 4.451,42.673 4.8,42.51C4.92,42.36 4.8,42.04 4.8,41.85C4.8,41.66 4.55,41.12 4.8,40.91C4.873,40.866 4.957,40.843 5.042,40.843C5.246,40.843 5.428,40.976 5.49,41.17C5.65,41.49 5.33,41.97 5.6,42.28C5.87,42.59 6.6,42.34 7,42.28C7,41.85 6.41,40.42 7.17,40.28M4.44,46.94C4.68,47.77 4.56,48.08 5.44,47.94C6.331,47.705 7.269,47.705 8.16,47.94C7.99,47.34 7.98,46.24 7.34,46.1C6.49,45.92 5.26,46.71 4.44,46.94ZM9.1,43.94C9.45,43.83 9.42,44.7 9.23,44.85C9.04,45 8.41,44.75 8.23,45.19C8.05,45.63 8.76,47.19 8.91,47.69C9.19,48.63 9.48,47.84 10.14,48.01C10.374,48.045 10.548,48.248 10.548,48.485C10.548,48.601 10.506,48.713 10.43,48.8C9.951,49.067 9.418,49.225 8.87,49.26C8.37,49.2 8.08,48.79 7.51,48.79C6.61,48.79 5.34,49.38 4.51,49.03C3.99,48.82 4.01,48.31 3.89,47.83C3.77,47.35 3.32,46.7 3.62,46.27C4.21,45.42 6.17,45.7 7,45.2C7.48,44.91 7.12,45.13 7.35,44.72C7.58,44.31 7.46,44.47 7.85,44.31C8.259,44.163 8.677,44.039 9.1,43.94ZM9.35,49.94C10,49.67 10.44,51.22 10.62,51.64C11.12,52.82 9.69,53.06 8.86,53.42C8.2,53.71 6.99,54.79 6.31,54.16C5.808,53.519 5.466,52.769 5.31,51.97C5.71,50.89 6.36,52.59 6.47,52.82C6.58,53.05 6.65,53.19 6.96,53.18C7.262,53.129 7.545,52.997 7.78,52.8C8.03,52.25 6.95,51.8 7.26,51.28C7.79,50.36 8.39,52.19 8.51,52.45C9.1,52.17 9.82,52.15 9.61,51.45C9.49,51.05 8.61,50.28 9.31,49.96M10.1,58.14C10.316,58.451 10.671,58.637 11.05,58.637C11.685,58.637 12.207,58.115 12.207,57.48C12.207,57.244 12.135,57.014 12,56.82L10.1,58.14ZM9.89,55.83C9.572,56.031 9.378,56.383 9.378,56.76C9.378,56.969 9.438,57.174 9.55,57.35L11.45,56C11.081,55.543 10.414,55.447 9.93,55.78M9.31,55C9.908,54.577 10.712,54.577 11.31,55C11.54,55.13 11.86,55.42 12.13,55.44C12.21,55.44 12.41,55.19 12.63,55.26C13.38,55.47 12.86,56.02 12.77,56.26C12.6,56.78 13.18,57.45 13,58.08C12.742,58.816 12.076,59.337 11.3,59.41C10.55,59.47 10.38,58.91 9.78,58.68C9.18,58.45 8.84,59.02 8.58,58.36C8.41,57.93 8.68,57.88 8.84,57.69C9,57.5 8.49,56.53 8.49,56.33C8.533,55.781 8.839,55.285 9.31,55" style="fill:white;fill-rule:nonzero;"/>
            <path d="M38,65.62C37.969,65.62 37.939,65.62 37.908,65.62C22.772,65.62 10.318,53.166 10.318,38.03C10.318,30.696 13.243,23.655 18.44,18.48C23.616,13.276 30.661,10.347 38.001,10.347C53.136,10.347 65.591,22.802 65.591,37.937C65.591,38.018 65.591,38.099 65.59,38.18C65.408,51.497 55.704,62.914 42.59,65.24C41.07,65.496 39.531,65.624 37.99,65.62M37.99,66.31C53.506,66.297 66.266,53.526 66.266,38.01C66.266,29.578 62.498,21.573 56,16.2C50.923,11.996 44.535,9.694 37.943,9.694C22.413,9.694 9.633,22.474 9.633,38.004C9.633,39.897 9.823,41.785 10.2,43.64C12.854,56.815 24.561,66.361 38,66.31" style="fill:white;fill-rule:nonzero;"/>
            <path d="M43.72,61C44.86,61 46.77,61.23 46.81,62.75C48.25,62.131 49.786,61.762 51.35,61.66C51.78,61.66 52.27,61.9 52.66,61.9C52.89,61.9 52.95,61.9 53.22,61.68L50.76,77.27C49.844,76.703 48.736,76.53 47.69,76.79C45.985,77.293 44.315,77.908 42.69,78.63C41.69,79.01 39.76,79.68 38.69,78.88C38.12,78.44 38.26,77.88 38.33,77.23C36.721,77.943 35.046,78.499 33.33,78.89C31.511,79.165 29.659,79.135 27.85,78.8C26.107,78.529 24.418,77.978 22.85,77.17C22.32,76.89 21.51,76.6 21.43,76.03C21.456,75.485 21.546,74.944 21.7,74.42L22.13,71.81L23.13,65.6L23.76,61.8C26.42,63.38 28.91,64.31 32.07,63.8C36.07,63.16 39.55,60.99 43.64,60.96" style="fill:white;fill-rule:nonzero;"/>
            <path d="M39.61,72.05L39.15,75.37C39.05,76.07 38.41,78.09 39.15,78.55C39.89,79.01 41.15,78.55 41.83,78.37C42.83,78.07 43.73,77.65 44.66,77.27C46.26,76.63 48.66,75.5 50.33,76.45C50.58,74.45 50.95,72.45 51.21,70.45C51.26,70.13 51.33,70.09 51.21,69.87C50.86,69.42 49.8,69.51 49.35,69.55C47.603,69.886 45.894,70.398 44.25,71.08C42.91,71.52 41.08,72.34 39.64,72.08" style="fill:rgb(237,28,36);fill-rule:nonzero;"/>
            <path d="M51.06,71.62C51.2,70.76 51.33,69.89 51.47,69.02C51.56,68.45 52.02,67.12 51.63,66.76C50.94,66.1 49.18,66.58 48.42,66.76C46.07,67.42 43.8,68.49 41.42,68.91C41.011,68.901 40.603,68.931 40.2,69C40.11,69.08 40.12,69.51 40.1,69.62L39.68,72.29C39.58,72.97 39.36,73.5 40.14,73.86C41.14,74.34 42.57,73.86 43.56,73.47C45.56,72.69 48.87,70.47 51.1,71.59" style="fill:rgb(0,102,179);fill-rule:nonzero;"/>
            <path d="M38.76,78.11C38.99,76.55 41.64,77.11 42.69,77.03C43.31,77.03 44.07,76.9 44.34,76.27C44.538,75.496 44.626,74.698 44.6,73.9L42.4,73.9L40.67,73.9C40.42,73.9 39.77,73.78 39.54,73.9C39.31,74.02 39.22,75.17 39.15,75.59L38.76,78.11Z" style="fill:rgb(190,30,45);fill-rule:nonzero;"/>
            <path d="M22,76L23.2,68.83C24.712,69.781 26.423,70.37 28.2,70.55C31.49,70.81 34.39,69.45 37.46,68.55C38.997,68.038 40.587,67.702 42.2,67.55C43.06,67.49 44.35,67.41 45.06,68.04C45.77,68.67 45.19,70.62 45.06,71.48C44.82,73.09 44.57,74.7 44.33,76.31C44.72,73.8 36.33,77.46 35.41,77.8C30.905,79.3 25.95,78.635 22,76" style="fill:rgb(237,28,36);fill-rule:nonzero;"/>
            <path d="M35.52,67.77C33.117,68.801 30.468,69.117 27.89,68.68C26.341,68.302 24.87,67.659 23.54,66.78L23.22,68.72C22.982,69.523 22.844,70.353 22.81,71.19C22.88,71.95 24.81,72.57 25.45,72.83C27.053,73.406 28.747,73.688 30.45,73.66C33.61,73.6 36.36,72.24 39.33,71.35C40.4,71.03 44.48,69.57 45.09,71.27C45.22,70.45 45.34,69.62 45.46,68.79C45.663,68.143 45.761,67.468 45.75,66.79C45.55,66.15 44.31,66.07 43.75,66.04C40.904,66.056 38.092,66.659 35.49,67.81" style="fill:rgb(0,102,179);fill-rule:nonzero;"/>
            <path d="M50.62,42.52C50.54,42.32 50.45,42.12 50.36,41.93C50.606,42.058 50.808,42.256 50.94,42.5C50.81,42.66 50.7,42.66 50.62,42.5M48.06,42.5C48.06,41.8 47.81,41.13 47.77,40.44C48.075,41.148 48.306,41.885 48.46,42.64C48.332,42.579 48.198,42.532 48.06,42.5M47,49.07C47.05,48.96 47,49.22 47,49.07M47,49.78L47,49.66C47.02,49.698 47.02,49.742 47,49.78M50.58,53.35C50.45,53.63 50.13,54.62 49.87,54.65C49.66,54.607 49.472,54.49 49.34,54.32C49.01,53.54 50.18,53.43 50.58,53.32M51.2,53.14C51.15,53.49 50.91,53.51 50.67,53.3C50.852,53.267 51.03,53.213 51.2,53.14M31,56.44C31.035,56.319 31.104,56.211 31.2,56.13C31.13,56.41 31.1,56.33 30.93,56.47L31,56.44ZM29,49.74C29.09,49.53 29,49.69 29,49.74M25.18,47.5C25.29,47.5 25.18,47.5 25.18,47.5M26.27,44.81C25.295,44.491 24.732,43.451 25,42.46C25.449,41.47 25.998,40.528 26.64,39.65C26.37,40.42 24.38,43.31 26.04,43.81C27.7,44.31 27.78,41.32 28.21,40.49C28.042,41.129 27.931,41.781 27.88,42.44C27.978,42.963 28.403,43.368 28.93,43.44C30.32,43.5 30.11,41.44 30.13,40.59C30.85,41.11 31.31,39.59 31.74,40.81C32.125,41.748 31.964,42.826 31.32,43.61C31.55,43.621 31.779,43.58 31.99,43.49C31.587,44.18 30.716,44.454 29.99,44.12C30.007,44.257 30.052,44.39 30.12,44.51C29.103,44.595 28.289,45.413 28.21,46.43C27.86,45.95 26.95,46.31 26.95,46.88C26.675,46.728 26.383,46.611 26.08,46.53C26.36,46.66 26.65,46.78 26.93,46.92C26.47,46.71 25.99,46.57 25.52,46.39L26.27,44.81ZM52.75,41.22L52.75,41.39C52.687,41.341 52.65,41.265 52.65,41.185C52.65,41.105 52.687,41.029 52.75,40.98C52.85,41.06 52.84,41.14 52.75,41.22M50.1,41.22C50.315,41.248 50.486,41.416 50.52,41.63C50.22,41.63 50.21,41.46 50.1,41.22M44.67,44.1C44.383,43.968 44.152,43.737 44.02,43.45C44.231,43.54 44.46,43.581 44.69,43.57C44.046,42.802 43.88,41.737 44.26,40.81C44.74,39.48 45.13,41.09 45.88,40.55C45.88,41.18 46.2,42.06 45.88,42.65C45.56,43.24 44.88,43.5 44.64,44.1M47.35,54.76L46.03,54.15L47,52.2C47.26,52.41 48.12,52.65 48.22,52.97C48.32,53.29 47.53,54.44 47.38,54.76L47.35,54.76ZM29,49.48C29,49.65 29,49.58 29,49.48M52,40.39C52.154,40.364 52.31,40.436 52.39,40.57C52.24,40.569 52.098,40.503 52,40.39M49.64,40.39C49.808,40.508 49.94,40.671 50.02,40.86C49.76,40.86 49.73,40.57 49.64,40.39M46,50L46,50.28L46,50M46,49.61L46,49.74L46,49.61M42.33,55.68L42.97,55.98C42.57,56.72 41.73,55.77 42.33,55.68M36.33,54.42L36.89,54.14C36.76,54.74 36.89,55.7 36.09,55.61C36.13,55.206 36.211,54.808 36.33,54.42M33,56C33.101,55.937 33.209,55.883 33.32,55.84C33.32,56.11 33.22,56.3 33,56M36.74,53.06C37.28,53.18 36.74,53.46 36.54,53.58C36.6,53.41 36.67,53.23 36.74,53.06M42.64,47.41C41.717,47.276 40.779,47.53 40.05,48.11C40.51,47.21 41.83,46.49 42.64,47.41M41.09,51.25C40.99,51.25 40.09,50.73 40.15,50.64C40.601,50.619 41.041,50.79 41.36,51.11L41.09,51.25ZM36.49,51.25C36.34,51.25 36.7,50.91 36.69,50.93L36.49,51.25M37.42,51.25C37.2,51.25 37.42,50.94 37.42,50.92L37.42,51.25M40.21,52.37C40.71,51.91 41.4,52.84 41.67,53.17C41.122,53.035 40.618,52.76 40.21,52.37M40,51.77C40.06,51.77 40,51.86 40,51.77M38.42,51C38.42,51.19 38.52,51.38 38.58,51.57C38.42,51.49 38.44,51.14 38.42,51M41.52,48.89C41.52,49.89 42.93,50.17 43.6,49.58C43.597,49.718 43.643,49.853 43.73,49.96L41.49,51.11C41.49,50.11 39.56,49.55 41.49,48.89M41.49,48.89C41.864,48.795 42.256,48.795 42.63,48.89C42.281,49.104 41.839,49.104 41.49,48.89M44.1,49.57C44.1,49.67 44.21,49.7 44.3,49.64C44.199,49.721 44.084,49.783 43.96,49.82L44.1,49.57M43.82,52.98C43.19,52.489 42.521,52.051 41.82,51.67L44.66,50.24C44.792,51.226 44.497,52.224 43.85,52.98M35.26,50.89L35.06,50.79C35.294,50.742 35.531,50.709 35.77,50.69C35.643,50.836 35.452,50.911 35.26,50.89M34.16,50.37L33.16,49.91C33.752,49.94 34.273,49.499 34.34,48.91C33.7,49.2 32.84,48.91 32.91,48.15C33.003,47.532 33.54,47.07 34.166,47.07C34.317,47.07 34.468,47.097 34.61,47.15C35.346,47.351 35.895,47.974 36,48.73C36,49.44 35,50.64 34.2,50.3M27.6,47.13C27.6,47.3 27.51,47.13 27.6,47.13M36.6,57.43C36.374,57.264 36.214,57.023 36.15,56.75C36.71,56.75 36.53,56.88 36.6,57.43M39.24,55C39.367,54.791 39.481,54.574 39.58,54.35C40,55.1 40.24,56.88 39.36,57.41C39.43,56.605 39.39,55.794 39.24,55M48.31,47.15C48.31,47.71 48.17,47.62 47.65,47.88C47.55,47.55 48.22,47.45 48.31,47.15M50.77,38.68C51.081,38.964 51.362,39.279 51.61,39.62C51.217,39.429 50.915,39.091 50.77,38.68M49.34,39.63L49.46,39.83C49.35,39.83 49.31,39.75 49.34,39.63M23.47,41L23.19,41C23.776,40.167 24.446,39.396 25.19,38.7C24.689,39.518 24.114,40.288 23.47,41M21.86,47.23C21.43,47.23 21.32,48.06 20.86,47.81C20.4,47.56 20.86,47.09 20.77,46.81C20.68,46.53 20.48,46.47 20.39,46.3C20.213,45.959 20.146,45.571 20.2,45.19C20.28,44.559 20.687,44.015 21.27,43.76C21.54,43.63 21.84,43.61 22.1,43.5C22.36,43.39 22.52,43.14 22.71,43.1C23.38,42.98 23.12,43.83 23.18,44.1C23.24,44.37 23.53,44.66 23.58,44.99C23.634,45.349 23.586,45.717 23.44,46.05C23.153,46.676 22.563,47.111 21.88,47.2M37.13,21C37.943,20.926 38.759,21.112 39.46,21.53C40.292,22.096 41.226,22.493 42.21,22.7C41.59,22.7 40.31,22.98 39.84,22.44C39.84,23.17 41.08,23.54 41.66,23.67C41.126,23.739 40.584,23.663 40.09,23.45C40.328,23.815 40.68,24.093 41.09,24.24C40.446,24.917 39.517,25.248 38.59,25.13C38.86,25.444 39.268,25.605 39.68,25.56C38.757,26.935 38.18,28.514 38,30.16C37.8,28.507 37.207,26.926 36.27,25.55C36.685,25.602 37.1,25.44 37.37,25.12C36.446,25.239 35.519,24.908 34.88,24.23C35.29,24.083 35.642,23.805 35.88,23.44C35.386,23.653 34.844,23.729 34.31,23.66C34.89,23.53 36.08,23.16 36.13,22.43C35.67,22.97 34.36,22.69 33.75,22.69C35.015,22.461 36.188,21.874 37.13,21M25.63,46.48C25.42,46.36 25.58,46.48 25.63,46.48M46.94,49.31C46.86,49.31 46.86,49.25 46.94,49.17L46.94,49.31M46.94,49.4C47.01,49.49 47.02,49.55 46.94,49.59L46.94,49.4ZM59.29,32.21C58.583,31.854 57.783,31.725 57,31.84C57.71,31.61 59.4,30.71 59.32,29.76C59.24,28.81 57.82,29.35 57.24,29.48C57.91,28.99 58.98,28.12 58.89,27.17C58.8,26.22 57.08,27.01 56.53,27.23C57.91,26.47 58.87,24.44 57.87,23.03C56.62,23.75 55.87,25.03 54.72,25.91C55.85,24.61 58.64,20.7 55.95,19.4C54.983,21.6 53.721,23.659 52.2,25.52C52.109,25.395 51.984,25.297 51.84,25.24C51.5,26.254 50.858,27.141 50,27.78C49.94,27.617 49.86,27.462 49.76,27.32C48.948,28.35 48.041,29.301 47.05,30.16C46.37,30.85 45.62,31.76 46.26,32.73C46.49,33.08 46.94,33.3 47.04,33.73C47.108,34.241 46.858,34.745 46.41,35C46.113,35.22 45.754,35.339 45.384,35.339C44.838,35.339 44.324,35.079 44,34.64C44.622,34.519 45.076,33.969 45.076,33.335C45.076,33.004 44.952,32.685 44.73,32.44C44.21,33.36 42.95,33.03 42.36,32.37C42.492,32.424 42.632,32.451 42.775,32.451C43.378,32.451 43.875,31.955 43.875,31.351C43.875,31.317 43.873,31.284 43.87,31.25C43.06,31.95 42.18,31.17 41.93,30.34C41.76,29.399 41.996,28.428 42.58,27.67C42.81,27.32 43.14,26.89 43.47,26.82C43.47,26.82 43.81,26.92 43.91,26.93C44.139,26.902 44.363,26.848 44.58,26.77C45.44,26.6 46.37,26.94 46.34,27.97C47.34,27.39 46.55,26.49 45.74,26.27C46.74,26.27 47.32,27.48 48.35,27.27C48.86,27.18 50.22,26.39 49.57,25.77C49.2,27.3 46.57,25.68 45.63,25.77C46.37,25.35 47.63,25.25 48.19,26.06C48.788,25.544 48.905,24.652 48.46,24C48.16,23.59 47.8,23.6 47.36,23.43C47.203,23.355 47.053,23.268 46.91,23.17C46.63,23.03 46.6,22.89 46.39,22.71C47.408,22.781 48.405,22.387 49.1,21.64C49.78,20.64 48.44,19.57 48.98,18.55C49.43,18.77 50.27,18.94 50.59,19.35C50.91,19.76 50.59,20.51 50.37,20.98C50.066,21.527 50.066,22.193 50.37,22.74C50.64,23.3 51.02,23.82 50.44,24.36C50.47,24.363 50.501,24.364 50.531,24.364C51.09,24.364 51.556,23.918 51.58,23.36C51.58,22.85 51.08,22.52 51.1,22.02C51.47,22.52 51.82,22.45 52.38,22.46C52.94,22.47 53.11,22.46 52.81,23.07C53.26,22.82 53.67,21.98 53.16,21.6C52.65,21.22 51.49,21.97 52.22,20.87C52.68,20.19 53.22,19.55 52.22,18.94C51.52,18.49 50.95,18.51 50.37,17.83C49.79,17.15 49.44,16.91 48.64,17.35C47.84,17.79 47.2,18.1 47.35,19C47.5,19.9 48.35,20.55 48.05,21.39C47.75,22.23 46.84,22.39 46.17,22.52C46.02,21.67 47.17,20.96 46.58,20.12C46.44,19.92 45.08,19.12 45.09,19.67C44.85,19.56 45.09,19.39 45.09,19.22C45.09,19.05 44.95,18.81 45.17,18.81C45.069,18.709 44.979,18.599 44.9,18.48C45.015,18.559 45.123,18.649 45.22,18.75L45.22,17.75C45.127,17.853 45.019,17.94 44.9,18.01C44.979,17.895 45.069,17.787 45.17,17.69L44.17,17.69C44.268,17.789 44.358,17.896 44.44,18.01C44.319,17.938 44.208,17.85 44.11,17.75L44.11,18.75C44.208,18.65 44.319,18.562 44.44,18.49C44.355,18.601 44.265,18.708 44.17,18.81C44.25,18.81 44.43,19.57 44.17,19.67C44.1,19.14 42.88,19.87 42.72,20.07C42.11,20.84 42.99,21.66 43.1,22.43C42.17,22.169 41.309,21.705 40.58,21.07C39.74,20.27 40.09,19.57 40.58,18.67C41.077,17.99 41.158,17.088 40.79,16.33C40.51,15.92 38.79,14.95 38.7,15.69C38.39,15.69 38.53,15.35 38.29,15.37C38.504,15.246 38.626,15.006 38.6,14.76C38.6,14.46 38.2,14.31 38.6,14.31C38.431,14.165 38.298,13.984 38.21,13.78C38.417,13.858 38.599,13.989 38.74,14.16L38.74,13C38.596,13.163 38.419,13.293 38.22,13.38C38.22,13.17 38.47,12.99 38.6,12.85L37.33,12.85C37.46,13 37.67,13.18 37.71,13.38C37.507,13.296 37.325,13.166 37.18,13L37.18,14.26C37.33,14.13 37.5,13.92 37.71,13.88C37.629,14.085 37.499,14.268 37.33,14.41C37.73,14.41 37.33,14.57 37.33,14.86C37.311,15.107 37.436,15.345 37.65,15.47C37.37,15.47 37.59,15.64 37.49,15.7C37.413,15.776 37.287,15.776 37.21,15.7C37,15.7 36.8,15.56 36.48,15.65C35.62,15.89 34.84,16.36 34.86,17.34C34.88,18.32 36.02,19.34 35.86,20.34C35.7,21.34 33.72,22.23 32.81,22.52C32.89,21.87 33.48,21.18 33.34,20.52C33.235,20.173 32.965,19.9 32.62,19.79C32.49,19.74 31.54,19.65 31.73,19.79C31.52,19.64 31.73,19.52 31.73,19.34C31.73,19.16 31.58,18.93 31.8,18.93C31.699,18.833 31.609,18.725 31.53,18.61C31.651,18.682 31.762,18.77 31.86,18.87L31.86,17.87C31.762,17.97 31.651,18.058 31.53,18.13C31.609,18.015 31.699,17.907 31.8,17.81L30.8,17.81C30.901,17.907 30.991,18.015 31.07,18.13C30.949,18.058 30.838,17.97 30.74,17.87L30.74,18.87C30.85,18.77 30.95,18.69 31.07,18.6C30.991,18.719 30.901,18.829 30.8,18.93C31.07,18.93 30.8,19.05 30.86,19.26C30.918,19.424 30.952,19.596 30.96,19.77C30.73,19.77 30.57,19.58 30.21,19.69C29.88,19.79 29.584,19.977 29.35,20.23C28.74,21.06 29.87,21.8 29.76,22.64C29.12,22.53 28.21,22.27 27.92,21.64C27.63,21.01 28.3,20.11 28.51,19.4C28.72,18.69 28.28,18.04 27.57,17.65C26.86,17.26 26.28,17.15 25.67,17.84C25.466,18.156 25.201,18.428 24.89,18.64C24.56,18.82 24.16,18.84 23.82,19.02C22.76,19.6 23.27,20.27 23.75,21.02C24.43,22.1 23.38,21.43 22.88,21.7C22.38,21.97 22.7,22.96 23.16,23.22C22.87,22.68 23.16,22.64 23.58,22.61C24,22.58 24.48,22.7 24.87,22.17C24.87,22.67 24.38,23 24.39,23.51C24.42,24.069 24.888,24.513 25.448,24.513C25.476,24.513 25.503,24.512 25.53,24.51C24.88,23.89 25.43,23.31 25.69,22.69C25.911,22.096 25.836,21.431 25.49,20.9C25.32,20.51 25.07,19.83 25.4,19.43C25.73,19.03 26.59,18.9 27,18.7C27.54,19.7 26.22,20.75 26.88,21.79C27.575,22.537 28.572,22.931 29.59,22.86C29.59,23.25 29.43,22.99 29.26,23.14C29.09,23.29 29.02,23.48 29.02,23.48C28.61,23.7 28.08,23.59 27.68,23.94C27.405,24.23 27.252,24.614 27.252,25.013C27.252,25.47 27.453,25.904 27.8,26.2C28.32,25.39 29.62,25.49 30.36,25.91C29.44,25.85 26.8,27.47 26.42,25.91C25.78,26.53 27.13,27.33 27.63,27.41C28.63,27.57 29.23,26.41 30.25,26.41C29.44,26.63 28.63,27.53 29.65,28.11C29.65,27.11 30.55,26.74 31.41,26.91C31.741,26.964 32.075,27.001 32.41,27.02C32.68,27.02 32.62,26.93 32.93,27.25C33.093,27.423 33.24,27.611 33.37,27.81C33.909,28.535 34.136,29.447 34,30.34C33.75,31.18 32.87,31.95 32.06,31.25C32.057,31.284 32.055,31.317 32.055,31.351C32.055,31.955 32.552,32.451 33.155,32.451C33.298,32.451 33.438,32.424 33.57,32.37C32.98,33.02 31.71,33.37 31.2,32.44C30.978,32.685 30.854,33.004 30.854,33.335C30.854,33.969 31.308,34.519 31.93,34.64C31.605,35.088 31.084,35.353 30.53,35.353C30.164,35.353 29.806,35.236 29.51,35.02C29.091,34.791 28.833,34.347 28.84,33.87C28.84,33.35 29.36,33.13 29.63,32.73C30.27,31.73 29.52,30.85 28.84,30.16C27.849,29.301 26.942,28.35 26.13,27.32C26.03,27.462 25.95,27.617 25.89,27.78C25.043,27.136 24.412,26.25 24.08,25.24C23.936,25.297 23.811,25.395 23.72,25.52C22.209,23.657 20.958,21.599 20,19.4C17.3,20.69 20.1,24.61 21.22,25.91C20,25.09 19.31,23.75 18.05,23C17.05,24.41 18.05,26.44 19.39,27.2C18.8,27 17.1,26.15 17,27.17C16.9,28.19 18,29 18.69,29.48C18.13,29.35 16.49,28.96 16.64,29.88C16.79,30.8 18.12,31.57 18.92,31.88C18.37,31.88 16.67,31.71 16.73,32.55C16.79,33.39 18.38,34.1 19.15,34.21C18.53,34.28 16.7,34.74 17.41,35.64C17.936,36.113 18.635,36.348 19.34,36.29C18.79,36.48 17.66,37.29 18.27,37.84C18.88,38.39 20.39,38.05 21.12,37.78C20.55,38.02 18.19,39.51 19.59,40.18C20.99,40.85 22.14,39.3 23.06,38.69C22.46,39.32 21.57,39.69 21.12,40.46C20.88,40.86 20.57,41.74 21.29,41.86C21.15,42.03 20.51,41.96 20.29,42.01C19.878,42.097 19.533,42.376 19.36,42.76C19.11,43.24 19.25,43.09 18.79,43.32C18.33,43.55 18.07,43.81 18.16,44.32C18.25,44.83 18.45,44.71 18.34,45.12C18.23,45.53 17.94,45.78 18.1,46.33C18.22,46.72 18.58,46.95 18.71,47.33C18.84,47.71 18.61,48.15 19.19,48.23C18.71,48.97 19.53,49.62 20.24,49.62C20.89,49.62 20.92,49.34 21.46,49.16C21.7,49.08 22,49.1 22.25,49.02C22.419,48.936 22.596,48.872 22.78,48.83C23.18,48.77 23.84,49.16 24.19,49C24.54,48.84 24.82,47.9 24.99,47.55C25.362,47.858 25.79,48.093 26.25,48.24C26.58,48.38 27.25,48.47 27.45,48.77C27.65,49.07 27.39,49.38 27.57,49.63C27.75,49.88 28.42,49.63 28.32,49.23C28.38,49.49 28.13,49.76 28.32,50C28.388,50.105 28.505,50.168 28.63,50.168C28.755,50.168 28.872,50.105 28.94,50C28.94,50.61 29.7,50.43 29.76,50L33.82,51.89C33.11,52.25 32.56,53.05 31.82,53.26C31.2,53.43 30.41,52.67 31.16,52.26C30.68,52.14 30.16,52.61 30,53.02C29.9,53.24 30,53.52 29.91,53.7C29.82,53.88 29.57,54.04 29.31,54.26C28.54,54.91 27.84,56.26 28.59,57.13C28.693,56.475 29.053,55.888 29.59,55.5C29.563,56.082 29.764,56.653 30.15,57.09C29.79,57.28 27.7,57.96 27.85,58.49C28,59.02 29.93,57.77 30.21,57.63C30.11,58.01 31.12,57.18 31.28,57.09C31.569,57.674 32.18,58.032 32.83,58C32.017,58.993 30.605,59.278 29.47,58.68C29.75,59.75 31.08,60.03 32.03,59.85C33.017,59.651 33.83,58.948 34.17,58C34.793,58.836 35.971,59.051 36.85,58.49C37.02,58.87 37.43,59.7 37.85,59.75C38.27,59.8 38.85,58.91 39.03,58.49C39.345,58.684 39.708,58.786 40.078,58.786C40.909,58.786 41.658,58.268 41.95,57.49C42.53,57.71 42.88,58.11 43.56,57.93C44.123,57.769 44.558,57.318 44.7,56.75C45.17,56.88 45.27,57.47 45.77,57.57C45.714,57.462 45.687,57.342 45.69,57.22C46.32,57.51 48.95,59.22 49.55,58.33C50.25,57.24 47.67,57.15 48.55,56.43C49.02,56.03 49.35,56.75 49.82,56.81C50.29,56.87 50.3,56.64 50.5,56.2C50.81,55.55 51.07,54.87 51.39,54.2C51.71,53.53 51.89,53.35 51.25,53.05C52.231,52.558 52.841,51.537 52.81,50.44C52.795,49.929 52.604,49.438 52.27,49.05C51.76,48.5 51.27,48.85 50.64,48.55C50.826,48.98 51.099,49.368 51.44,49.69C51.11,49.83 50.68,49.46 50.44,49.28C50.44,49.87 51.23,50.1 51.44,50.61C51.7,51.37 50.94,51.88 50.29,51.97C49.12,52.14 46.95,51.09 46.95,49.81C46.95,50.14 47.45,49.98 47.56,49.81C47.67,49.64 47.45,49 47.56,48.95C47.49,49.26 47.73,49.75 48.11,49.62C48.49,49.49 48.29,49.13 48.31,48.87C48.38,47.98 49.31,47.87 49.97,47.48L55.15,45C54.971,44.788 54.842,44.538 54.77,44.27C54.2,44.57 53.57,44.75 52.99,45.03C53.12,45.27 51.3,46.03 50.99,46.22C50.547,46.519 50.086,46.789 49.61,47.03C49.02,47.26 49.19,47.16 48.9,46.74C48.61,46.32 48.14,46.08 47.75,46.47C47.69,45.504 46.957,44.704 46,44.56C46.35,43.98 47.21,43.34 47.88,43.83C48.55,44.32 48,45.3 48.6,45.62C48.6,45.33 48.53,44.74 48.83,44.62C48.912,45.083 49.071,45.529 49.3,45.94C49.46,45.07 50.16,44.77 49.67,43.83C50.18,43.94 50.76,43.28 50.67,42.77C51.255,43.106 51.916,43.285 52.59,43.29C52.44,43.1 52.53,43.29 52.59,43.14C52.97,43.63 52.42,43.14 52.59,43.61C52.65,43.81 52.84,43.93 52.88,44.08C52.92,44.23 52.88,44.44 52.88,44.53L53.07,44.6C52.991,44.718 52.991,44.872 53.07,44.99C53.41,44.8 53.76,44.65 54.07,44.47C53.623,44.362 53.306,43.958 53.306,43.498C53.306,43.237 53.408,42.987 53.59,42.8C53.77,42.6 54.04,42.49 54.22,42.28C54.4,42.07 54.34,41.97 54.49,41.87C54.89,41.6 54.81,42.07 55.01,41.49C55.47,40.13 53.63,39.49 52.88,38.7C53.73,39.26 55.2,40.91 56.42,40.17C57.64,39.43 55.42,38.04 54.82,37.79C55.52,38.04 57.15,38.53 57.75,37.79C58.35,37.05 57.09,36.47 56.6,36.3C57.17,36.3 58.84,36.04 58.73,35.2C58.64,34.53 57.31,34.28 56.79,34.2C57.79,34.05 59.14,33.41 59.3,32.2" style="fill:rgb(128,141,156);fill-rule:nonzero;"/>
            <path d="M56.1,42.29C55.57,42.56 55.56,43 55.23,43.37C54.9,43.74 54.82,43.49 54.78,43.94C54.849,44.359 55.04,44.749 55.33,45.06C55.4,45.13 55.49,45.28 55.61,45.29C55.93,45.29 55.84,45.07 56,45.04C56.38,44.97 56.76,45.23 57.18,45.12C57.83,44.933 58.28,44.335 58.28,43.659C58.28,42.825 57.594,42.139 56.76,42.139C56.532,42.139 56.306,42.191 56.1,42.29" style="fill:rgb(128,141,156);fill-rule:nonzero;"/>
            <path d="M52.94,45C52.848,44.9 52.824,44.754 52.88,44.63C52.62,44.56 51.88,44.86 51.88,45.17C52.242,45.238 52.617,45.178 52.94,45" style="fill:rgb(128,141,156);fill-rule:nonzero;"/>
            <path d="M52.7,44.51C52.628,44.449 52.586,44.359 52.586,44.265C52.586,44.171 52.628,44.081 52.7,44.02C52.213,43.929 51.71,44.07 51.34,44.4C51.67,44.73 52.34,44.62 52.7,44.51" style="fill:rgb(128,141,156);fill-rule:nonzero;"/>
            <path d="M52.57,43.94C52.473,43.86 52.416,43.741 52.416,43.615C52.416,43.489 52.473,43.37 52.57,43.29C51.965,43.181 51.341,43.229 50.76,43.43C51.288,43.832 51.951,44.015 52.61,43.94" style="fill:rgb(128,141,156);fill-rule:nonzero;"/>
            <path d="M56.33,46.57C55.81,46.57 55.56,47.05 55,46.76C54.574,46.471 54.399,45.923 54.58,45.44C54.23,45.61 53.89,45.81 53.58,45.97C53.58,46.12 53.75,46.19 53.88,46.23C53.73,46.48 53.88,46.75 54.19,46.69C54.19,47.04 54.39,47.4 54.76,47.21C54.76,47.71 55.05,47.62 55.33,47.76C55.61,47.9 55.67,48.31 56.02,47.87C56.061,48.092 56.196,48.285 56.39,48.4C56.66,48.5 56.83,48.24 57.04,48.26C57.04,48.26 56.04,50.98 56.88,50.78C57.08,49.95 58.48,46.28 56.37,46.57" style="fill:rgb(128,141,156);fill-rule:nonzero;"/>
            <path d="M53.73,46.28C53.35,45.84 52.93,46.28 52.73,46.77C53.125,46.792 53.505,46.606 53.73,46.28" style="fill:rgb(128,141,156);fill-rule:nonzero;"/>
            <path d="M54.07,46.87C54,46.74 53.71,46.77 53.69,46.48C53.37,46.73 52.91,47.18 52.99,47.64C53.441,47.545 53.833,47.265 54.07,46.87" style="fill:rgb(128,141,156);fill-rule:nonzero;"/>
            <path d="M54.24,47.26C54.141,47.175 54.082,47.051 54.08,46.92C53.73,47.48 53.28,47.99 53.41,48.7C53.917,48.355 54.324,47.882 54.59,47.33C54.47,47.375 54.334,47.347 54.24,47.26" style="fill:rgb(128,141,156);fill-rule:nonzero;"/>
            <path d="M55.12,47.87C54.855,47.822 54.66,47.589 54.66,47.32C54.223,47.898 53.975,48.596 53.95,49.32C54.48,49.11 54.84,48.32 55.12,47.84" style="fill:rgb(128,141,156);fill-rule:nonzero;"/>
            <path d="M55.3,48.82L55.71,48.14C55.13,48.14 55.44,47.48 54.96,48.25C54.594,48.854 54.393,49.544 54.38,50.25C54.768,49.838 55.079,49.361 55.3,48.84" style="fill:rgb(128,141,156);fill-rule:nonzero;"/>
            <path d="M56.18,48.38C56.094,48.268 56.032,48.138 56,48C55.41,48.42 54.38,50.66 54.77,51.3C55.48,50.72 55.83,49.23 56.18,48.38Z" style="fill:rgb(128,141,156);fill-rule:nonzero;"/>
            <path d="M56.33,50.06L57,48.35C56.76,48.52 56.41,48.35 56.28,48.48C56.15,48.61 55.9,49.41 55.81,49.65C55.394,50.398 55.229,51.261 55.34,52.11C55.85,51.84 56.13,50.58 56.33,50.06Z" style="fill:rgb(128,141,156);fill-rule:nonzero;"/>
            <path d="M56.36,50.28C55.772,51.236 55.64,52.407 56,53.47L56.8,50.87C56.49,50.87 56.38,50.56 56.36,50.28" style="fill:rgb(128,141,156);fill-rule:nonzero;"/>
            <path d="M37.92,33.16L33.24,33.16C32.76,33.16 32.75,33.05 32.63,33.38C32.54,33.99 32.54,34.61 32.63,35.22L32.63,41C32.515,42.244 32.515,43.496 32.63,44.74C32.89,46.01 33.91,46.08 35,46.08C36.27,46.08 37.44,46.14 37.87,47.61C38.64,44.84 41.48,47.18 42.78,45.51C43.45,44.65 43.15,42.72 43.15,41.7L43.15,33.7C43.15,33.29 43.24,33.29 42.97,33.17C42.595,33.115 42.215,33.115 41.84,33.17L37.84,33.17L37.92,33.16Z" style="fill:white;fill-rule:nonzero;"/>
            <path d="M37.92,33.16L33.24,33.16C32.76,33.16 32.75,33.05 32.63,33.38C32.54,33.99 32.54,34.61 32.63,35.22L32.63,41C32.515,42.244 32.515,43.496 32.63,44.74C32.89,46.01 33.91,46.08 35,46.08C36.27,46.08 37.44,46.14 37.87,47.61C38.64,44.84 41.48,47.18 42.78,45.51C43.45,44.65 43.15,42.72 43.15,41.7L43.15,33.7C43.15,33.29 43.24,33.29 42.97,33.17C42.595,33.115 42.215,33.115 41.84,33.17L37.84,33.17L37.92,33.16Z" style="fill:none;fill-rule:nonzero;stroke:white;stroke-width:0.03px;"/>
            <path d="M35.77,43.69C35.13,43.69 35.31,42.79 35.47,42.42C35.77,41.75 36.47,41.48 36.95,40.99C37.08,41.08 37.03,41.5 37.12,41.64C37.21,41.78 37.55,41.95 37.7,42.14C37.85,42.33 37.89,42.68 38.08,42.89C38.08,42.56 38.08,43.08 38.14,43.09L37.4,43.35C38,42 35,42.22 35.77,43.69M38.33,42.55C38.26,42.33 37.68,39.48 38.44,40.84C38.395,40.983 38.395,41.137 38.44,41.28C38.518,41.345 38.632,41.345 38.71,41.28C38.82,41.37 39.03,41.39 39.17,41.52C39.426,41.743 39.613,42.035 39.71,42.36C39.71,42.51 39.55,42.72 39.64,42.82C39.64,42.71 39.89,42.58 39.87,42.76C39.85,42.94 39.57,42.84 39.74,43C39.789,42.96 39.848,42.932 39.91,42.92C40.06,43.31 39.67,43.06 39.56,43.25C39.603,43.26 39.647,43.26 39.69,43.25C39.733,43.24 38.99,43.25 38.9,43.1L39.24,43.1C39.27,43.1 39.24,42.8 39.14,42.83C39.04,42.86 38.78,43.09 38.61,43.2C38.629,42.985 38.804,42.814 39.02,42.8C39.15,42.37 38.52,42.8 38.52,42.8C38.52,42.8 38.52,42.5 38.39,42.47L38.29,42.53M36,34.23C36.09,34.23 35.93,35.13 35.83,35.23C35.43,35.61 34.71,35.29 34.49,35.96C34.363,36.388 34.487,36.852 34.81,37.16C34.976,37.211 35.147,37.244 35.32,37.26C35.42,37.26 35.32,37.42 35.53,37.46C35.751,37.433 35.969,37.383 36.18,37.31C36.71,37.24 36.8,37.31 36.9,37.83C37,38.35 37.04,38.28 36.81,38.45C36.449,38.573 36.071,38.644 35.69,38.66C35.18,38.5 35.1,37.79 34.41,38.37C34.207,38.563 34.061,38.809 33.99,39.08C33.87,39.45 33.85,39.61 34.07,39.76C34.085,40.03 34.085,40.3 34.07,40.57C34.2,40.462 34.292,40.315 34.33,40.15C34.369,40.321 34.351,40.5 34.28,40.66C34.526,40.473 34.727,40.234 34.87,39.96C34.941,40.142 34.918,40.348 34.81,40.51C35.54,40.3 34.9,39.51 35.09,39.01C35.46,38.09 35.4,39.43 35.42,39.67C35.42,40.36 35.92,40.58 35.57,41.27C35.424,41.497 35.31,41.742 35.23,42C35.16,42.27 34.77,42.85 34.79,43.09L35,43.09C35,43.14 34.93,43.42 34.86,43.42C34.49,43.42 34.86,41.93 34.12,42.36C34.67,42.44 34.42,43.15 34.54,43.51C34.788,44.097 35.459,44.393 36.06,44.18C36.029,44.32 35.926,44.434 35.79,44.48C35.79,44.55 36.34,44.48 36.39,44.48C36.44,44.48 36.55,44.74 36.67,44.8C37.164,44.957 37.682,45.025 38.2,45C38.584,45.071 38.976,44.91 39.2,44.59C39.33,44.43 39.38,44.21 39.59,44.12C39.8,44.03 40.1,44.32 40.37,44.33C40.37,44.33 41,44.13 41.08,44.11C41.35,44.04 41.66,43.98 41.74,43.66C41.67,43.61 41.62,43.66 41.57,43.77C41.73,43.77 41.57,43.6 41.57,43.77C41.57,43.94 41.49,43.89 41.57,43.77C41.6,43.676 41.6,43.574 41.57,43.48C41.588,43.588 41.536,43.697 41.44,43.75C41.33,43.89 41.3,43.83 41.36,43.59C41.36,43.82 40.69,43.86 40.66,43.59C40.63,43.32 41.04,43.21 41.07,43.34C41.07,43.2 41.07,43.04 41.21,42.98C41.25,43.066 41.25,43.164 41.21,43.25C41.21,43 41.21,42.97 41.34,43.18C41.49,42.64 40.56,43.3 40.34,43.18C40.12,43.06 40.17,42.4 40.11,42.18C39.99,41.74 39.58,41.18 39.67,40.68C39.85,41.14 41.17,39.59 41.43,40.13C41.53,40.35 41.12,40.75 41,40.85C40.88,40.95 41,41 41,41C41,41 40.82,40.82 40.7,41.09C40.49,41.54 41.06,41.46 41.33,41.27C41.603,40.978 41.775,40.607 41.82,40.21C42.06,38.98 41.21,39.46 40.41,39.59C40.41,39.102 40.322,38.617 40.15,38.16C40.31,38.115 40.462,38.044 40.6,37.95C40.738,37.856 41.07,38.21 41.32,37.95C41.57,37.69 41.46,36.95 41.25,36.66C41.68,36.66 41.25,36.43 41.52,36.14C41.25,36.01 40.9,36.14 41.12,35.76C40.77,35.66 39.82,35.46 39.52,35.76C39.52,35.85 39.62,35.89 39.74,35.89C39.46,35.83 38.74,36.17 39.06,36.21C38.85,36.52 38.31,36.06 38.94,36.42C39.1,36.34 38.57,36.68 38.65,36.7C38.51,36.7 37.94,35.98 38,35.9C38.91,36.34 38.7,34.14 37.67,34.97C38.74,34.24 38.67,36.08 38.22,35.83C38.42,35.688 38.522,35.442 38.48,35.2C38.33,35.66 38.48,35.2 38.39,35.2C38.424,35.283 38.424,35.377 38.39,35.46C38.358,35.4 38.334,35.336 38.32,35.27C38.08,35.32 37.84,35.27 37.74,35.74C37.55,35.74 37.67,35.39 37.53,35.62C37.44,35.62 37.64,35.33 37.67,35.31C37.574,35.37 37.498,35.457 37.45,35.56C37.27,35.51 37.5,35.24 37.58,35.21C37.49,35.34 37.4,35.37 37.31,35.29C37.22,35.21 37.8,34.94 37.91,34.9C37.71,34.97 37.38,34.97 37.33,35.18C37.28,35.39 37.73,35.52 37.45,35.83C37.17,35.56 36.74,35.54 36.45,35.33C36.16,35.12 36.19,34.52 36,34.23Z" style="fill:rgb(128,141,156);fill-rule:nonzero;"/>
            <path d="M51.72,49.16L51.61,49.21C51.638,49.272 51.675,49.329 51.72,49.38C51.72,49.33 51.9,49.28 51.84,49.2L51.72,49.2M51.72,49.5C51.46,49.5 51.49,49.08 51.72,49.11C51.95,49.14 51.91,49.37 51.72,49.46L51.72,49.5ZM49.2,44.35C48.96,44.35 49.2,44.5 49.2,44.56C49.2,44.62 49.38,44.47 49.32,44.38L49.19,44.38M49.19,44.67C48.94,44.67 48.96,44.27 49.19,44.29C49.42,44.31 49.39,44.56 49.2,44.64L49.19,44.67ZM56.76,50.86L56,53.44C55.655,52.367 55.79,51.196 56.37,50.23C56.37,50.49 56.5,50.8 56.81,50.83M55.81,51.31C55.716,51.615 55.527,51.881 55.27,52.07C55.165,51.189 55.34,50.296 55.77,49.52C55.836,49.221 55.94,48.932 56.08,48.66C56.34,48.34 56.63,48.51 56.95,48.3C56.56,49.3 56.18,50.3 55.79,51.31L55.81,51.31ZM55.58,49.76C55.414,50.33 55.108,50.849 54.69,51.27C54.2,50.45 55.26,48.46 55.92,47.96C56.18,48.63 55.82,49.11 55.56,49.76L55.58,49.76ZM54.68,49.82C54.585,49.956 54.471,50.078 54.34,50.18C54.362,49.471 54.573,48.781 54.95,48.18C55.41,47.5 55.12,48.18 55.69,48.1C55.35,48.68 55.06,49.29 54.69,49.85M54.43,48.85C54.301,49.043 54.126,49.201 53.92,49.31C53.947,48.587 54.195,47.889 54.63,47.31C54.646,47.577 54.839,47.803 55.1,47.86C54.93,48.226 54.704,48.564 54.43,48.86M54.56,47.29C54.294,47.845 53.882,48.318 53.37,48.66C53.23,47.97 53.71,47.42 54.05,46.88C54.063,47.112 54.257,47.296 54.489,47.296C54.513,47.296 54.537,47.294 54.56,47.29M52.94,47.6C52.86,47.12 53.32,46.69 53.66,46.43C53.676,46.598 53.819,46.728 53.988,46.728C54.013,46.728 54.037,46.725 54.06,46.72C53.83,47.16 53.422,47.481 52.94,47.6M53.65,46.37C53.65,46.57 52.8,46.79 52.65,46.73C52.74,46.53 52.98,46.12 53.23,46.07C53.48,46.02 53.74,46.07 53.65,46.37M57.21,46.91C57.74,47.42 57.51,48.34 57.38,48.91C57.31,49.2 57.16,50.56 56.85,50.68C56.04,51.01 56.78,48.15 57.01,48.17C56.52,48.17 56.1,48.5 56.01,47.78C55.72,48.14 54.73,47.54 54.74,47.12C54.49,47.23 54.4,47.12 54.24,46.96C54.185,46.897 54.159,46.813 54.17,46.73C54.17,46.58 54.17,46.53 53.96,46.59C53.907,46.496 53.847,46.405 53.78,46.32C53.91,46.46 53.53,45.77 53.54,45.87C53.91,45.72 54.24,45.51 54.6,45.34C54.544,45.467 54.515,45.605 54.515,45.744C54.515,46.257 54.909,46.691 55.42,46.74C56.11,46.74 56.69,46.16 57.25,46.86M48.34,38.39L50.2,39.03C50.35,39.09 50.85,39.17 50.94,39.29C51.03,39.41 50.83,39.71 51.17,40C50.042,39.889 49.012,39.303 48.34,38.39M50.95,40.76C50.217,40.649 49.541,40.297 49.03,39.76C49.55,39.49 50.31,39.82 50.81,39.97C51.57,40.21 52.34,40.43 53.11,40.65C52.85,40.74 52.73,41.04 52.47,41.1C52,41.23 51.39,40.86 50.95,40.75M49.34,40.69C50.2,40.46 52.28,40.86 52.78,41.69C51.99,41.95 49.71,41.59 49.34,40.69M51.96,42.32C51.268,42.24 50.604,42 50.02,41.62C50.86,41.546 51.707,41.604 52.53,41.79C52.09,42.22 52.76,42.44 51.89,42.36L51.96,42.32ZM52.26,43.09C51.623,43.076 51.004,42.867 50.49,42.49C51.03,42.14 51.81,42.38 52.4,42.42C52.291,42.664 52.362,42.953 52.57,43.12L52.26,43.09ZM52,43.8C51.516,43.813 51.046,43.637 50.69,43.31C51.281,43.103 51.915,43.055 52.53,43.17C52.436,43.252 52.382,43.37 52.382,43.495C52.382,43.62 52.436,43.738 52.53,43.82C52.348,43.79 52.162,43.79 51.98,43.82M51.29,44.3C51.677,43.987 52.177,43.849 52.67,43.92C52.597,43.983 52.555,44.074 52.555,44.17C52.555,44.266 52.597,44.357 52.67,44.42C52.25,44.53 51.67,44.65 51.29,44.3M51.83,45.05C51.91,44.73 52.73,44.3 52.83,44.61C53.05,45.14 52,45.09 51.83,45.05M50.98,39.65L50.98,39.33C51.98,39.74 53.76,39.9 54.26,41.07C54.6,41.86 54.07,42.13 53.57,42.58C53.334,42.77 53.196,43.057 53.196,43.359C53.196,43.834 53.535,44.247 54,44.34C53.65,44.52 53.28,44.67 52.94,44.87C52.85,44.77 52.83,44.47 52.81,44.44C52.79,44.41 52.59,44.09 52.61,44.11L52.72,43.94L52.52,43.78C52.52,43.51 52.28,43.39 52.64,43.18C52.3,42.93 52.4,41.78 52.85,41.76C52.3,41.21 52.85,41.13 53.14,40.76C53.01,40.97 51.04,40.02 50.93,39.76M50.41,53.42C50.18,53.8 50,55 49.2,54.4C48.93,54.19 49,54.4 49.04,54.03C49.075,53.857 49.158,53.697 49.28,53.57C49.59,53.28 50.02,53.39 50.41,53.33M51.04,53.13C51.04,53.48 50.74,53.52 50.49,53.3C50.679,53.263 50.863,53.206 51.04,53.13M45.67,54L46.67,52C47.4,52.62 48.34,52.7 47.81,53.79C47.72,53.97 47.45,54.6 47.27,54.68C46.88,54.82 46,54.16 45.67,54ZM45.32,55.57L43.32,54.57C43.83,54.47 44.1,54.21 44.64,54.34C44.931,54.402 45.204,54.529 45.44,54.71L45.71,54.84L45.32,55.57ZM36.82,55.35C36.038,55.653 35.156,55.563 34.45,55.11C34.95,54.86 37.69,53.11 38.07,53.77C38.45,54.43 37.19,55.15 36.82,55.35M36.94,53.2L34.31,54.54C34.406,53.899 34.708,53.305 35.17,52.85C35.81,52.4 36.34,53 36.94,53.22L36.94,53.2ZM41,48.92C42.088,48.517 43.315,48.765 44.16,49.56L39.78,51.78C39.87,50.84 39.98,49.36 41,48.92M40,52.4L44.58,50.12C44.772,51.245 44.348,52.391 43.47,53.12C42.3,53.8 41,53 40,52.4M21.85,47.28C21.31,47.34 21.18,48.28 20.47,47.85C20.12,47.64 20.2,47.37 20.15,47.02C20.262,46.962 20.314,46.828 20.27,46.71L20.12,46.58C19.87,45.9 19.54,45.49 19.83,44.72C20.052,44.142 20.541,43.706 21.14,43.55C21.383,43.529 21.624,43.485 21.86,43.42C22.15,43.31 22.21,42.89 22.71,43.05C23.21,43.21 23.1,43.52 23.15,43.87C23,44.03 23.01,44.16 23.15,44.27C23.226,44.357 23.275,44.465 23.29,44.58C23.405,44.831 23.464,45.103 23.464,45.379C23.464,46.332 22.754,47.148 21.81,47.28M58.1,42.87C57.817,42.365 57.282,42.052 56.704,42.052C56.348,42.052 56.001,42.171 55.72,42.39C55.407,42.771 55.163,43.205 55,43.67C54.73,44.15 54.286,44.508 53.76,44.67C51,46 48.37,47.4 45.7,48.76C45.46,47.24 44.89,45.25 46.2,44.03C46.71,43.56 47.51,43.33 47.94,44.03C48.22,44.48 47.94,45.21 48.45,45.55C48.45,45.26 48.38,44.67 48.68,44.49C48.776,44.954 48.938,45.402 49.16,45.82C49.26,45.25 49.78,45.04 49.77,44.4C49.691,43.807 49.373,43.272 48.89,42.92C47.964,42.248 46.73,42.163 45.72,42.7C43.92,43.7 43.81,46.19 44.18,47.97C42.953,47.161 41.365,47.122 40.1,47.87C38.95,48.67 38.59,50.19 38.41,51.51C37.41,51.16 36.41,51.51 35.46,51.11C34.51,50.71 33.38,50.11 32.34,49.58C29.94,48.47 27.55,47.33 25.13,46.26L25.85,44.76C24.85,44.29 24.65,43.58 24.26,42.68C24.26,42.62 24.08,42.61 24.05,42.55C24.02,42.49 24.1,42.36 24.05,42.19C24.002,41.936 23.903,41.695 23.76,41.48C23.31,40.91 22.98,41.21 22.5,41.48C22.35,41.56 22.31,41.66 22.16,41.71C22.01,41.76 21.91,41.61 21.85,41.63C21.721,41.672 21.596,41.729 21.48,41.8C21.41,41.8 21.31,42.03 21.28,42.03C21.25,42.03 20.93,41.95 20.78,41.95C20.469,41.965 20.168,42.065 19.91,42.24C19.5,42.55 19.55,43.12 19.11,43.36C18.88,43.48 18.68,43.36 18.46,43.56C18.254,43.781 18.206,44.109 18.34,44.38C18.4,44.62 18.53,44.7 18.51,44.98C18.49,45.26 18.21,45.51 18.16,45.8C18.03,46.47 18.65,46.7 18.85,47.24C19.006,47.699 19.137,48.166 19.24,48.64C19.43,49.45 19.81,49.64 20.55,49.27C20.758,49.148 20.98,49.051 21.21,48.98C21.39,48.93 21.48,48.98 21.67,48.93C21.86,48.88 21.87,48.67 22.18,48.61C22.49,48.55 22.69,48.61 22.86,48.61C23.049,48.581 23.242,48.602 23.42,48.67C23.66,48.74 23.74,48.95 24,48.78C24.26,48.61 24.11,47.78 24.49,47.54C24.87,47.3 25.49,47.93 25.8,48.07C26.62,48.48 27.47,48.85 28.3,49.23L34.3,52.03C33.669,52.663 33.262,53.485 33.14,54.37C31.95,53.54 30.39,52.96 29.08,53.89C28.19,54.52 27.36,55.89 28.17,56.89C28.319,55.932 28.951,55.116 29.84,54.73C30.828,54.411 31.915,54.639 32.69,55.33C32.15,55.6 27.15,57.91 27.4,58.33C27.78,58.93 32.4,56.11 33.01,55.8C33.137,56.828 32.761,57.857 32,58.56C31.135,59.112 30.038,59.158 29.13,58.68C29.5,60.04 31.44,60.12 32.49,59.61C33.63,58.884 34.272,57.576 34.15,56.23C35.46,56.949 37.081,56.819 38.26,55.9C38.524,55.668 38.756,55.402 38.95,55.11C39.035,54.937 39.132,54.77 39.24,54.61C39.53,54.3 39.46,54.38 39.89,54.61L42.89,55.98C44.641,56.921 46.444,57.762 48.29,58.5C48.81,58.67 49.73,58.72 49.57,57.88C49.45,57.28 48.57,57.11 48.14,56.88C48.79,55.52 49.34,57.3 50.08,56.76C50.49,56.47 50.81,55.45 51.01,54.99L51.48,53.85C51.7,53.32 51.77,53.34 51.24,53.09C52.18,52.526 52.774,51.525 52.82,50.43C52.784,49.896 52.565,49.391 52.2,49C51.69,48.43 51.2,48.8 50.56,48.5C50.56,48.66 51.27,49.7 51.37,49.65C51.05,49.8 50.6,49.41 50.37,49.23C50.37,49.85 51.19,50.1 51.37,50.64C51.61,51.42 50.81,51.86 50.16,51.94C48.35,52.16 47.16,50.5 45.99,49.38C48.64,48.07 51.35,46.84 53.99,45.44C54.36,45.206 54.776,45.056 55.21,45C55.806,45.042 56.404,45.042 57,45C57.76,44.927 58.348,44.281 58.348,43.517C58.348,43.285 58.294,43.057 58.19,42.85" style="fill:rgb(250,188,66);fill-rule:nonzero;"/>
        </g>
    </g>
</svg>
