<?xml version="1.0" encoding="UTF-8" standalone="no"?>
<!DOCTYPE svg PUBLIC "-//W3C//DTD SVG 1.1//EN" "http://www.w3.org/Graphics/SVG/1.1/DTD/svg11.dtd">
<svg width="100%" height="100%" viewBox="0 0 78 86" version="1.1" xmlns="http://www.w3.org/2000/svg" xmlns:xlink="http://www.w3.org/1999/xlink" xml:space="preserve" xmlns:serif="http://www.serif.com/" style="fill-rule:evenodd;clip-rule:evenodd;stroke-linejoin:round;stroke-miterlimit:2;">
    <g transform="matrix(1,0,0,1,-6.0853,-7.1)">
        <g>
            <path d="M83.3,23.2L82.8,23.9C83.1,21.9 82.7,19.1 82.2,17.5C81.5,20.1 80.2,22.4 78.4,24.6L78.3,23.3C76.2,26.6 73.6,29.3 70.7,30.6C70.7,30.1 70.6,29.5 70.4,29.1C66.6,34.1 57.4,32.9 58.4,43C60.5,42.7 61.5,44.8 59.7,46.8C58.9,46.8 58.1,46.5 57.4,46.1L57.8,45.5L56.2,44.7C56.6,44.6 57,44.4 57.4,44.2C55,43 55.8,40.7 53,39.5C52.5,39 52.1,38.3 51.8,37.6C51.7,37.1 51.6,36.5 51.5,35.9C51.5,34.7 51.5,34 51.8,33.5L52,33.8C52.7,32.2 53.6,31 54.8,30.3C58.1,30.4 60,30.2 60.6,28.2C60.4,28.3 60.3,28.3 60.2,28.3C60.1,28.1 60,28 59.9,27.9C60.7,27.6 61.9,28.1 62.2,28.1C62.1,27.1 61.7,26.8 61.5,26.4L62.6,25.6C65.4,26.5 67.8,24.4 69.5,25.3L70.1,23.2C67.6,22 66.1,23.6 64,23.6C64.6,22.3 64.7,21.1 64.2,19.9L62,19.2C59.3,20 59.4,22.5 60.4,24.2C59.8,24.8 59.2,25.1 58.8,25.3L58.1,25.4C58.1,25.4 58,24.5 56.8,24.2L56.8,23.6C58.3,22.4 58.4,21.2 58.1,20.5C57.8,19.8 57,19.4 56.3,19.6L55.3,19.9L55.2,19.7C55.3,19.6 55.3,19.5 55.3,19.4C55.3,19.2 55.2,19 55.1,18.9L55.2,18.9L55.1,18.5L55.5,18.6L55.5,17.2L55.1,17.3L55.2,16.9L53.8,16.9L53.9,17.3L53.5,17.2L53.5,18.6L53.9,18.5L53.5,19L53.7,19C53.6,19.1 53.5,19.3 53.5,19.5C53.5,19.6 53.5,19.8 53.6,19.9L53.5,20.1L52.5,19.8C51.8,19.6 51,19.9 50.7,20.7C50.4,21.4 50.5,22.5 52,23.8L52,24.6L50.9,24.6C49.7,23.9 48.7,22.7 48.4,21.2C49.2,21.1 49.8,20.8 50.3,20.3L50.3,18.2C53.5,15.8 54.4,12.6 51.6,11.2C50,10.4 48,11.1 47,11.9C46.8,11.6 46.5,11.3 46.2,11.2C46.2,10.9 46.1,10.6 45.8,10.3L46,10.3L45.8,9.6L46.5,9.8L46.5,7.6L45.8,7.8L46,7.1L43.8,7.1L44,7.8L43.3,7.6L43.3,9.8L44,9.6L43.8,10.3L44,10.3C43.8,10.5 43.6,10.8 43.6,11.2L43.6,11.3C43.4,11.4 43.1,11.7 42.9,11.9C41.9,11.1 39.9,10.4 38.4,11.2C35.6,12.6 36.5,15.8 39.7,18.2L39.7,20.3C40.2,20.8 40.9,21.1 41.6,21.2C41.3,22.6 40.3,23.8 39.1,24.6L38,24.6L38,23.7C39.5,22.5 39.6,21.3 39.3,20.6C39,19.9 38.2,19.5 37.5,19.7L36.5,20L36.4,19.8C36.5,19.7 36.5,19.6 36.5,19.5C36.5,19.3 36.4,19.1 36.3,19L36.4,19L36.3,18.6L36.7,18.7L36.7,17.3L36.3,17.4L36.4,17L35,17L35.1,17.4L34.7,17.3L34.7,18.7L35.1,18.6L35.1,19L35.3,19C35.2,19.1 35.1,19.3 35.1,19.5C35.1,19.6 35.1,19.8 35.2,19.9L35.1,20.1L34.1,19.8C33.4,19.6 32.6,19.9 32.3,20.7C32,21.4 32.1,22.5 33.6,23.8L33.6,24.4C32.4,24.7 32.3,25.7 32.3,25.7L31.8,25.7C31.4,25.5 30.5,24.9 29.9,24.3C30.9,22.5 30.9,20.3 28.3,19.5L26,20C25.5,21.2 25.6,22.3 26.2,23.6C24.1,23.6 22.6,22 20.1,23.2L20.7,25.3C22.4,24.4 24.8,26.5 27.6,25.6L28.7,26.4C28.3,26.9 27.9,27.4 27.8,28.3C28.5,27.9 29.2,27.8 30.3,28C29.9,28 29.8,28.2 29.8,28.3C29.9,28.4 30,28.4 30,28.4C29.9,28.4 29.6,28.3 29.3,28.3C29.9,30.2 31.9,30.4 35.2,30.3C36.4,30.9 37.2,32.1 38,33.8L38.2,33.5C38.4,34.1 38.5,34.7 38.5,35.9C38.5,36.6 38.4,37.1 38.2,37.6C37.8,38.3 37.4,39 37,39.5C34.2,40.7 35,43 32.6,44.1C33,44.4 33.3,44.6 33.8,44.6L32.2,45.4L32.6,46C31.9,46.4 31.2,46.7 30.3,46.7C28.4,44.7 29.4,42.7 31.6,42.9C32.6,32.8 23.4,34.1 19.6,29C19.5,29.4 19.4,30 19.3,30.5C16.4,29.2 13.8,26.5 11.7,23.2L11.6,24.5C9.9,22.3 8.6,19.9 7.8,17.4C7.3,19 6.9,21.8 7.2,23.8L6.7,23.1C5.7,26.9 5.8,29.4 7.9,32.7C8.2,34.8 9.1,36.9 10.1,38.5C9.5,38.4 9.1,38.3 8.5,38.3C9.6,40.4 10.9,42.4 12.1,43.7L10.4,44.2C11.9,46.5 13.6,48 15.6,49.3C14.7,49.5 14.3,49.8 13.6,50.3C14.9,51.7 16,52.4 17.8,52.9C16.4,53.4 15.8,54 15.4,55.1C17.2,55.7 19.2,56.1 21.2,56C20,56.7 18.9,57.5 18.3,58.6L17.9,58.4C17.7,58.3 17.6,58.3 17.4,58.3C17,58.3 16.5,58.6 16.4,59C16.4,59.1 16.3,59.2 16.3,59.2L16.3,59.4C16.2,59.5 16,59.6 15.9,59.7L15.4,59.5C15.2,59.4 15,59.4 14.8,59.4C14.3,59.4 13.8,59.7 13.6,60.2C13.3,60.9 13.6,61.6 14.2,62L14.6,62.2L14.7,62.2L14.7,62.7L14.6,62.9C14.6,63 14.5,63 14.5,63.1C14.4,63.4 14.4,63.7 14.5,64C14.6,64.3 14.8,64.5 15.1,64.7L15.9,65.1L15.7,65L17.5,65.9L17.6,66C16.6,67.2 15.4,67.9 14,67.9L13.3,67.9L13,67.7L12.9,67.7C12.3,67.6 11.7,67.4 11.1,67.1L10.4,66.7L10.6,67.5C11,69.4 12.7,71.3 15.3,73C17.8,74.5 20.5,75.4 22.8,75.4C24,75.4 25,75.1 25.7,74.6L26.4,74.1L25.6,73.9C25,73.7 24.4,73.4 24,73.1L23.6,73L23.3,72.7C21.9,71.4 21.9,69.5 22.3,68.1L22.4,68.1L24.2,69L24.3,68.8L27.2,70.2C27.1,74.7 25.7,77.5 23.1,80.4L23,80.4C22.6,80.5 22.3,80.9 22.2,81.3C22.1,81.4 22,81.5 21.9,81.6L21.8,81.6C21.6,81.3 21.3,81.1 20.9,81.1C20.8,81.1 20.7,81.1 20.6,81.2L20.1,81.4C19.8,81.5 19.6,81.7 19.5,81.9C19.4,82.1 19.4,82.3 19.4,82.6C19.3,82.6 19.1,82.7 19,82.7C18.8,82.3 18.4,82 18,82C17.9,82 17.8,82 17.6,82.1L17.3,82.2C16.7,82.4 16.4,82.9 16.6,83.5C15.3,83.9 14,84.4 12.8,84.7C13,87.8 14,90.4 16,92.8C19.1,91.3 22.1,89.8 25,88.4C25.1,88.5 25.3,88.6 25.5,88.6C25.6,88.6 25.7,88.6 25.8,88.5L26.2,88.4C26.7,88.2 27.3,87.7 27.6,87.2C31.8,85.2 35.7,83.4 39.1,81.9C39.2,83.1 39.3,84.2 39.7,85C40.5,84.7 41.2,84.5 41.9,83.9C41.9,84.3 42.1,84.7 42.2,85.2L40.7,86.8L41.7,87.8L43.2,86.4C43.4,87.5 44.6,89.1 45.3,89.5C45.8,89.1 47.1,87.4 47.4,86.4L48.9,87.8L49.9,86.8L48.4,85.2C48.6,84.8 48.7,84.4 48.7,83.9C49.4,84.4 50.1,84.7 50.9,85C51.2,84.2 51.4,83.2 51.5,81.9L51.9,82.1L52.1,81.9L59.3,85.4L59.9,85.7L60.1,86L60.2,86.1L60.3,86.1L61.3,86.6L61.6,86.7C61.9,87.2 62.7,88.5 64.1,88.4C64.4,88.4 64.6,88.3 64.8,88.2L66.2,88.9L66.3,88.7L70,90.4L69.9,90.6L72.1,91.7L72.2,91.5L73.3,92C73,92 73.2,92 73.3,92C73.7,92 74.2,91.7 74.3,91.3C74.3,91.2 74.4,91.1 74.4,91.1L74.4,90.9C74.5,90.8 74.7,90.8 74.8,90.6L74.9,90.6L75.5,90.9C75.7,91 75.9,91 76.1,91C76.6,91 77.1,90.7 77.3,90.2C77.6,89.5 77.3,88.8 76.7,88.4L76.2,88.1L76.2,87.6L76.3,87.5C76.4,87.4 76.4,87.4 76.4,87.3C76.5,87 76.5,86.7 76.4,86.4C76.3,86.1 76,86.1 75.8,86L74.6,85.4L74.7,85.2L74.3,85L72.9,84.3L72.5,84.1L72.6,83.9C72.8,83.4 72.4,82.8 72.1,82.7L71.6,82.5C71.1,82.3 70.5,82.5 70.3,83L70.2,83.2L69.8,83L69.9,82.7C70.1,82.2 69.9,81.6 69.3,81.3L68.8,81.1C68.5,81 68.1,81.1 67.9,81.2C64.9,78 63.3,75.3 63.1,71.8C67.8,70 73.1,68.1 78.7,66.3C78.1,63.4 77,60.7 75.5,58.2L74.1,59L72.9,56.7C72.3,57.1 71.7,57.4 71,57.8C70.4,57.2 69.6,56.6 68.8,56.2C70.8,56.3 72.9,55.9 74.6,55.3C74.1,54.3 73.5,53.6 72.2,53.1C74,52.6 75.2,51.9 76.4,50.5C75.7,50 75.3,49.7 74.4,49.5C76.4,48.2 78,46.7 79.6,44.4L77.9,43.9C79.1,42.6 80.4,40.6 81.5,38.5C80.9,38.5 80.5,38.5 79.9,38.7C81,37.2 81.8,35 82.1,32.9C84.2,29.4 84.3,27 83.3,23.2ZM54.2,67C54.1,67.1 53.9,67.1 53.8,67.2L53.9,66.5L54.2,67ZM45,12.4L45,12.4ZM44.3,21.6L45.7,21.6C46.3,23.9 47.7,25.5 49.7,26.8C49.7,26.8 48.4,28.7 46.1,29.5C46.3,29.8 46.4,29.8 46.7,30C45.9,30.7 45,32.4 45,32.4L45,32.5L45,32.4C45,32.4 44.1,30.7 43.3,30C43.5,29.8 43.7,29.8 43.9,29.5C41.6,28.7 40.3,26.8 40.3,26.8C42.3,25.5 43.8,23.9 44.3,21.6ZM36.2,67.1L35.8,67L36.1,66.5L36.2,67.1ZM20.9,59.7C21.7,59.6 22.5,59.5 23.2,59.3C22.8,59.6 22.4,60.1 22.2,60.5L20.8,59.9L20.9,59.7ZM28.6,79.1C30,77.5 31.3,75.8 32.1,72.6L35.8,74.3L36.4,74.6L36.6,74.9L36.7,75L36.8,75L37.3,75.3L33.8,77C32.1,77.6 30.2,78.4 28.6,79.1ZM61.5,79.2L57.2,77.2L56.6,76.9L56.4,76.6L56.3,76.5L56.2,76.5L54.1,75.5C55.3,75 56.7,74.5 58.1,73.9C58.9,75.9 60,77.7 61.5,79.2ZM67.3,59.8C67.1,59.6 66.9,59.4 66.7,59.2C67,59.3 67.4,59.4 67.8,59.5C67.6,59.6 67.5,59.7 67.3,59.8Z" style="fill:rgb(35,31,32);fill-opacity:0.7;fill-rule:nonzero;"/>
            <g>
                <g>
                    <path d="M32.4,26C31.5,25.9 30.5,25.9 29.9,26.1C29.1,26.3 28.5,26.7 28.2,27.7C30.7,27 30.9,28.4 33.2,28.9C32.5,29.2 30.7,29.2 29.7,28.6C30.4,29.7 31.3,30 34.6,29.9C33.5,29 34.1,27 32.4,26Z" style="fill:rgb(252,208,21);fill-rule:nonzero;"/>
                    <path d="M30.2,28.3C30.8,28.4 30.7,28.8 31.7,28.8C31.5,28.6 30.6,27.9 30.2,28.3Z" style="fill:rgb(252,208,21);fill-rule:nonzero;"/>
                    <path d="M57.4,26C58.3,25.9 59.3,25.9 59.9,26.1C60.7,26.3 61.3,26.7 61.6,27.7C59.1,27 58.9,28.4 56.6,28.9C57.3,29.2 59.1,29.2 60.1,28.6C59.4,29.7 58.5,30 55.2,29.9C56.3,29 55.8,27 57.4,26Z" style="fill:rgb(252,208,21);fill-rule:nonzero;"/>
                    <path d="M59.7,28.3C59.1,28.4 59.2,28.8 58.2,28.8C58.4,28.6 59.3,27.9 59.7,28.3Z" style="fill:rgb(252,208,21);fill-rule:nonzero;"/>
                </g>
                <path d="M44.9,72.5L47.7,78.2L45.3,79.2L42.6,73.4L44.9,72.5Z" style="fill:rgb(34,31,31);fill-rule:nonzero;"/>
                <path d="M42.3,85.6L41.1,86.8L41.5,87.2L42.6,86.1C42.6,85.9 42.4,85.7 42.3,85.6Z" style="fill:rgb(34,31,31);fill-rule:nonzero;"/>
                <path d="M47.8,85.6C47.7,85.8 47.6,85.9 47.4,86L48.5,87.1L48.9,86.7L47.8,85.6Z" style="fill:rgb(34,31,31);fill-rule:nonzero;"/>
                <g>
                    <path d="M33.7,23.7L33.7,24.3C35.2,24.2 36.4,24.4 37.8,24.5L37.8,23.7C36.5,23.5 35.1,23.5 33.7,23.7Z" style="fill:rgb(255,193,18);fill-rule:nonzero;"/>
                    <path d="M33.9,20.4L33.5,20.1C33.2,20.1 32.9,20.3 32.7,20.6C31.8,21.7 33,22.9 33.6,23.4L33.8,23.4C34.1,23.4 34.5,23.3 34.8,23.3C34.8,22.1 34.6,21 33.9,20.4Z" style="fill:rgb(255,193,18);fill-rule:nonzero;"/>
                    <path d="M38,20.1L37.6,20.4C36.9,21 36.8,22.1 36.7,23.3C37,23.3 37.4,23.4 37.7,23.4L37.9,23.4C38.5,22.9 39.7,21.7 38.8,20.6C38.6,20.2 38.3,20.1 38,20.1Z" style="fill:rgb(255,193,18);fill-rule:nonzero;"/>
                    <circle cx="35.8" cy="19.5" r="0.4" style="fill:rgb(255,193,18);"/>
                    <path d="M35.1,23.2L36.5,23.2C36.5,21.9 36.7,20.7 37.5,20.1L36.5,20.4L36.3,20.1C36.2,20.2 36,20.2 35.9,20.2C35.7,20.2 35.6,20.1 35.5,20.1L35.3,20.4L34.3,20.1C34.9,20.8 35.1,22 35.1,23.2Z" style="fill:rgb(255,193,18);fill-rule:nonzero;"/>
                    <path d="M35.4,18.7L36.1,18.7L36,18.3L36.5,18.4L36.5,17.7L36,17.8L36.1,17.4L35.4,17.4L35.6,17.8L35.1,17.7L35.1,18.4L35.6,18.3L35.4,18.7Z" style="fill:rgb(255,193,18);fill-rule:nonzero;"/>
                    <path d="M55.5,23.6L55.4,23.6C54.6,23.5 53.8,23.5 52.9,23.6L52.8,23.6C52.6,23.6 52.4,23.6 52.2,23.7L52.2,24.5C53.5,24.5 54.7,24.2 56.2,24.3L56.2,23.7C55.9,23.6 55.7,23.6 55.5,23.6Z" style="fill:rgb(255,193,18);fill-rule:nonzero;"/>
                    <path d="M57.2,20.5C57,20.2 56.7,20.1 56.4,20L56,20.4C55.3,21 55.2,22.1 55.1,23.3C55.4,23.3 55.8,23.4 56.1,23.4L56.3,23.4C56.9,22.9 58.1,21.7 57.2,20.5Z" style="fill:rgb(255,193,18);fill-rule:nonzero;"/>
                    <path d="M52.3,20.4L51.9,20.1C51.6,20.1 51.3,20.2 51,20.6C50.1,21.7 51.3,22.9 51.9,23.4L52.1,23.4C52.4,23.4 52.8,23.3 53.1,23.3C53.1,22.1 53,21 52.3,20.4Z" style="fill:rgb(255,193,18);fill-rule:nonzero;"/>
                    <circle cx="54.1" cy="19.5" r="0.4" style="fill:rgb(255,193,18);"/>
                    <path d="M53.5,20.5L52.5,20.2C53.3,20.8 53.5,22 53.5,23.3L54.9,23.3C54.9,22 55.1,20.8 55.9,20.2L54.9,20.5L54.7,20.2C54.6,20.3 54.4,20.3 54.3,20.3C54.1,20.3 54,20.2 53.9,20.2L53.5,20.5Z" style="fill:rgb(255,193,18);fill-rule:nonzero;"/>
                    <path d="M53.8,18.7L54.5,18.7L54.3,18.3L54.8,18.4L54.8,17.7L54.3,17.8L54.5,17.4L53.8,17.4L53.9,17.8L53.4,17.7L53.4,18.4L53.9,18.3L53.8,18.7Z" style="fill:rgb(255,193,18);fill-rule:nonzero;"/>
                    <path d="M39.2,13.6L39.2,14.2L39.7,14.4L39.7,13.9L39.2,13.6Z" style="fill:rgb(255,193,18);fill-rule:nonzero;"/>
                    <path d="M44.9,16.9C42.2,16.9 40,17.6 40,18.4L40,19.7C40.8,18.9 42.9,18.6 44.9,18.6C46.9,18.6 48.9,19 49.8,19.7L49.8,18.4C49.8,17.6 47.6,16.9 44.9,16.9Z" style="fill:rgb(255,193,18);fill-rule:nonzero;"/>
                    <path d="M47.4,14.2C47.8,12.5 49.2,11.6 50.6,11.3C49.1,11 47.4,11.7 46.8,12.7C46.5,13.2 46.3,13.8 46.1,14.3C46.5,14.1 47,14.1 47.4,14.2Z" style="fill:rgb(255,193,18);fill-rule:nonzero;"/>
                    <path d="M42.4,14.2C42.9,14.1 43.3,14.1 43.7,14.3C43.5,13.7 43.3,13.1 43,12.6C42.4,11.7 40.7,10.9 39.2,11.2C40.6,11.6 42,12.5 42.4,14.2Z" style="fill:rgb(255,193,18);fill-rule:nonzero;"/>
                    <path d="M40.2,20.1C40.5,20.4 41,20.7 41.7,20.9C41.8,20.4 41.8,19.9 41.9,19.3C41.1,19.5 40.5,19.8 40.2,20.1Z" style="fill:rgb(255,193,18);fill-rule:nonzero;"/>
                    <path d="M45.2,18.9L44.6,18.9C44.6,19.7 44.5,20.5 44.3,21.2L45.5,21.2C45.4,20.5 45.3,19.8 45.2,18.9Z" style="fill:rgb(255,193,18);fill-rule:nonzero;"/>
                    <path d="M48,19.3C48,19.9 48.1,20.4 48.2,20.9C48.9,20.7 49.4,20.4 49.7,20.1C49.4,19.8 48.8,19.5 48,19.3Z" style="fill:rgb(255,193,18);fill-rule:nonzero;"/>
                    <circle cx="44.9" cy="11.2" r="0.9" style="fill:rgb(255,193,18);"/>
                    <path d="M44.3,9.9L45.4,9.9L45.1,9L46,9.3L46,8.2L45.1,8.5L45.4,7.6L44.3,7.6L44.7,8.5L43.7,8.2L43.7,9.3L44.7,9L44.3,9.9Z" style="fill:rgb(255,193,18);fill-rule:nonzero;"/>
                    <path d="M50.2,14.4L50.7,14.2L50.7,13.6L50.3,13.9L50.2,14.4Z" style="fill:rgb(255,193,18);fill-rule:nonzero;"/>
                    <path d="M52.3,12.4C52.1,12 51.8,11.8 51.4,11.6C49.9,11.7 48.2,12.5 47.8,14.5L47.8,14.7L47.6,14.6C47,14.4 46.5,14.5 46,14.8C45.9,15.2 45.8,15.5 45.8,15.7C45.7,16.1 45.3,16.3 45,16.3C44.7,16.3 44.3,16 44.2,15.7C44.2,15.6 44.1,15.3 44,14.9C43.6,14.6 43,14.6 42.4,14.7L42.2,14.8L42.2,14.6C41.8,12.6 40.2,11.8 38.6,11.7C38.3,11.9 38,12.2 37.7,12.5C36.3,14.6 39,17.1 40,17.9C40.7,17 42.9,16.6 45,16.6C47.2,16.6 49.4,17.1 50,17.9C50.9,17 53.6,14.5 52.3,12.4ZM39,14.5L38.8,14.4L38.8,14.1L38.8,13.6L38.8,13L39.4,13.3L39.9,13.5L40.1,13.6L40.1,15L39.5,14.7L39,14.5ZM39.9,16.9C39.7,16.9 39.6,16.8 39.6,16.6C39.6,16.4 39.7,16.3 39.9,16.3C40.1,16.3 40.2,16.4 40.2,16.6C40.2,16.7 40.1,16.9 39.9,16.9ZM41.4,16.3C41.2,16.3 41.1,16.2 41.1,16C41.1,15.8 41.2,15.7 41.4,15.7C41.6,15.7 41.7,15.8 41.7,16C41.7,16.1 41.5,16.3 41.4,16.3ZM42.9,15.9C42.7,15.9 42.6,15.8 42.6,15.6C42.6,15.4 42.7,15.3 42.9,15.3C43.1,15.3 43.2,15.4 43.2,15.6C43.2,15.8 43.1,15.9 42.9,15.9ZM47,15.9C46.8,15.9 46.7,15.8 46.7,15.6C46.7,15.4 46.8,15.3 47,15.3C47.2,15.3 47.3,15.4 47.3,15.6C47.3,15.8 47.1,15.9 47,15.9ZM48.5,16.3C48.3,16.3 48.2,16.2 48.2,16C48.2,15.8 48.3,15.7 48.5,15.7C48.7,15.7 48.8,15.8 48.8,16C48.8,16.1 48.7,16.3 48.5,16.3ZM50,16.9C49.8,16.9 49.7,16.8 49.7,16.6C49.7,16.4 49.8,16.3 50,16.3C50.2,16.3 50.3,16.4 50.3,16.6C50.3,16.7 50.2,16.9 50,16.9ZM49.8,15L49.8,14.4L49.8,13.9L49.8,13.6L50,13.5L50.5,13.3L51.1,13L51.1,14.4L50.9,14.5L50.4,14.7L49.8,15Z" style="fill:rgb(255,193,18);fill-rule:nonzero;"/>
                    <circle cx="44.9" cy="15.4" r="0.5" style="fill:rgb(255,193,18);"/>
                    <path d="M44.3,14.7C44.5,14.5 44.7,14.5 44.9,14.5C45.1,14.5 45.4,14.6 45.5,14.7C45.6,14.1 45.9,13.2 46.4,12.4C46.4,12.4 46.4,12.3 46.5,12.3C46.5,12 46.3,11.8 46,11.6C45.8,12 45.4,12.4 44.8,12.4C44.3,12.4 43.8,12.1 43.6,11.6C43.4,11.7 43.2,11.9 43.2,12.2C43.2,12.3 43.3,12.3 43.3,12.4C43.9,13.3 44.2,14.1 44.3,14.7Z" style="fill:rgb(255,193,18);fill-rule:nonzero;"/>
                </g>
                <g>
                    <path d="M72.6,57.4C62.7,62.7 54,67.6 45.1,72L45.3,72.3L45.3,72.4C54.3,68.5 63.8,64.2 73.6,59.3C73.4,58.7 73,57.9 72.6,57.4Z" style="fill:rgb(224,224,224);fill-rule:nonzero;"/>
                    <path d="M42.3,73.6L42.2,73.4C40.2,74.4 38.1,75.3 36.1,76.2C38.1,75.4 40.2,74.6 42.3,73.6Z" style="fill:rgb(224,224,224);fill-rule:nonzero;"/>
                    <path d="M75,59.1C65.6,63.8 55.6,68.4 45.5,72.8L47.8,77.6C57.8,73.4 68,69.4 77.8,66.1C77.4,63.6 76.4,61.3 75,59.1Z" style="fill:rgb(224,224,224);fill-rule:nonzero;"/>
                    <path d="M24.7,81L25.2,82.5C25.3,82.8 25,83.1 25,83.5C25.1,84.9 24.2,85.9 24.2,85.9L23.7,86.3L23.5,85.7L22.2,81.9C22.2,82 22.1,82 22,82L22.8,84.3C23.1,85.3 22.6,86.7 22.5,86.7L22.3,87.1L21.9,87C21.9,87 20.9,86.3 20.4,85C20.3,84.8 20.1,84.8 20,84.6L19.5,83C19.4,83 19.3,83.1 19.1,83.1L20.5,87.3L19.9,87.3C19.8,87.3 18.7,87.3 17.8,86C17.7,85.8 17.2,85.9 17.1,85.6L16.6,84C15.4,84.4 14.3,84.8 13.1,85.2C13.5,87.9 14.4,90.3 16,92.2C18.8,90.8 21.7,89.4 24.7,88C24.7,87.9 24.8,87.7 24.9,87.5L26.1,85.5C26.1,85.5 25.9,84.9 26,84.2C26.9,84.4 27.6,84.8 27.9,85.4C28,85.7 28,86.2 27.8,86.6C33.3,84 39,81.5 44.7,79.1L42.5,74C36.6,76.5 30.6,78.9 24.7,81Z" style="fill:rgb(224,224,224);fill-rule:nonzero;"/>
                </g>
                <path d="M23.5,73.4C23.5,73.4 23.4,73.4 23.5,73.4C22.5,73.3 21.6,73.2 20.7,73L20.8,72.6C21.5,72.8 22.2,72.9 23,73C21.6,71.7 21.4,69.8 21.9,67.9L18,66C16.8,67.7 15.2,68.4 13.3,68.1C15,69.9 16.9,71.3 19.2,72.1L19.1,72.5C16.6,71.6 14.5,70.1 12.7,68C12.1,67.9 11.5,67.6 10.9,67.3C11.9,72 21.8,76.7 25.3,74.2C24.6,74 24,73.7 23.5,73.4Z" style="fill:rgb(226,226,226);fill-rule:nonzero;"/>
                <g>
                    <path d="M15.6,60L15.1,59.8C14.6,59.6 14.1,59.8 13.9,60.2C13.7,60.7 13.9,61.2 14.3,61.4L14.7,61.6C14.9,61.2 15.2,61 15.6,61C15.5,60.7 15.5,60.3 15.6,60Z" style="fill:rgb(165,165,165);fill-rule:nonzero;"/>
                    <path d="M76.5,89L76,88.7C75.8,89 75.5,89.3 75.1,89.3C75.3,89.6 75.3,90 75.1,90.3L75.7,90.6C76.2,90.8 76.7,90.6 76.9,90.2C77.1,89.8 76.9,89.2 76.5,89Z" style="fill:rgb(165,165,165);fill-rule:nonzero;"/>
                </g>
                <g>
                    <g transform="matrix(0.43,-0.9028,0.9028,0.43,-38.279,115.067)">
                        <rect x="68.8" y="87.1" width="6.3" height="1.6" style="fill:rgb(147,147,147);"/>
                    </g>
                    <g transform="matrix(0.43,-0.9028,0.9028,0.43,-44.9391,59.3142)">
                        <rect x="21.4" y="64.5" width="6.3" height="1.6" style="fill:rgb(147,147,147);"/>
                    </g>
                    <g transform="matrix(0.43,-0.9028,0.9028,0.43,-45.801,52.0052)">
                        <rect x="15.1" y="61.5" width="6.3" height="1.6" style="fill:rgb(147,147,147);"/>
                    </g>
                    <path d="M30.3,64.5L36.8,74.6L37.8,75.1C38.1,75 38.3,74.9 38.6,74.7L32.8,65.7L30.3,64.5Z" style="fill:rgb(147,147,147);fill-rule:nonzero;"/>
                    <path d="M42,70.1L43.5,72.4C43.9,72.2 44.4,72 44.8,71.8L44.5,71.3L42,70.1Z" style="fill:rgb(147,147,147);fill-rule:nonzero;"/>
                    <path d="M48,77.9L48.2,78.3L47.8,78.5L47.5,78.6L48.4,80.1L50.8,81.3L48.5,77.7C48.4,77.8 48.2,77.9 48,77.9Z" style="fill:rgb(147,147,147);fill-rule:nonzero;"/>
                    <path d="M53.6,75.6L60.1,85.7L61.1,86.2C60.8,85.4 61.1,84.8 61.2,84.7L56.1,76.8L53.6,75.6Z" style="fill:rgb(147,147,147);fill-rule:nonzero;"/>
                    <path d="M67.3,82.1L66.9,82L65.1,86.1L64.9,85.9L64.1,87.6L65.5,88.3L66.3,86.6C66.2,86.2 65.9,85.2 66.3,84.4L67.3,82.1Z" style="fill:rgb(147,147,147);fill-rule:nonzero;"/>
                </g>
                <g>
                    <path d="M24.7,67.7L24.3,68.4L35.9,73.9L35,72.6L24.7,67.7Z" style="fill:rgb(219,219,219);fill-rule:nonzero;"/>
                    <path d="M33.1,69.6L25.5,65.9L24.8,67.3L34.6,72L33.1,69.6Z" style="fill:rgb(219,219,219);fill-rule:nonzero;"/>
                    <path d="M31.1,66.5L26.3,64.2L25.7,65.6L32.7,68.9L31.1,66.5Z" style="fill:rgb(219,219,219);fill-rule:nonzero;"/>
                    <path d="M30,64.7L29.9,64.6L26.8,63.1L26.5,63.8L30.7,65.8L30,64.7Z" style="fill:rgb(219,219,219);fill-rule:nonzero;"/>
                    <path d="M14.8,62.9L14.7,63C14.5,63.4 14.7,63.8 15.1,64L15.9,64.4L16.2,63.7L15.2,63.2C15.1,63.1 15,63 14.8,62.9Z" style="fill:rgb(219,219,219);fill-rule:nonzero;"/>
                    <g transform="matrix(0.43,-0.9028,0.9028,0.43,-48.0343,55.9776)">
                        <rect x="19.9" y="63.8" width="0.8" height="4.5" style="fill:rgb(219,219,219);"/>
                    </g>
                    <path d="M15.1,61.8C14.9,62.2 15.1,62.6 15.5,62.8L16.5,63.3L17.1,61.9L16.1,61.4C15.7,61.3 15.2,61.4 15.1,61.8Z" style="fill:rgb(219,219,219);fill-rule:nonzero;"/>
                    <g transform="matrix(0.43,-0.9028,0.9028,0.43,-46.3926,55.782)">
                        <rect x="20.2" y="62.4" width="1.5" height="4.5" style="fill:rgb(219,219,219);"/>
                    </g>
                    <path d="M16,60.1C15.8,60.5 16,60.9 16.4,61.1L17.3,61.5L17.9,60.1L17,59.8C16.6,59.6 16.2,59.7 16,60.1Z" style="fill:rgb(219,219,219);fill-rule:nonzero;"/>
                    <g transform="matrix(0.43,-0.9028,0.9028,0.43,-44.3389,55.5372)">
                        <rect x="21.1" y="60.6" width="1.5" height="4.5" style="fill:rgb(219,219,219);"/>
                    </g>
                    <path d="M16.7,59.3C16.9,59.3 17,59.3 17.2,59.4L18.1,59.8L18.4,59.1L17.6,58.7C17.2,58.5 16.8,58.7 16.6,59.1L16.7,59.3Z" style="fill:rgb(219,219,219);fill-rule:nonzero;"/>
                    <g transform="matrix(0.43,-0.9028,0.9028,0.43,-42.6972,55.3416)">
                        <rect x="22.1" y="59.2" width="0.8" height="4.5" style="fill:rgb(219,219,219);"/>
                    </g>
                    <path d="M50.5,80L51.2,81.1L51.3,81.2L59.2,85L58.4,83.7L50.5,80Z" style="fill:rgb(219,219,219);fill-rule:nonzero;"/>
                    <g transform="matrix(0.43,-0.9028,0.9028,0.43,-41.3542,111.97)">
                        <rect x="67.6" y="86.7" width="0.8" height="4.1" style="fill:rgb(219,219,219);"/>
                    </g>
                    <path d="M42.4,71.4L41.6,70.3L41.5,70.1L33.7,66.4L34.5,67.7L42.4,71.4Z" style="fill:rgb(219,219,219);fill-rule:nonzero;"/>
                    <path d="M75.5,86.3L74.3,85.7L74,86.4L75.4,87.1C75.6,87.2 75.7,87.3 75.8,87.4L75.9,87.3C76.1,86.9 75.9,86.5 75.5,86.3Z" style="fill:rgb(219,219,219);fill-rule:nonzero;"/>
                    <path d="M73.5,90.9L72.2,90.3L71.8,91L72.9,91.5C73.3,91.7 73.7,91.5 73.9,91.1C73.9,91 73.9,91 74,90.9C73.8,91 73.6,91 73.5,90.9Z" style="fill:rgb(219,219,219);fill-rule:nonzero;"/>
                    <path d="M74.3,89.2L73,88.6L72.4,90L73.7,90.6C74.1,90.8 74.5,90.6 74.7,90.2C74.8,89.8 74.7,89.4 74.3,89.2Z" style="fill:rgb(219,219,219);fill-rule:nonzero;"/>
                    <path d="M75.2,87.5L73.8,86.8L73.2,88.2L74.6,88.9C75,89.1 75.4,88.9 75.6,88.5C75.8,88.1 75.6,87.7 75.2,87.5Z" style="fill:rgb(219,219,219);fill-rule:nonzero;"/>
                    <path d="M38.5,73.8L39.5,74.3C40.1,74 40.7,73.8 41.3,73.5L37,71.4L38.5,73.8Z" style="fill:rgb(219,219,219);fill-rule:nonzero;"/>
                    <path d="M34.9,68.3L36.4,70.7L41.7,73.2C42.2,73 42.6,72.8 43.1,72.5L42.8,72L34.9,68.3Z" style="fill:rgb(219,219,219);fill-rule:nonzero;"/>
                    <path d="M46.7,79L47.5,79.4L47.1,78.8L46.7,79Z" style="fill:rgb(219,219,219);fill-rule:nonzero;"/>
                    <path d="M53.3,75.8C53,75.9 52.7,76 52.3,76.1L54,76.9L53.3,75.8Z" style="fill:rgb(219,219,219);fill-rule:nonzero;"/>
                    <path d="M54.4,77.6L51.8,76.4C51.2,76.7 50.6,76.9 49.9,77.2L55.9,80.1L54.4,77.6Z" style="fill:rgb(219,219,219);fill-rule:nonzero;"/>
                    <path d="M56.4,80.7L49.4,77.4C49.2,77.5 49.1,77.5 48.9,77.6L50,79.4L57.8,83.1L56.4,80.7Z" style="fill:rgb(219,219,219);fill-rule:nonzero;"/>
                    <path d="M64.2,81.8L64.6,81.1L57,77.5L57.8,78.8L64.2,81.8Z" style="fill:rgb(219,219,219);fill-rule:nonzero;"/>
                    <path d="M64.1,82.3L58.3,79.4L59.8,81.8L64.1,83.8C64.1,83.5 64.2,83.2 64.2,83C64.1,82.7 63.9,82.6 64.1,82.3Z" style="fill:rgb(219,219,219);fill-rule:nonzero;"/>
                    <path d="M60.2,82.5L61.4,84.4C62.1,83.8 63.1,83.9 63.1,83.9L62.8,84.9L63.1,85.5L64.4,86.1L64.7,85.6C64.5,85.3 64.3,84.9 64.2,84.3L60.2,82.5Z" style="fill:rgb(219,219,219);fill-rule:nonzero;"/>
                    <path d="M63.9,87.1L64.2,86.5L63.4,86.1L63.9,87.1Z" style="fill:rgb(219,219,219);fill-rule:nonzero;"/>
                    <path d="M69.9,83.6L69.5,83.4L69.1,84.2L69.6,84.4L69.9,83.6Z" style="fill:rgb(219,219,219);fill-rule:nonzero;"/>
                    <path d="M69.4,84.7L69,84.5L68.8,84.9C68.7,85.1 68.5,84.9 68.1,85.7L68.7,86L69.4,84.7Z" style="fill:rgb(219,219,219);fill-rule:nonzero;"/>
                    <path d="M71,87.1L71.6,85.9C71.5,86 71.2,85.9 71.1,86.1C70.9,86.4 70.5,86.8 70.4,86.8L71,87.1Z" style="fill:rgb(219,219,219);fill-rule:nonzero;"/>
                    <path d="M68.9,87.3L68.3,87.3L68.5,86.7L68.6,86.5L68,86.1C67.5,86.7 66.7,87.2 66.7,87.2L70.3,88.9L70.9,87.5L70,87.1C69.4,87.2 69,87.3 68.9,87.3Z" style="fill:rgb(219,219,219);fill-rule:nonzero;"/>
                </g>
                <path d="M45.1,80.8C43.5,80.8 42.2,82.1 42.2,83.7C42.2,85.3 43.5,86.6 45.1,86.6C46.7,86.6 48,85.3 48,83.7C48,82.1 46.7,80.8 45.1,80.8ZM45.8,82.6C46,82.6 46,82.4 45.9,82.3C46,82.1 46.1,82.3 46.1,82.4C46.1,82.4 46.3,82.4 46.3,82.5C46.3,82.6 46.2,82.6 46.2,82.8C46.2,82.8 46,82.7 46.1,82.8C46.1,82.8 46,82.8 46,82.7C46,82.6 46.1,82.6 46.1,82.5C46.1,82.4 45.9,82.4 45.9,82.4C46,82.5 46,82.7 45.8,82.6C45.8,82.7 45.8,82.6 45.8,82.6ZM45.5,83.6L44.8,83.6C45,83.4 44.8,82.9 44.4,82.9C44.3,82.9 44.3,83 44.3,83L44.3,82.9C44.3,82.7 44.8,82.8 45,82.7C45,82.8 44.9,82.9 44.9,82.9C45,83 45.1,83.2 45.2,83.5C45.2,83.2 45.3,83 45.5,82.9C45.4,82.9 45.3,82.8 45.4,82.7C45.6,82.8 46.1,82.7 46.1,82.9L46.1,83C46.1,83 46.1,82.9 46,82.9C45.5,82.9 45.2,83.4 45.5,83.6ZM45.8,83.1L45.6,83.1L45.7,83C45.7,83 45.8,83 45.8,83.1ZM45.2,84.3C45.2,84.3 45.3,84.2 45.3,84.3C45.3,84.4 45.2,84.4 45.2,84.4L45,83.8L45.1,83.8C45.1,83.8 45.2,83.7 45.3,83.8L45.3,83.9L45.3,83.8L45.3,84C45.4,84 45.4,84 45.4,84.1C45.4,84 45.3,84 45.3,84C45.2,84.2 45.2,84.2 45.2,84.3ZM44.9,84.1C44.9,84.1 44.9,84.2 44.9,84.1C44.9,84.1 44.8,84.1 44.9,84.1L44.8,84C44.8,84 44.9,84 44.9,84.1C44.9,84 45,84 45,84C44.9,84 44.8,84 44.8,83.9L44.9,83.8L44.9,83.7L45.2,84.5L44.9,84.5C44.9,84.5 44.8,84.5 44.8,84.4L44.8,84.3C44.8,84.3 44.9,84.2 44.9,84.1L44.9,84.1ZM44.6,83.1L44.4,83.1C44.4,83 44.4,83 44.5,83C44.5,83 44.6,83 44.6,83.1ZM45.6,82.2L45.6,82.4L45.6,82.2ZM45.1,81.9L45.2,82L45.1,82.1L45,82L45.1,81.9ZM44.5,82.2L44.5,82.4L44.5,82.2ZM44.5,82.4L44.7,82.4C44.8,82.4 44.8,82.4 44.8,82.5C44.9,82.5 45,82.4 45,82.3L44.9,82.2C44.8,82.1 44.9,82 45,82L45.1,82.2L45.2,82C45.3,82 45.4,82.1 45.3,82.2L45.2,82.3C45.2,82.4 45.3,82.5 45.4,82.5C45.4,82.4 45.4,82.4 45.5,82.4L45.6,82.5L45.7,82.4C45.8,82.4 45.8,82.4 45.8,82.5L45.7,82.6L45.5,82.6C45.3,82.6 45.2,82.5 45.2,82.4L45,82.4C45,82.5 44.9,82.6 44.7,82.6L44.5,82.6C44.5,82.6 44.5,82.5 44.4,82.5C44.3,82.5 44.4,82.4 44.5,82.4ZM44,82.4C44.1,82.3 44.2,82.1 44.2,82.3C44.1,82.4 44.1,82.6 44.3,82.6C44.1,82.6 44.1,82.5 44.1,82.4C44.1,82.4 43.9,82.4 43.9,82.5C43.9,82.6 44,82.6 44,82.7C44,82.7 44,82.8 43.9,82.8C43.9,82.7 43.8,82.7 43.8,82.8C43.9,82.6 43.7,82.6 43.7,82.5C43.8,82.4 44,82.5 44,82.4ZM43.3,83.4C43.4,83.4 43.5,83.4 43.4,83.3C43.3,83.2 43.2,83 43.3,82.9C43.3,82.9 43.6,83 43.5,82.9C43.4,82.7 43.4,82.5 43.5,82.4C43.5,82.5 43.9,83 44.3,83.3C44.3,83.3 44.2,83.4 44.2,83.5C44.2,83.6 44.3,83.7 44.4,83.7L44.6,83.7L44.6,84C44.6,83.9 44.4,83.8 44.3,83.8C44.3,83.9 44.2,84 44.2,84.1C44.1,84.2 44,84.2 43.9,84.1C43.9,84.1 44,83.9 43.9,84C43.8,84.1 43.7,84 43.6,83.9C43.7,83.9 43.7,83.8 43.6,83.8C43.5,83.8 43.3,83.8 43.3,83.6C43.3,83.6 43.5,83.5 43.4,83.5C43.4,83.7 43.3,83.6 43.3,83.4ZM46.1,85C46,85 45.9,85 45.9,84.9C45.8,84.8 45.7,84.8 45.5,84.8C45.6,84.7 45.4,84.6 45.3,84.7C45.2,84.7 45.2,84.8 45.2,84.9C45.4,84.9 45.7,85.1 45.7,85.2C45.7,85.3 45.7,85.3 45.6,85.3C45.6,85.1 45.5,85.1 45.5,85.3C45.5,85.4 45.4,85.4 45.4,85.5C45.4,85.3 45.3,85.3 45.3,85.5C45.3,85.6 45.2,85.6 45.2,85.6L45.1,85.5C45.1,85.3 45,85.3 45,85.5C44.9,85.5 44.9,85.4 44.9,85.3C44.9,85.1 44.8,85.1 44.8,85.3C44.7,85.3 44.7,85.2 44.7,85.2C44.8,85.1 45,84.9 45.2,84.9C45.2,84.8 45.1,84.7 45.1,84.7C45,84.6 44.9,84.7 44.9,84.8C44.8,84.8 44.6,84.8 44.6,84.9L44.7,85L44.6,84.9L44.5,84.9C44.4,84.9 44.4,84.8 44.4,84.8L44.4,84.7L44,84.4L43.9,84.4C43.9,84.4 43.7,84.4 43.7,84.3L43.8,84.3C43.8,84.3 43.7,84.2 43.8,84.2L44,84.2L44,84.1C44.1,84.1 44.1,84.3 44.1,84.3C44.1,84.3 44.2,84.3 44.1,84.4L44.5,84.8L44.6,84.8C44.7,84.8 44.9,84.8 44.9,84.7C44.7,84.4 44.9,84.2 45,84.2L45,84.4C45,84.5 45.1,84.5 45.1,84.5L45.2,84.5C45.3,84.5 45.4,84.6 45.4,84.6C45.4,84.6 45.5,84.5 45.6,84.5L45.7,84.5C45.8,84.5 45.8,84.4 45.8,84.4L45.8,84.2C46,84.2 46.2,84.4 45.9,84.7L46.1,84.8C46.1,84.7 46.1,84.7 46.2,84.7L46.3,84.8L46.4,84.7C46.5,84.7 46.5,84.8 46.5,84.9C46.3,84.9 46.2,85 46.1,85ZM46,84.5L46.2,84.5L46,84.5ZM46.9,83.4C46.9,83.5 46.8,83.7 46.7,83.7C46.5,83.7 46.7,83.8 46.8,83.8C46.8,83.9 46.7,84 46.5,84C46.4,84 46.4,84.1 46.5,84.1C46.4,84.2 46.3,84.2 46.2,84.2C46.1,84.2 46.2,84.3 46.2,84.3C46.1,84.4 46,84.4 45.9,84.3C45.8,84.2 45.8,84.1 45.8,84C45.7,84 45.6,84 45.5,84.2L45.5,83.9L45.7,83.9C45.8,83.9 45.9,83.8 45.9,83.7C45.9,83.6 45.9,83.6 45.8,83.5C46.2,83.3 46.5,82.7 46.6,82.6C46.7,82.7 46.7,82.9 46.6,83.1C46.5,83.2 46.8,83.1 46.8,83.1C46.9,83.2 46.8,83.4 46.7,83.5C46.6,83.4 46.8,83.4 46.9,83.4Z" style="fill:rgb(208,210,211);fill-rule:nonzero;"/>
                <g>
                    <path d="M27.8,19.8C27,20 26.7,20.1 26.2,20.3C25.3,22.5 27,25 29,26.2C29.4,26 30.2,25.6 31.1,25.7C28.8,24.3 26.9,22.3 27.8,19.8Z" style="fill:rgb(31,193,80);fill-rule:nonzero;"/>
                    <path d="M62.1,19.8C62.9,20 63.2,20.1 63.7,20.3C64.5,22.5 62.9,25 60.9,26.2C60.5,26 59.7,25.6 58.8,25.7C61.2,24.3 63,22.3 62.1,19.8Z" style="fill:rgb(31,193,80);fill-rule:nonzero;"/>
                    <path d="M26.2,24.1C24.5,24.1 22.2,22.4 20.4,23.5L20.8,24.9C22.7,24.1 24.4,26.1 27.2,25.4C26.8,24.9 26.5,24.5 26.2,24.1Z" style="fill:rgb(31,193,80);fill-rule:nonzero;"/>
                    <path d="M28.4,22.9C28.6,23.3 29,23.7 29.4,24C30.4,22.7 30.1,20.1 28.2,19.8L28.2,19.9C28,20.3 28,20.7 27.9,21C28.5,21.5 28.6,22.2 28.4,22.9Z" style="fill:rgb(31,193,80);fill-rule:nonzero;"/>
                    <path d="M63.7,24.1C63.4,24.5 63.1,25 62.7,25.3C65.5,26 67.2,24 69.1,24.8L69.5,23.4C67.7,22.4 65.4,24.1 63.7,24.1Z" style="fill:rgb(31,193,80);fill-rule:nonzero;"/>
                    <path d="M61.5,22.9C61.3,22.3 61.4,21.5 62,21C62,20.7 61.9,20.3 61.7,19.9L61.7,19.8C59.8,20.1 59.6,22.7 60.5,24C60.9,23.6 61.3,23.3 61.5,22.9Z" style="fill:rgb(31,193,80);fill-rule:nonzero;"/>
                    <path d="M39.9,26.5C42.5,25.1 44.1,22.7 44.2,18.9C43.5,18.9 42.8,19 42.2,19.1C42.2,21.6 41.4,23.3 39.9,24.4C40.3,24.3 40.6,24.2 40.9,24.1L41.9,23.6L41.4,24.6C41,25.6 40.5,26.2 39.9,26.5Z" style="fill:rgb(31,193,80);fill-rule:nonzero;"/>
                    <path d="M49.9,26.5C49.4,26.2 48.8,25.6 48.4,24.7L47.9,23.7L48.9,24.2C49.2,24.3 49.5,24.4 49.9,24.5C48.4,23.4 47.6,21.7 47.6,19.2C47,19.1 46.4,19 45.6,19C45.8,22.7 47.4,25.2 49.9,26.5Z" style="fill:rgb(31,193,80);fill-rule:nonzero;"/>
                    <path d="M52.4,44.8L52,44.5L52,43.4L51,43.4L50.7,42.9C49.6,40.8 47.5,39.5 45.2,39.5L44.7,39.5C42.4,39.5 40.2,40.8 39.2,42.9L38.9,43.4L38,43.4L38,44.5L37.6,44.8C34.8,46.9 33.2,50.1 33.2,53.5C33.2,56.9 34.8,60.1 37.6,62.2L38,62.5L38,63.6L38.9,63.6L39.2,64.1C40.3,66.2 42.4,67.5 44.7,67.5L45.2,67.5C47.5,67.5 49.7,66.2 50.7,64.1L51,63.6L52,63.6L52,62.5L52.4,62.2C55.2,60.1 56.8,56.9 56.8,53.5C56.8,50.1 55.2,47 52.4,44.8ZM48.9,63L40.9,63L40.9,61.3L41.5,61.3L41.5,60.4L41.9,60.4L41.9,59.6L42.6,59.6L42.6,54.2L41.6,54.2L41.6,51.4L42.6,51.4L42.6,50.9L42.2,50.9L42.2,50.2L41.8,50.2L41.8,48.7L42.2,48.7L42.2,48L42.7,48L42.7,47.5C42,46.8 41.3,45.5 42,44.6C42.7,43.7 44.1,44.3 44.1,44.3L44.1,43.8L44,43.8L44.1,43.6L43.9,43.7L43.9,42.1L44.1,42.2L44,42L45.6,42L45.5,42.2L45.7,42.1L45.7,43.7L45.5,43.6L45.6,43.8L45.5,43.8L45.5,44.3C45.5,44.3 47,43.7 47.6,44.6C48.3,45.6 47.6,46.8 47,47.5L47,48L47.5,48L47.5,48.7L48,48.7L48,50.2L47.6,50.2L47.6,50.9L47.2,50.9L47.2,51.4L48.2,51.4L48.2,54.2L47.2,54.2L47.2,59.6L47.9,59.6L47.9,60.4L48.3,60.4L48.3,61.3L48.9,61.3L48.9,63Z" style="fill:rgb(31,193,80);fill-rule:nonzero;"/>
                </g>
                <g>
                    <path d="M43,47L44,47C44,46.1 43.8,45 43.3,44.5L43,44.2C42.7,44.2 42.5,44.3 42.3,44.6C41.7,45.5 42.5,46.6 43,47Z" style="fill:rgb(255,212,0);fill-rule:nonzero;"/>
                    <rect x="42.6" y="48.2" width="4.6" height="0.4" style="fill:rgb(255,212,0);"/>
                    <rect x="42.2" y="48.9" width="5.3" height="0.7" style="fill:rgb(255,212,0);"/>
                    <rect x="43.1" y="50.7" width="3.7" height="0.7" style="fill:rgb(255,212,0);"/>
                    <rect x="43.1" y="47.3" width="3.6" height="0.6" style="fill:rgb(255,212,0);"/>
                    <path d="M46.7,47C47.2,46.5 48,45.5 47.4,44.7C47.2,44.4 47,44.3 46.7,44.3L46.4,44.6C45.9,45 45.7,46.2 45.7,47.1L46.7,47.1L46.7,47Z" style="fill:rgb(255,212,0);fill-rule:nonzero;"/>
                    <path d="M44.6,43.2L45.2,43.2L45.1,42.8L45.4,42.9L45.4,42.4L45.1,42.5L45.2,42.1L44.6,42.1L44.7,42.5L44.3,42.4L44.3,42.9L44.7,42.8L44.6,43.2Z" style="fill:rgb(255,212,0);fill-rule:nonzero;"/>
                    <circle cx="44.9" cy="43.8" r="0.4" style="fill:rgb(255,212,0);"/>
                    <path d="M44.3,47L45.4,47C45.4,46 45.6,44.8 46.2,44.3L45.4,44.6L45.3,44.3C45.2,44.4 45.1,44.4 44.9,44.4C44.8,44.4 44.6,44.4 44.5,44.3L44.4,44.6L43.6,44.3C44.2,44.8 44.3,46 44.3,47Z" style="fill:rgb(255,212,0);fill-rule:nonzero;"/>
                    <rect x="42.6" y="50" width="4.6" height="0.4" style="fill:rgb(255,212,0);"/>
                    <rect x="42.3" y="60" width="5.1" height="0.5" style="fill:rgb(255,212,0);"/>
                    <rect x="41.9" y="60.7" width="6" height="0.6" style="fill:rgb(255,212,0);"/>
                    <rect x="41.3" y="61.6" width="7.2" height="0.9" style="fill:rgb(255,212,0);"/>
                    <path d="M46.8,59.7L46.8,54L43.1,54L43.1,59.6L46.8,59.6L46.8,59.7ZM45.9,54.6L46.2,54.6L46.2,58.9L45.9,58.9L45.9,54.6ZM44.8,54.6L45.1,54.6L45.1,58.9L44.8,58.9L44.8,54.6ZM43.7,54.6L44,54.6L44,58.9L43.7,58.9L43.7,54.6Z" style="fill:rgb(255,212,0);fill-rule:nonzero;"/>
                    <g>
                        <path d="M43.8,52.8L43.9,52.8L43.9,52.6L43.8,52.8Z" style="fill:rgb(255,212,0);fill-rule:nonzero;"/>
                        <path d="M42,51.7L42,53.7L47.7,53.7L47.7,51.7L42,51.7ZM43.1,53.2C43,53.2 42.9,53.2 42.8,53.1L42.8,52.9L42.9,52.9L43,53L43.1,53C43.2,53 43.3,53 43.3,52.9C43.3,52.8 43.3,52.8 43.1,52.8L43,52.8C43.1,52.8 43.1,52.8 43.1,52.7C43.1,52.6 43,52.6 43,52.6L42.9,52.6L42.9,52.7L42.8,52.7L42.8,52.5C42.9,52.5 43,52.4 43.1,52.4C43.3,52.4 43.4,52.5 43.4,52.6C43.4,52.7 43.4,52.8 43.3,52.8C43.4,52.8 43.4,52.9 43.4,53C43.4,53.1 43.2,53.2 43.1,53.2ZM44.4,53.1L44,53.1L44,53L44.1,53L44,52.9L43.7,52.9L43.7,53L43.8,53L43.8,53.1L43.5,53.1L43.5,53L43.6,53L43.9,52.3L44,52.3L44.4,53.1ZM45.3,53.2L45,53.2L44.7,52.8L44.7,53L44.8,53L44.8,53.1L44.4,53.1L44.4,53L44.5,53L44.5,52.4L44.4,52.4L44.4,52.3L44.8,52.3L44.8,52.4L44.7,52.4L44.7,52.7L44.9,52.4L44.9,52.3L45.2,52.3L45.2,52.4L45.1,52.4L44.9,52.6L45.2,53L45.3,53.2C45.3,53.1 45.3,53.1 45.3,53.2ZM45.7,53.2C45.4,53.2 45.3,53 45.3,52.8C45.3,52.5 45.4,52.4 45.7,52.4C46,52.4 46.1,52.6 46.1,52.8C46.1,53 45.9,53.2 45.7,53.2ZM47,53.2L46.6,53.2L46.6,53.1L46.7,53.1L46.7,52.8L46.4,52.8L46.4,53L46.5,53L46.5,53.1L46.1,53.1L46.1,53L46.2,53L46.2,52.4L46.1,52.4L46.1,52.3L46.5,52.3L46.5,52.4L46.4,52.4L46.4,52.6L46.7,52.6L46.7,52.4L46.6,52.4L46.6,52.3L47,52.3L47,52.4L46.9,52.4L46.9,53L47,53.2C47,53.1 47,53.1 47,53.2Z" style="fill:rgb(255,212,0);fill-rule:nonzero;"/>
                        <path d="M45.7,52.4C45.6,52.4 45.5,52.5 45.5,52.7C45.5,52.9 45.6,53 45.7,53C45.8,53 45.9,52.8 45.9,52.7C45.8,52.6 45.8,52.4 45.7,52.4Z" style="fill:rgb(255,212,0);fill-rule:nonzero;"/>
                    </g>
                </g>
                <g>
                    <path d="M67.4,81.7C67.5,81.7 67.5,81.7 67.4,81.7C67.3,81.4 67.2,81.3 67,81.1C67,81.2 67.1,81.4 67,81.5L67.4,81.7Z" style="fill:rgb(255,224,0);fill-rule:nonzero;"/>
                    <path d="M39.4,81.7C39.4,82.6 39.5,83.5 39.7,84.4C40.4,84.1 41.1,83.8 41.7,83.3C41.8,82.3 42.4,81.4 43.3,80.9C43.4,80.6 43.5,80.2 43.6,79.9L39.4,81.7Z" style="fill:rgb(255,224,0);fill-rule:nonzero;"/>
                    <path d="M44.8,79.3L44.1,79.6C44,79.9 43.9,80.3 43.8,80.6C44.2,80.5 44.6,80.4 45,80.4C45.4,80.4 45.8,80.5 46.2,80.6C46.1,80.2 46,79.8 45.9,79.4L45,79.8L44.8,79.3Z" style="fill:rgb(255,224,0);fill-rule:nonzero;"/>
                    <path d="M46.8,80.8C47.7,81.3 48.3,82.2 48.4,83.2C49,83.7 49.7,84.1 50.4,84.3C50.6,83.3 50.8,82.4 50.7,81.6L46.4,79.5C46.5,80 46.6,80.4 46.8,80.8Z" style="fill:rgb(255,224,0);fill-rule:nonzero;"/>
                    <path d="M43.6,86.7C43.9,87.4 44.4,88.4 45,88.9C45.6,88.4 46.2,87.4 46.5,86.7C46,87.2 44.2,87.2 43.6,86.7Z" style="fill:rgb(255,224,0);fill-rule:nonzero;"/>
                    <path d="M26.3,84.6L26.7,86.5L26.2,85.8L25.2,87.5C24.9,87.9 25.1,88.2 25.5,88L25.9,87.9C26.3,87.8 26.9,87.3 27.1,86.8L27.3,86.5C28.2,85 26.3,84.6 26.3,84.6Z" style="fill:rgb(255,224,0);fill-rule:nonzero;"/>
                    <path d="M18.5,85.3L19.4,85.2L18.6,82.8C18.5,82.4 18.1,82.2 17.7,82.3L17.4,82.4C17,82.5 16.8,82.9 16.9,83.3L17.4,84.9C17.5,85.1 18,85 18.1,85.3C18.8,86.6 19.9,86.6 19.9,86.6L19.6,85.6L18.5,85.3Z" style="fill:rgb(255,224,0);fill-rule:nonzero;"/>
                    <path d="M24.8,82.4L24.4,81.1C24.3,80.7 23.9,80.5 23.5,80.6L23.2,80.7C22.8,80.8 22.6,81.2 22.7,81.6L23.4,83.8L24.4,82.9L23.6,84.3L23.7,84.5L24,85.5C24,85.5 24.9,84.3 24.7,83.3C24.5,83 24.9,82.8 24.8,82.4Z" style="fill:rgb(255,224,0);fill-rule:nonzero;"/>
                    <path d="M21.5,81.9C21.4,81.6 21,81.4 20.7,81.5L20.2,81.7C19.9,81.8 19.7,82.2 19.8,82.5L20.4,84.3L21.8,85L20.9,85C21.1,85.9 21.6,86.3 22.2,86.7C22.2,86.7 22.7,85.5 22.4,84.6L21.5,81.9Z" style="fill:rgb(255,224,0);fill-rule:nonzero;"/>
                    <path d="M63.5,80.1L64.7,80.7C64.9,80.4 65.4,80 66.1,80.2L66.4,80.3L66.5,80.3C64.3,77.7 62.9,75.2 62.6,72L58.6,73.6C58.8,74.2 59.1,74.8 59.4,75.4L60.5,74.1L60.8,74.4L59.6,75.8C59.8,76.1 60,76.4 60.2,76.7L61.1,75.6L61.4,75.9L60.4,77.1C60.6,77.4 60.8,77.7 61.1,77.9L62,76.9L62.3,77.2L61.4,78.3C61.9,79 62.6,79.6 63.5,80.1Z" style="fill:rgb(255,224,0);fill-rule:nonzero;"/>
                    <path d="M23.8,80.2C24.1,80.2 24.4,80.4 24.6,80.6L27.4,79.5C27.9,79.2 28.3,78.8 28.7,78.4L27.7,77.2L28,76.9L29,78.1C29.2,77.8 29.4,77.6 29.7,77.3L28.4,76L28.7,75.7L29.7,77C29.9,76.7 30.1,76.4 30.3,76.1L29,74.5L29.3,74.2L30.5,75.6C31.1,74.4 31.5,73.3 31.6,72.3L27.5,70.4C27.5,74.2 26.2,77.3 23.8,80.2Z" style="fill:rgb(255,224,0);fill-rule:nonzero;"/>
                    <path d="M9.9,26.9L9.9,25.8L10.6,26.7C11.2,27.5 11.8,28.2 12.4,28.8C12,27.9 11.7,26.8 11.6,25.6C9.8,23 8.3,20.5 7.8,18.6C6.7,23.8 8.1,27.3 10.4,30.1C10.1,29.1 9.9,28.1 9.9,26.9Z" style="fill:rgb(255,224,0);fill-rule:nonzero;"/>
                    <path d="M19.5,45.2C19.4,45.1 19.4,45 19.3,44.9L18.7,44L19.7,44.3C20.4,44.5 21.2,44.6 22.1,44.6C20.5,44.2 18.9,43.4 17.8,41.6C15,40.3 12.2,38.2 10.4,35.7C9.7,35.2 9,34.7 8.4,34C9.6,39.2 14.7,43.7 19.5,45.2Z" style="fill:rgb(255,224,0);fill-rule:nonzero;"/>
                    <path d="M21,41C19.3,40.3 18.1,39.1 17.4,37.9C15.3,36.8 12.9,35 11.4,32.4C10.5,31.7 9.7,30.9 8.8,29.9C9,35 13.2,38.9 17.5,41C17.4,40.9 17.4,40.8 17.3,40.6L16.9,39.7L17.8,40.1C18.9,40.6 20,40.8 21,41Z" style="fill:rgb(255,224,0);fill-rule:nonzero;"/>
                    <path d="M17.7,34C17.6,33.7 17.6,33.4 17.5,33.1L17.4,32.2L18.1,32.7C18.9,33.3 19.7,33.7 20.5,34.1C19.8,33.5 19.2,32.5 19.1,31.1C15.6,29.4 14,27.3 11.8,24.7C12.1,29.3 14.7,31.9 17.7,34Z" style="fill:rgb(255,224,0);fill-rule:nonzero;"/>
                    <path d="M25.1,52.7C25.5,52.1 26,51.6 26.6,51.3C25.7,51.4 24.8,51.4 23.9,51.4C21,51.4 18.4,50.8 16.2,49.7C15.5,49.9 14.9,50.1 14.3,50.5C16.3,52.7 20.4,53.6 25.1,52.7Z" style="fill:rgb(255,224,0);fill-rule:nonzero;"/>
                    <path d="M28.2,53.7L27.4,53.7C26.7,53.7 26,53.6 25.2,53.5L24.6,53.4L24.8,53.1C23.7,53.3 22.6,53.4 21.5,53.4C20.5,53.4 19.6,53.3 18.7,53.2C17.3,53.6 16.3,54.1 15.9,55C20.4,56.3 24.2,55.6 28.2,53.7Z" style="fill:rgb(255,224,0);fill-rule:nonzero;"/>
                    <path d="M27.6,50.7L27.5,50.7C26.3,50.7 24.8,50.5 23,50.1L22.4,50L22.7,49.5C22.8,49.3 23,49.1 23.1,48.9C18.7,48.7 15.1,47.1 12.3,44.1C11.8,44.2 11.4,44.4 11.1,44.4C14.9,50.4 21.1,51.6 27.6,50.7Z" style="fill:rgb(255,224,0);fill-rule:nonzero;"/>
                    <path d="M23.5,48.5C23.7,48.3 23.9,48.1 24.1,48C22.3,47.6 20.9,46.8 20,45.7C18,45.2 15.8,44.1 13.9,42.5C12.5,41.4 11.4,40.2 10.4,38.9C9.9,38.8 9.4,38.7 9.1,38.7C12.1,44.8 16.7,48.3 23.5,48.5Z" style="fill:rgb(255,224,0);fill-rule:nonzero;"/>
                    <path d="M21.6,34.3C25.6,36.1 29.4,37 29.9,41.3C28.2,35.7 23.2,36.6 17.9,33C18.1,35.1 19.6,36.5 21.9,37.4C24.8,38.4 27.7,39.3 28.8,42.2C25.7,37.7 20.9,39 17.1,36.1C17.6,37.9 19.3,40.5 22.8,41C25.3,41.6 26.6,42 27.9,43.9C25.2,41.1 21.2,41.9 17.6,40.4C19.8,45.5 25,43.9 28,46C25.4,44.8 21.8,45.4 19.6,44.7C20.7,46.4 22.5,47.3 24.5,47.7C25.6,47 26.8,47 28.1,46.9C28.6,46.9 29.2,46.8 29.7,46.8C28.2,45.2 28.5,42.4 31.1,42.5C31.4,33.3 22.9,33.9 19.6,29.9C19.3,32.4 20.5,33.7 21.6,34.3Z" style="fill:rgb(255,224,0);fill-rule:nonzero;"/>
                    <path d="M36.8,26.4C37.8,26.8 39.9,27 41.1,24.5C40.2,25 39,25 38,24.9C36.6,24.8 35.2,24.5 33.7,24.6C33.3,24.6 32.6,25 32.5,25.5C35.1,25 35.8,26 36.8,26.4Z" style="fill:rgb(255,224,0);fill-rule:nonzero;"/>
                    <path d="M42.7,32.1C42.7,32.9 42.7,33.7 42.3,34.3L41.8,35.1L41.6,34.2C41.5,33.9 41.4,33.6 41.3,33.3C41.1,33.9 40.9,34.5 40.5,35L39.9,35.9L39.8,34.8C39.8,34.6 39.8,34.5 39.7,34.3C39.6,34.7 39.4,35.1 39.1,35.5L39,35.7C38.9,36.4 38.8,37.1 38.7,37.5C39.6,37.3 40.7,36.1 41.1,35.1C41.3,35.7 41.7,36.5 42.1,36.8C42.8,36 43,35 43.2,33.8C43.6,34.4 44.1,34.6 45,34.7C45.9,34.6 46.4,34.3 46.8,33.8C46.9,35 47.2,36 47.9,36.8C48.2,36.5 48.7,35.7 48.9,35.1C49.3,36 50.4,37.3 51.3,37.5C51.2,37.1 51.1,36.4 51,35.7L50.9,35.6C50.6,35.2 50.4,34.8 50.3,34.4C50.3,34.5 50.3,34.7 50.2,34.9L50,35.9L49.4,35C49,34.5 48.8,33.9 48.6,33.3C48.5,33.6 48.4,33.9 48.3,34.2L48.1,35.1L47.6,34.3C47.2,33.7 47.2,32.9 47.2,32.1C46.7,32.6 46.1,33 45.6,33.3C45.5,33.8 45.2,34.3 44.9,34.7C44.6,34.3 44.4,33.7 44.2,33.3C43.8,33 43.2,32.6 42.7,32.1Z" style="fill:rgb(255,224,0);fill-rule:nonzero;"/>
                    <path d="M39.7,26.7C38,27.6 36.6,26.9 35.8,26.3C34.8,25.6 33.8,25.6 32.8,25.8C34.7,27 34,29.2 35.3,29.8C35.9,30.2 37.3,31.1 37.9,32.7C38.2,32.2 38.5,30.4 36.9,28.4C37.3,28.6 37.8,29.2 37.8,29.2C38.8,29.8 39.6,30.5 40.1,31.3C40.3,30.1 39.7,29 38.7,27.8C40.3,29.7 42.1,29.8 43.3,29.4C41.9,29.3 40.4,27.9 39.7,26.7ZM33.7,26.1C34,26.1 34.6,26 35.5,26.5C35.2,26.8 34.5,27.3 33.7,26.1Z" style="fill:rgb(255,224,0);fill-rule:nonzero;"/>
                    <path d="M40.2,29.7C40.4,30.2 40.5,30.8 40.4,31.5L40.2,32.6L39.6,31.7C39.2,31.1 38.7,30.6 38.1,30.2C38.5,31.4 38.4,32.3 38.2,32.9C38.5,33.7 38.7,34.6 38.7,35.4C39.3,34.5 39.5,33.6 39.5,32.6C39.8,33.3 40,34 40.1,34.8C40.7,33.9 41,33 41.1,32C41.5,32.7 41.8,33.4 41.9,34.1C42.4,33.4 42.2,32.1 42.1,31C42.8,31.8 43.9,32.8 44.6,33.1C44.2,32 43.4,31 42.6,30.2C42.5,30.1 41.1,30.3 40.2,29.7Z" style="fill:rgb(255,224,0);fill-rule:nonzero;"/>
                    <path d="M37,39.8C34.5,41.1 34.6,43.6 33.3,44.1C33.6,44.2 33.8,44.3 34.1,44.3C34.4,44 34.6,43.6 34.8,43.2C35.6,42 36.5,40.5 38.9,39.9C38.9,39.8 38.8,39.7 38.8,39.6C38.4,39.7 38.1,39.8 37.8,39.8L37.5,39.8L37,39.8Z" style="fill:rgb(255,224,0);fill-rule:nonzero;"/>
                    <path d="M21.9,37.9C19.9,37.1 18.6,36 18,34.6C16,33.4 14.3,31.9 13,30C12,29.1 11.2,28.1 10.3,27C10.3,32.1 13.6,35.4 17.1,37.3C17,37 16.8,36.6 16.7,36.3L16.4,35.1L17.3,35.8C18.8,36.9 20.3,37.4 21.9,37.9Z" style="fill:rgb(255,224,0);fill-rule:nonzero;"/>
                    <path d="M8.4,30L8.4,28.8L9.2,29.7C9.9,30.6 10.6,31.2 11.3,31.8L10.1,30.3C8.8,28.7 7.9,26.9 7.4,25.1C7.2,24.7 7,24.3 6.8,23.9C5.7,29.2 7.6,31.8 9.8,34.4C9,33.1 8.5,31.6 8.4,30Z" style="fill:rgb(255,224,0);fill-rule:nonzero;"/>
                    <path d="M27.2,61C26.7,61.3 26.2,61.5 25.6,61.7L26.9,62.3C26.9,62 27.1,61.5 27.2,61Z" style="fill:rgb(255,224,0);fill-rule:nonzero;"/>
                    <path d="M29.5,63.9L29.9,64.1L30.2,63.9L30.9,64.2L30.9,62.4C30.5,62.9 30,63.5 29.5,63.9Z" style="fill:rgb(255,224,0);fill-rule:nonzero;"/>
                    <path d="M33,65.2L33.5,65.4L33.8,65.9L34.6,66.3C34.4,65.5 34.3,64.5 34.3,63.6C33.9,64.2 33.5,64.7 33,65.2Z" style="fill:rgb(255,224,0);fill-rule:nonzero;"/>
                    <path d="M18.8,58.6L20.2,59.3C23.3,59.2 25.8,57.9 28.3,56.3L28.3,56.2C28.3,55.3 28.9,54.2 29.4,53.5C26.8,54.9 24.5,55.7 22.2,56C20.6,56.8 19.3,57.6 18.8,58.6Z" style="fill:rgb(255,224,0);fill-rule:nonzero;"/>
                    <path d="M79.3,26.7L80,25.8L80,26.9C80,28.1 79.8,29.1 79.5,30.1C81.8,27.3 83.2,23.8 82.1,18.6C81.6,20.5 80.1,23 78.3,25.6C78.2,26.8 77.9,27.8 77.5,28.8C78.1,28.1 78.7,27.4 79.3,26.7Z" style="fill:rgb(255,224,0);fill-rule:nonzero;"/>
                    <path d="M72,41.7C70.9,43.5 69.3,44.2 67.7,44.7C68.6,44.6 69.5,44.6 70.1,44.4L71.1,44.1L70.5,45C70.4,45.1 70.4,45.2 70.3,45.3C75.1,43.8 80.2,39.3 81.3,34.2C80.6,34.8 79.9,35.4 79.3,35.9C77.6,38.4 74.8,40.4 72,41.7Z" style="fill:rgb(255,224,0);fill-rule:nonzero;"/>
                    <path d="M72.4,41.1C76.7,38.9 80.9,35 81.1,30C80.3,31 79.4,31.8 78.5,32.5C77,35.1 74.5,36.8 72.5,38C71.8,39.3 70.6,40.4 68.9,41.1C70,40.9 71,40.7 72.1,40.3L73,39.9L72.6,40.8C72.5,40.8 72.5,41 72.4,41.1Z" style="fill:rgb(255,224,0);fill-rule:nonzero;"/>
                    <path d="M69.3,34.1C70.1,33.7 70.9,33.3 71.7,32.7L72.4,32.2L72.3,33.1C72.3,33.4 72.2,33.7 72.1,34C75.2,32 77.7,29.3 77.9,24.8C75.8,27.4 74.2,29.5 70.6,31.2C70.6,32.5 70,33.5 69.3,34.1Z" style="fill:rgb(255,224,0);fill-rule:nonzero;"/>
                    <path d="M66,51.4C65.2,51.4 64.3,51.4 63.3,51.3C63.8,51.6 64.3,52.1 64.8,52.7C69.5,53.6 73.6,52.8 75.6,50.6C75,50.2 74.4,49.9 73.7,49.8C71.5,50.8 68.9,51.4 66,51.4Z" style="fill:rgb(255,224,0);fill-rule:nonzero;"/>
                    <path d="M71.2,53.2C70.3,53.4 69.4,53.4 68.4,53.4C67.3,53.4 66.2,53.3 65.1,53.1L65.3,53.4L64.7,53.5C63.9,53.7 63.2,53.7 62.5,53.7L61.7,53.7C65.6,55.6 69.5,56.3 73.9,55C73.6,54.1 72.6,53.6 71.2,53.2Z" style="fill:rgb(255,224,0);fill-rule:nonzero;"/>
                    <path d="M66.8,48.9C66.9,49.1 67.1,49.3 67.2,49.5L67.5,50L66.9,50.1C65.1,50.5 63.6,50.7 62.4,50.7L62.3,50.7C68.7,51.6 75,50.4 78.8,44.5C78.5,44.4 78,44.3 77.6,44.2C74.7,47.1 71.1,48.7 66.8,48.9Z" style="fill:rgb(255,224,0);fill-rule:nonzero;"/>
                    <path d="M76.1,42.6C74.2,44.1 72,45.2 70,45.8C69,46.9 67.6,47.7 65.9,48.1C66.1,48.3 66.3,48.4 66.5,48.6C73.3,48.3 77.9,44.8 81,38.9C80.7,38.9 80.2,39 79.7,39.1C78.6,40.3 77.5,41.5 76.1,42.6Z" style="fill:rgb(255,224,0);fill-rule:nonzero;"/>
                    <path d="M60.1,46.8C60.7,46.9 61.2,46.9 61.7,46.9C63,47 64.2,47 65.3,47.7C67.3,47.3 69.1,46.4 70.2,44.7C68,45.4 64.5,44.8 61.8,46C64.8,43.9 70,45.5 72.1,40.6C68.5,42.1 64.5,41.3 61.8,44.1C63.1,42.2 64.4,41.8 66.9,41.2C70.5,40.6 72.1,38.1 72.6,36.3C68.8,39.2 64,37.9 60.9,42.4C62.1,39.4 64.9,38.5 67.8,37.6C70.1,36.7 71.6,35.3 71.8,33.2C66.5,36.8 61.5,35.9 59.8,41.5C60.3,37.2 64.2,36.2 68.1,34.5C69.2,33.8 70.3,32.5 70.1,30.1C66.8,34 58.3,33.5 58.6,42.7C61.4,42.4 61.7,45.2 60.1,46.8Z" style="fill:rgb(255,224,0);fill-rule:nonzero;"/>
                    <path d="M53.1,26.4C54.1,25.9 54.8,25 57.4,25.5C57.3,25 56.7,24.6 56.2,24.6C54.7,24.5 53.3,24.8 51.9,24.9C50.9,25 49.7,25 48.8,24.5C50,27 52.1,26.8 53.1,26.4Z" style="fill:rgb(255,224,0);fill-rule:nonzero;"/>
                    <path d="M47.7,31C47.6,32.1 47.4,33.4 47.9,34.1C48.1,33.4 48.4,32.6 48.7,32C48.8,33 49.1,33.9 49.7,34.8C49.8,34 50,33.3 50.3,32.6C50.3,33.6 50.5,34.6 51.1,35.4C51.1,34.5 51.2,33.7 51.6,32.9C51.4,32.3 51.3,31.4 51.7,30.2C51.1,30.6 50.6,31.2 50.2,31.7L49.6,32.6L49.4,31.5C49.3,30.9 49.4,30.3 49.6,29.7C48.7,30.2 47.3,30.1 47.1,30.1C46.3,30.9 45.6,31.9 45.1,33C46,32.7 47,31.8 47.7,31Z" style="fill:rgb(255,224,0);fill-rule:nonzero;"/>
                    <path d="M52.9,39.8L52.5,39.9L52.2,39.9C51.9,39.9 51.5,39.8 51.2,39.7C51.2,39.8 51.1,39.9 51.1,40C53.5,40.5 54.4,42 55.2,43.3C55.4,43.7 55.7,44.1 55.9,44.4C56.2,44.4 56.4,44.3 56.7,44.2C55.3,43.6 55.4,41.1 52.9,39.8Z" style="fill:rgb(255,224,0);fill-rule:nonzero;"/>
                    <path d="M72.8,37.3C76.3,35.3 79.6,32 79.6,27C78.7,28.2 77.8,29.1 76.9,30C75.7,32 73.9,33.5 72,34.7C71.4,36.1 70.1,37.1 68.2,37.9L68.1,37.9C69.6,37.5 71.2,37 72.6,35.9L73.5,35.2L73.2,36.4C73.1,36.6 72.9,36.9 72.8,37.3Z" style="fill:rgb(255,224,0);fill-rule:nonzero;"/>
                    <path d="M78.6,31.8C79.3,31.2 80,30.5 80.7,29.7L81.5,28.8L81.5,30C81.4,31.6 81,33.2 80.2,34.6C82.4,31.9 84.3,29.4 83.2,24.1C83,24.5 82.8,24.9 82.6,25.3C82.1,27.2 81.2,28.9 79.9,30.5L78.6,31.8Z" style="fill:rgb(255,224,0);fill-rule:nonzero;"/>
                    <path d="M70.6,58C70,57.3 68.9,56.7 67.7,56C65.4,55.7 63.1,54.9 60.5,53.5C61.1,54.2 61.6,55.3 61.6,56.2L61.6,56.3C63.8,57.7 66,58.8 68.6,59.1C69.2,58.7 69.9,58.3 70.6,58Z" style="fill:rgb(255,224,0);fill-rule:nonzero;"/>
                    <path d="M63.9,61.6C63.5,61.4 63.1,61.2 62.7,61C62.8,61.4 62.8,61.8 62.9,62.1C63.3,62 63.6,61.8 63.9,61.6Z" style="fill:rgb(255,224,0);fill-rule:nonzero;"/>
                    <path d="M60.2,63.7C59.8,63.3 59.4,62.9 59,62.5C59.1,63.2 59.1,63.8 59,64.3C59.4,64.1 59.8,63.9 60.2,63.7Z" style="fill:rgb(255,224,0);fill-rule:nonzero;"/>
                    <path d="M55.2,66.3C55.8,66 56.4,65.6 57.1,65.3C56.6,64.7 56.1,64.2 55.7,63.6C55.6,64.7 55.5,65.6 55.2,66.3Z" style="fill:rgb(255,224,0);fill-rule:nonzero;"/>
                    <path d="M66.7,60.1C66.4,59.7 66.1,59.3 65.7,58.9C64.1,58.4 62.7,57.5 61.2,56.6L61.1,56.6L60.6,56.6C59.7,56.6 58.7,56.3 57.9,55.8C57.9,56 57.8,56.1 57.8,56.3C59.7,58.5 61.7,60.4 64.4,61.4C65.2,60.9 66,60.5 66.7,60.1Z" style="fill:rgb(255,224,0);fill-rule:nonzero;"/>
                    <path d="M62.5,62.4C62.5,61.9 62.4,61.4 62.2,60.8C60.5,59.8 59,58.4 57.7,56.8C57.5,57.4 57.3,58 57.1,58.6C57.9,60.5 59,62.1 60.6,63.5C61.2,63.1 61.9,62.8 62.5,62.4Z" style="fill:rgb(255,224,0);fill-rule:nonzero;"/>
                    <path d="M58.5,61.9C57.8,61 57.3,60 56.9,59C56.4,60 55.8,60.9 55,61.7C55.6,62.9 56.4,64 57.4,65.1C57.8,64.9 58.2,64.7 58.6,64.5C58.7,63.8 58.6,62.9 58.5,61.9Z" style="fill:rgb(255,224,0);fill-rule:nonzero;"/>
                    <path d="M55.2,63C55,62.7 54.8,62.4 54.7,62.1C54.3,62.5 53.9,62.9 53.4,63.2L53.4,65C53.8,65.5 54.2,66 54.6,66.5C55.1,65.7 55.3,64.5 55.2,63Z" style="fill:rgb(255,224,0);fill-rule:nonzero;"/>
                    <path d="M51.9,65.1C51.6,65.5 51.4,66 51,66.3C51.3,66.8 51.7,67.4 52.1,67.9C52.4,67.7 52.7,67.6 53,67.4C53.2,66.9 53.4,66.4 53.5,65.7C53.3,65.5 53.1,65.2 53,65L51.9,65L51.9,65.1Z" style="fill:rgb(255,224,0);fill-rule:nonzero;"/>
                    <path d="M50.7,66.6C50.1,67.2 49.4,67.8 48.6,68.2C49,68.5 49.4,68.8 49.8,69.1C50.3,68.8 50.9,68.6 51.4,68.3C51.4,68 51.3,67.8 51.2,67.5C51,67.2 50.9,66.9 50.7,66.6Z" style="fill:rgb(255,224,0);fill-rule:nonzero;"/>
                    <path d="M49.2,69.4L49.2,69.2C48.9,69 48.5,68.7 48.2,68.4C47.5,68.7 46.7,68.9 45.8,69C46.1,69.6 46.4,70.1 46.8,70.6C47.6,70.2 48.4,69.8 49.2,69.4Z" style="fill:rgb(255,224,0);fill-rule:nonzero;"/>
                    <path d="M45.4,69L45.2,69L44.7,69L44.5,69C44.3,69.5 43.9,70 43.7,70.5L44.8,71C44.9,70.8 45,70.5 45,70.3C45.1,70.7 45.2,71 45.3,71.4C45.7,71.2 46.1,71 46.5,70.8C46.1,70.2 45.7,69.6 45.4,69Z" style="fill:rgb(255,224,0);fill-rule:nonzero;"/>
                    <path d="M40.7,69.3L41.4,69.6L41.6,69.5L43.2,70.3C43.5,69.9 43.8,69.4 44,69C43.2,68.9 42.4,68.7 41.6,68.4C41.4,68.6 41,69.1 40.7,69.3Z" style="fill:rgb(255,224,0);fill-rule:nonzero;"/>
                    <path d="M41.3,68.2C40.5,67.8 39.8,67.3 39.2,66.6C39,66.9 38.9,67.2 38.7,67.4C38.7,67.6 38.5,68 38.5,68.1L40.4,69C40.6,68.9 41,68.4 41.3,68.2Z" style="fill:rgb(255,224,0);fill-rule:nonzero;"/>
                    <path d="M38,65.1L37,65.1C36.8,65.3 36.7,65.6 36.5,65.8C36.5,66.3 36.6,67 36.7,67.3L38,67.9C38.3,67.5 38.8,66.7 39,66.3C38.6,65.9 38.3,65.5 38,65.1Z" style="fill:rgb(255,224,0);fill-rule:nonzero;"/>
                    <path d="M36.6,64.7L36.6,63.2C36.1,62.8 35.7,62.4 35.3,62C35.1,62.3 34.9,62.7 34.7,63C34.6,64.4 34.7,65.8 35.1,66.6L35.3,66.7C35.7,66.2 36.2,65.4 36.5,64.9L36.5,64.7L36.6,64.7Z" style="fill:rgb(255,224,0);fill-rule:nonzero;"/>
                    <path d="M33.1,58.9C32.6,59.9 32.1,60.9 31.4,61.9C31.3,62.9 31.2,63.8 31.3,64.5L32.6,65.1C33.6,64 34.4,62.9 35,61.7C34.2,60.8 33.6,59.9 33.1,58.9Z" style="fill:rgb(255,224,0);fill-rule:nonzero;"/>
                    <path d="M32.2,56.7C30.8,58.3 29.3,59.8 27.6,60.8C27.4,61.5 27.2,62.3 27.2,62.9L29.2,63.8C30.9,62.4 32.1,60.3 32.9,58.4C32.6,57.9 32.4,57.3 32.2,56.7Z" style="fill:rgb(255,224,0);fill-rule:nonzero;"/>
                    <path d="M32.1,56.2C32.1,56.1 32,55.9 32,55.8C31.1,56.3 30.2,56.7 29.2,56.7L28.7,56.7L28.6,56.7C27.2,57.6 25.7,58.4 24.1,59C23.6,59.6 22.9,60.3 22.5,60.8L24.5,61.8C27.7,60.7 30.1,58.6 32.1,56.2Z" style="fill:rgb(255,224,0);fill-rule:nonzero;"/>
                    <path d="M66.8,49.8C64.2,45.8 60.9,48.6 56.9,46.1C56.6,46.3 56.2,46.3 55.7,46.4C56.8,47.9 57.5,49.6 57.8,51.3C59.1,53.3 61.8,53.6 64.4,53.1C63.5,51.6 62.3,51.1 60.9,50.8C59.3,50.3 58,49.7 57.6,48C59,50.9 63.2,50.5 66.8,49.8Z" style="fill:rgb(255,224,0);fill-rule:nonzero;"/>
                    <path d="M61.1,56.2C61.1,55.2 60.3,53.8 59.7,53.4C58.9,53.1 58.4,52.7 58,52.1C58.1,52.6 58.1,53.1 58.1,53.5C58.1,54.1 58,54.8 57.9,55.4C59,56 60.1,56.3 61.1,56.2Z" style="fill:rgb(255,224,0);fill-rule:nonzero;"/>
                    <path d="M30.1,53.4C29.5,53.9 28.8,55.2 28.7,56.2C29.8,56.3 30.8,56 31.9,55.3C31.8,54.7 31.8,54.1 31.8,53.5C31.8,53 31.8,52.4 31.9,51.9C31.5,52.6 31,53 30.1,53.4Z" style="fill:rgb(255,224,0);fill-rule:nonzero;"/>
                    <path d="M28.8,50.8C27.4,51.1 26.2,51.7 25.3,53.1C28,53.6 30.8,53.3 32.1,51.1C32.4,49.4 33.2,47.8 34.2,46.4C33.7,46.4 33.3,46.3 33,46.1C29.1,48.6 25.7,45.8 23.1,49.8C26.7,50.6 30.9,51 32.2,48C31.7,49.7 30.4,50.3 28.8,50.8Z" style="fill:rgb(255,224,0);fill-rule:nonzero;"/>
                    <path d="M53.4,43.8C54.2,44.4 54.9,45.2 55.5,45.9C56.1,45.9 56.6,45.8 57.1,45.5C54.4,45 54.9,41.1 50.8,40.3L50.7,40.4C51.1,40.8 51.5,41.3 51.8,41.9L53.4,41.9L53.4,43.8Z" style="fill:rgb(255,224,0);fill-rule:nonzero;"/>
                    <path d="M34.5,46C35.1,45.2 35.8,44.5 36.6,43.9L36.6,42.4L36.6,42L38,42C38.3,41.4 38.7,40.9 39.1,40.5L39,40.4C34.9,41.3 35.4,45.1 32.7,45.6C33.3,45.9 33.8,46 34.5,46Z" style="fill:rgb(255,224,0);fill-rule:nonzero;"/>
                    <path d="M39.2,39.5C39.3,39.7 39.4,39.9 39.5,40.1C39.9,39.7 40.3,39.4 40.8,39.1C40.7,38.9 40.7,38.6 40.7,38.3C40.2,38.9 39.7,39.3 39.2,39.5Z" style="fill:rgb(255,224,0);fill-rule:nonzero;"/>
                    <path d="M49.3,38.4C49.3,38.7 49.2,39 49.2,39.2C49.7,39.5 50.1,39.8 50.5,40.2C50.6,40 50.7,39.8 50.8,39.6C50.2,39.3 49.7,38.9 49.3,38.4Z" style="fill:rgb(255,224,0);fill-rule:nonzero;"/>
                    <path d="M43.6,38.1L44,38.1C44,38 43.9,37.8 43.9,37.7C43.8,37.8 43.7,38 43.6,38.1Z" style="fill:rgb(255,224,0);fill-rule:nonzero;"/>
                    <path d="M46.3,38.1C46.2,38 46.1,37.8 46,37.6C46,37.8 45.9,37.9 45.9,38C46,38.1 46.2,38.1 46.3,38.1Z" style="fill:rgb(255,224,0);fill-rule:nonzero;"/>
                    <path d="M51.1,37.9C50.3,37.7 49.4,36.9 48.9,36.1C48.7,36.5 48.4,36.9 48.1,37.2L47.8,37.5L47.5,37.2C46.9,36.5 46.6,35.6 46.4,34.7C46,35.5 43.7,35.5 43.4,34.7C43.3,35.5 43,36.4 42.3,37.2L42,37.5L41.7,37.2C41.4,37 41.2,36.6 40.9,36.1C40.3,36.9 39.4,37.8 38.7,37.9L38.4,38C38.2,38.5 37.9,39 37.5,39.5C38.6,39.7 40.2,38.7 41,37.2C41,38 41,38.5 41.1,39C41.7,38.7 42.3,38.4 43,38.3C43.4,37.8 43.8,37.1 43.9,36.2C44.1,37.2 44.2,37.7 44.4,38.1L45.4,38.1C45.6,37.7 45.7,37.1 45.9,36.2C46,37.1 46.4,37.8 46.8,38.3C47.5,38.5 48.1,38.7 48.7,39C48.8,38.6 48.8,38.1 48.8,37.2C49.7,38.7 51.2,39.7 52.3,39.5C51.9,39 51.6,38.5 51.4,38L51.1,37.9Z" style="fill:rgb(255,224,0);fill-rule:nonzero;"/>
                    <path d="M51.6,64.7L53,64.7L53,63C55.9,60.8 57.8,57.4 57.8,53.5C57.8,49.7 55.9,46.2 53,44L53,42.3L51.6,42.3C50.4,40 48,38.4 45.2,38.4L44.7,38.4C41.9,38.4 39.5,40 38.3,42.3L37,42.3L37,44C34.1,46.2 32.2,49.6 32.2,53.5C32.2,57.3 34.1,60.8 37,63L37,64.7L38.3,64.7C39.5,67 41.9,68.6 44.7,68.6L45.2,68.6C48,68.6 50.4,67 51.6,64.7ZM45.2,68L44.7,68C42.2,68 40,66.6 38.8,64.4L38.6,64.1L37.5,64.1L37.5,62.8L37.3,62.6C34.4,60.4 32.8,57.1 32.8,53.6C32.8,50.1 34.5,46.8 37.3,44.6L37.5,44.4L37.5,43L38.6,43L38.8,42.7C40,40.5 42.2,39.1 44.7,39.1L45.2,39.1C47.7,39.1 49.9,40.5 51.1,42.7L51.3,43L52.4,43L52.4,44.3L52.6,44.5C55.5,46.7 57.1,50 57.1,53.5C57.1,57 55.4,60.3 52.6,62.5L52.4,62.7L52.4,64L51.3,64L51.1,64.3C49.9,66.6 47.7,68 45.2,68Z" style="fill:rgb(255,224,0);fill-rule:nonzero;"/>
                    <path d="M51.3,28C50.3,29.2 49.7,30.3 49.9,31.5C50.4,30.7 51.1,30 52.2,29.4C52.2,29.4 52.7,28.7 53.1,28.6C51.5,30.6 51.8,32.3 52.1,32.9C52.7,31.2 54.1,30.3 54.7,30C56,29.4 55.3,27.1 57.2,26C56.1,25.8 55.1,25.8 54.2,26.5C53.4,27.1 52,27.8 50.3,26.9C49.6,28 48.1,29.5 46.8,29.7C47.9,29.9 49.7,29.8 51.3,28ZM56.2,26.1C55.4,27.2 54.8,26.7 54.4,26.5C55.3,26.1 55.8,26.2 56.2,26.1Z" style="fill:rgb(255,224,0);fill-rule:nonzero;"/>
                    <path d="M62.7,85.4L62.1,86L62.7,84.1C62.7,84.1 60.7,84.3 61.5,86L61.6,86.3C61.8,86.8 62.3,87.3 62.7,87.5L63,87.7C63.4,87.9 63.6,87.7 63.4,87.2L62.7,85.4Z" style="fill:rgb(255,224,0);fill-rule:nonzero;"/>
                    <path d="M71.8,83L71.5,82.9C71.1,82.7 70.7,82.9 70.5,83.3L69.4,85.6L70.3,85.8L69.2,86L68.8,87C68.8,87 69.9,87.2 70.7,85.9C70.9,85.6 71.3,85.8 71.4,85.6L72.1,84C72.3,83.6 72.2,83.2 71.8,83Z" style="fill:rgb(255,224,0);fill-rule:nonzero;"/>
                    <path d="M66.7,81.7C66.9,81.3 66.7,80.9 66.3,80.7L66,80.5C65.6,80.3 65.2,80.5 65,80.9L64.4,82.1C64.2,82.5 64.6,82.7 64.4,83.1C64.1,84.1 64.9,85.3 64.9,85.3L65.3,84.3L65.4,84.1L64.8,82.7L65.7,83.6L66.7,81.7Z" style="fill:rgb(255,224,0);fill-rule:nonzero;"/>
                    <path d="M69.4,82.7C69.5,82.4 69.4,82 69.1,81.9L68.6,81.7C68.3,81.6 67.9,81.7 67.8,82L66.7,84.5C66.3,85.4 66.7,86.7 66.7,86.7C67.3,86.3 67.8,85.9 68.1,85.1L67.3,85L68.7,84.5L69.4,82.7Z" style="fill:rgb(255,224,0);fill-rule:nonzero;"/>
                </g>
            </g>
        </g>
    </g>
</svg>
