<svg width="100%" height="100%" viewBox="0 0 297 214" version="1.1" fill="#FF7901" xmlns="http://www.w3.org/2000/svg" xmlns:xlink="http://www.w3.org/1999/xlink" xml:space="preserve" xmlns:serif="http://www.serif.com/" style="fill-rule:evenodd;clip-rule:evenodd;stroke-linejoin:round;stroke-miterlimit:2;">
    <g transform="matrix(1,0,0,1,0,-41.744)">
        <path d="M297,144.338C297,133.152 289.607,123.522 279.065,119.32C281.177,116.017 281.212,111.629 278.8,108.234C249.243,66.599 200.533,41.744 148.5,41.744C96.464,41.744 47.752,66.602 18.198,108.236C15.788,111.631 15.821,116.015 17.934,119.32C7.394,123.52 0,133.152 0,144.338C0,150.922 2.56,156.967 6.816,161.684C2.56,166.4 0,172.447 0,179.031C0,189.238 6.158,198.15 15.246,202.822L15.246,220.383C15.246,239.612 30.873,255.256 50.081,255.256L246.919,255.256C266.127,255.256 281.754,239.611 281.754,220.383L281.754,202.822C290.842,198.15 297,189.238 297,179.031C297,172.447 294.44,166.4 290.184,161.683C294.44,156.967 297,150.922 297,144.338ZM277.16,179.031C277.16,182.986 272.524,186.457 267.24,186.457L146.492,186.457L161.346,171.603L267.24,171.603C272.524,171.604 277.16,175.074 277.16,179.031ZM99.945,204.945L66.605,171.603L133.286,171.605L99.945,204.945ZM29.76,186.457C24.476,186.457 19.84,182.986 19.84,179.031C19.84,175.074 24.476,171.603 29.76,171.603L38.546,171.603L53.4,186.457L29.76,186.457ZM29.76,151.764C24.476,151.764 19.84,148.295 19.84,144.338C19.84,140.381 24.476,136.91 29.76,136.91L267.24,136.91C272.524,136.91 277.16,140.381 277.16,144.338C277.16,148.295 272.524,151.764 267.24,151.764L29.76,151.764ZM148.501,61.584C192.997,61.584 234.674,82.268 260.68,117.07L36.319,117.07C62.324,82.27 104.002,61.584 148.501,61.584ZM246.919,235.416L50.081,235.416C41.813,235.416 35.086,228.674 35.086,220.383L35.086,206.297L73.24,206.297L92.931,225.988C94.869,227.926 97.407,228.894 99.946,228.894C102.484,228.894 105.023,227.925 106.961,225.988L126.653,206.297L261.915,206.297L261.915,220.383C261.914,228.674 255.186,235.416 246.919,235.416Z" style="fill-rule:nonzero;"/>
        <path d="M126.644,80.996C128.608,80.996 130.523,80.201 131.901,78.812C133.291,77.423 134.084,75.509 134.084,73.554C134.084,71.589 133.291,69.675 131.901,68.286C130.523,66.907 128.608,66.114 126.644,66.114C124.679,66.114 122.765,66.907 121.386,68.286C119.997,69.675 119.203,71.589 119.203,73.554C119.203,75.509 119.997,77.423 121.386,78.812C122.765,80.201 124.679,80.996 126.644,80.996Z" style="fill-rule:nonzero;"/>
        <path d="M170.351,80.996C172.315,80.996 174.23,80.201 175.619,78.812C176.998,77.423 177.802,75.509 177.802,73.554C177.802,71.589 176.998,69.675 175.619,68.286C174.23,66.907 172.315,66.114 170.351,66.114C168.397,66.114 166.482,66.907 165.093,68.286C163.704,69.675 162.91,71.589 162.91,73.554C162.91,75.509 163.704,77.423 165.093,78.812C166.481,80.201 168.396,80.996 170.351,80.996Z" style="fill-rule:nonzero;"/>
        <path d="M82.926,103.652C84.891,103.652 86.805,102.859 88.194,101.47C89.573,100.079 90.366,98.165 90.366,96.212C90.366,94.247 89.573,92.333 88.194,90.944C86.805,89.565 84.891,88.772 82.926,88.772C80.972,88.772 79.058,89.565 77.668,90.944C76.28,92.333 75.485,94.247 75.485,96.212C75.485,98.165 76.28,100.079 77.668,101.47C79.058,102.859 80.972,103.652 82.926,103.652Z" style="fill-rule:nonzero;"/>
        <path d="M214.067,103.652C216.032,103.652 217.946,102.859 219.336,101.47C220.714,100.079 221.508,98.165 221.508,96.212C221.508,94.247 220.714,92.333 219.336,90.944C217.946,89.565 216.022,88.772 214.067,88.772C212.112,88.772 210.199,89.565 208.81,90.944C207.42,92.333 206.627,94.247 206.627,96.212C206.627,98.165 207.42,100.091 208.81,101.47C210.199,102.859 212.113,103.652 214.067,103.652Z" style="fill-rule:nonzero;"/>
    </g>
</svg>
