<?xml version="1.0" encoding="UTF-8" standalone="no"?><!DOCTYPE svg PUBLIC "-//W3C//DTD SVG 1.1//EN" "http://www.w3.org/Graphics/SVG/1.1/DTD/svg11.dtd"><svg width="100%" height="100%" viewBox="0 0 136 158" version="1.1" xmlns="http://www.w3.org/2000/svg" xmlns:xlink="http://www.w3.org/1999/xlink" xml:space="preserve" xmlns:serif="http://www.serif.com/" style="fill-rule:evenodd;clip-rule:evenodd;stroke-linecap:round;stroke-linejoin:round;stroke-miterlimit:90;"><path d="M133.75,80.196c0,-4.651 -3.776,-8.426 -8.426,-8.426l-99.522,0c-4.65,0 -8.425,3.775 -8.425,8.426l0,67.407c0,4.65 3.775,8.425 8.425,8.425l99.522,0c4.65,0 8.426,-3.775 8.426,-8.425l0,-67.407Z" style="fill:none;stroke:#37123c;stroke-width:3px;"/><path d="M46.01,69.437l-44.51,-67.937l44.51,67.937Z" style="fill:none;stroke:#37123c;stroke-width:3px;"/><path d="M65.431,36.306l-19.421,33.131" style="fill:none;stroke:#37123c;stroke-width:3px;"/><path d="M127.507,85.485c0,-3.948 -3.205,-7.153 -7.153,-7.153l-89.675,0c-3.948,0 -7.153,3.205 -7.153,7.153l0,57.218c0,3.948 3.205,7.153 7.153,7.153l89.675,0c3.948,0 7.153,-3.205 7.153,-7.153l0,-57.218Z" style="fill:none;stroke:#37123c;stroke-width:3px;"/><path d="M42.445,91.736c0,0 88.006,-0.495 74.163,-0.495c-13.844,0 -76.141,9.394 -76.141,9.394l62.297,2.967c0,0 -46.97,8.405 -51.419,8.899c-4.45,0.495 33.62,4.944 40.047,5.439c6.428,0.494 34.61,2.966 13.844,3.955c-20.765,0.989 -56.858,7.911 -56.858,7.911l68.724,-0.495l-79.107,10.878l75.646,1.483" style="fill:none;stroke:#ff7900;stroke-width:3px;"/><path d="M34.193,86.301c0,0 88.006,-0.494 74.162,-0.494c-13.844,0 -76.14,9.394 -76.14,9.394l62.296,2.966c0,0 -46.969,8.405 -51.419,8.9c-4.45,0.494 33.62,4.944 40.048,5.438c6.427,0.495 34.609,2.967 13.843,3.956c-20.765,0.988 -56.857,7.91 -56.857,7.91l68.724,-0.494l-79.107,10.877l75.646,1.483" style="fill:none;stroke:#37123c;stroke-width:3px;"/></svg>