<?xml version="1.0" encoding="UTF-8" standalone="no"?><!DOCTYPE svg PUBLIC "-//W3C//DTD SVG 1.1//EN" "http://www.w3.org/Graphics/SVG/1.1/DTD/svg11.dtd"><svg width="100%" height="100%" viewBox="0 0 228 98" version="1.1" xmlns="http://www.w3.org/2000/svg" xmlns:xlink="http://www.w3.org/1999/xlink" xml:space="preserve" xmlns:serif="http://www.serif.com/" style="fill-rule:evenodd;clip-rule:evenodd;stroke-linecap:round;stroke-linejoin:round;stroke-miterlimit:90;"><g><path d="M39.932,62.04c-0.458,-0.025 -0.904,-0.035 -1.339,-0.031c-0.435,0.004 -0.85,0.055 -1.246,0.153c-0.426,0.105 -0.819,0.279 -1.179,0.522c-0.359,0.243 -0.704,0.612 -1.034,1.106l-0.034,0.059c0.296,0.546 0.529,0.969 0.7,1.27c0.172,0.302 0.361,0.547 0.569,0.736c0.208,0.189 0.467,0.323 0.777,0.401c0.31,0.079 0.725,0.191 1.245,0.337c0.591,0.954 1.122,1.734 1.594,2.339c0.472,0.605 0.946,1.055 1.422,1.35c0.476,0.294 0.985,0.461 1.528,0.499c0.542,0.038 1.163,-0.029 1.863,-0.202l0.045,-0.011c0.604,-0.561 1.011,-1.203 1.221,-1.924c0.209,-0.722 0.356,-1.436 0.44,-2.144c0.032,-0.523 0.099,-1.038 0.2,-1.544c0.102,-0.506 0.218,-1.015 0.35,-1.529c0.043,-0.217 0.092,-0.443 0.147,-0.68c0.054,-0.237 0.099,-0.48 0.135,-0.729l-1.222,-4.955c-0.04,-0.162 -0.082,-0.332 -0.126,-0.51c-0.043,-0.178 -0.07,-0.352 -0.08,-0.521c-0.08,-0.324 -0.152,-0.65 -0.216,-0.977c-0.065,-0.328 -0.172,-0.663 -0.32,-1.004c-0.189,-0.503 -0.454,-0.987 -0.794,-1.453c-0.341,-0.466 -0.736,-0.858 -1.186,-1.176c-0.45,-0.319 -0.935,-0.551 -1.456,-0.698c-0.52,-0.146 -1.054,-0.152 -1.602,-0.017c-0.152,0.038 -0.302,0.083 -0.45,0.137c-0.149,0.054 -0.295,0.115 -0.439,0.185c-1.091,0.682 -2.106,1.473 -3.046,2.375c-0.94,0.901 -1.574,2.062 -1.902,3.483l-0.034,0.06c0.527,0.694 0.999,1.17 1.418,1.428c0.419,0.257 1.054,0.281 1.906,0.071l0.046,-0.011l0.445,-1.14c0.215,-0.569 0.468,-1.146 0.759,-1.734c0.291,-0.587 0.816,-1.042 1.576,-1.367c1.324,0.395 2.236,1.149 2.737,2.262c0.5,1.114 0.632,2.696 0.395,4.747l-0.714,0.639c-0.517,0.128 -1.024,0.201 -1.519,0.221c-0.496,0.019 -1.023,0.011 -1.58,-0.023Zm3.506,5.577c-0.558,-0.035 -1.093,-0.143 -1.606,-0.326c-0.513,-0.183 -0.968,-0.62 -1.365,-1.312c0.265,-0.237 0.536,-0.416 0.813,-0.536c0.277,-0.119 0.552,-0.213 0.826,-0.281l0.788,-0.142l1.05,-0.259c0.335,0.57 0.435,1.043 0.302,1.42c-0.133,0.376 -0.331,0.751 -0.594,1.125l-0.214,0.311Z" style="fill:#37123c;fill-rule:nonzero;"/><path d="M54.574,55.235l-1.051,5.361c-0.242,-0.456 -0.43,-0.925 -0.565,-1.407c-0.135,-0.482 -0.274,-0.946 -0.416,-1.392l-0.347,-1.409c-0.072,-0.291 -0.142,-0.574 -0.21,-0.85c-0.068,-0.275 -0.181,-0.539 -0.34,-0.792c-0.16,-0.252 -0.374,-0.466 -0.643,-0.64c-0.268,-0.174 -0.621,-0.294 -1.056,-0.358l-1.528,2.644c2.024,3.623 3.197,7.268 3.519,10.933c0.192,0.124 0.311,0.215 0.358,0.272c0.161,0.132 0.348,0.267 0.559,0.403c0.211,0.137 0.401,0.219 0.569,0.247l0.241,-0.008c0.323,-0.389 0.581,-0.719 0.773,-0.989c0.191,-0.271 0.354,-0.56 0.488,-0.868c0.134,-0.308 0.269,-0.71 0.404,-1.208c0.136,-0.497 0.306,-1.183 0.51,-2.058l1.651,2.376l0.034,-0.06c1.031,-0.529 1.775,-1.245 2.23,-2.147c0.456,-0.903 0.869,-1.846 1.24,-2.831c0.215,-0.568 0.424,-1.126 0.628,-1.675c0.204,-0.548 0.467,-1.085 0.789,-1.611c0.241,0.455 0.445,0.921 0.61,1.395c0.166,0.475 0.319,0.935 0.462,1.381c0.401,1.103 0.847,2.161 1.339,3.174c0.492,1.012 1.294,1.81 2.407,2.395c0.794,-0.574 1.14,-1.2 1.037,-1.879c-0.102,-0.679 -0.359,-1.328 -0.77,-1.949c-0.762,-1.255 -1.364,-2.549 -1.805,-3.883c-0.442,-1.334 -0.839,-2.713 -1.19,-4.138c-0.24,-0.972 -0.546,-1.626 -0.92,-1.964c-0.374,-0.337 -1.047,-0.385 -2.021,-0.145l-2.886,8.131l-0.493,-0.033l-1.233,-5.003l-2.374,0.585Zm0.613,-3.603l0.079,-0.072c0.12,-0.167 0.229,-0.314 0.327,-0.441c0.098,-0.127 0.211,-0.258 0.339,-0.393c0.195,-0.254 0.385,-0.498 0.57,-0.733c0.184,-0.234 0.32,-0.5 0.409,-0.796c0.155,-0.416 0.349,-0.842 0.581,-1.277c0.231,-0.435 0.551,-0.875 0.958,-1.318c0.407,-0.444 0.925,-0.898 1.553,-1.362c0.628,-0.464 1.405,-0.914 2.331,-1.348c0.41,-0.17 0.799,-0.394 1.166,-0.674c0.366,-0.279 0.743,-0.552 1.129,-0.819c0.167,-0.11 0.329,-0.236 0.488,-0.378c0.159,-0.143 0.337,-0.272 0.534,-0.39l0.045,-0.011l-0.319,-0.9c-0.528,-0.179 -1.027,-0.271 -1.496,-0.276c-0.469,-0.004 -0.932,0.05 -1.389,0.162c-0.7,0.173 -1.364,0.457 -1.993,0.853c-0.629,0.395 -1.242,0.821 -1.84,1.278c-2.435,1.906 -4.108,4.156 -5.018,6.751l1.546,2.144Z" style="fill:#37123c;fill-rule:nonzero;"/><path d="M70.854,47.614c-0.113,0.063 -0.254,0.149 -0.42,0.258c-0.872,0.525 -1.546,1 -2.022,1.426c-0.475,0.427 -0.8,0.876 -0.975,1.349c-0.174,0.472 -0.229,1.035 -0.164,1.689c0.064,0.654 0.22,1.483 0.468,2.487c0.135,0.551 0.281,1.107 0.436,1.67c0.155,0.563 0.361,1.105 0.618,1.626c0.251,0.625 0.504,1.224 0.758,1.797c0.254,0.573 0.552,1.092 0.893,1.557c0.34,0.466 0.753,0.862 1.237,1.19c0.484,0.327 1.082,0.557 1.793,0.691l0.034,-0.059c0.075,-0.088 0.16,-0.169 0.254,-0.244c0.095,-0.074 0.195,-0.159 0.301,-0.254c1.315,-1.08 2.131,-2.389 2.446,-3.927c0.315,-1.537 0.386,-3.178 0.215,-4.922c-0.035,-0.404 -0.142,-0.936 -0.321,-1.596c-0.179,-0.66 -0.486,-1.314 -0.92,-1.963c-0.434,-0.649 -1.024,-1.242 -1.77,-1.78c-0.746,-0.537 -1.704,-0.885 -2.873,-1.043l0.012,0.048Zm2.742,12.104c-0.72,-0.304 -1.227,-0.754 -1.519,-1.352c-0.293,-0.598 -0.534,-1.217 -0.725,-1.857c-0.254,-0.899 -0.458,-1.63 -0.613,-2.193c-0.155,-0.563 -0.242,-1.048 -0.262,-1.456c-0.02,-0.407 0.018,-0.777 0.114,-1.11c0.095,-0.333 0.232,-0.727 0.41,-1.183c1.291,0.128 2.234,0.943 2.831,2.445c0.855,2.16 0.776,4.395 -0.236,6.706Z" style="fill:#37123c;fill-rule:nonzero;"/><path d="M100.163,56.105c1.856,-0.458 3.56,-1.273 5.111,-2.445c1.551,-1.173 2.848,-2.592 3.89,-4.257c0.098,-0.127 0.136,-0.429 0.116,-0.905c-0.002,-0.137 -0.011,-0.272 -0.027,-0.405c-0.017,-0.133 -0.015,-0.289 0.006,-0.466l-0.036,-0.145l-0.079,0.071c-0.295,0.244 -0.575,0.451 -0.84,0.619c-0.266,0.169 -0.504,0.348 -0.715,0.537c-0.523,0.369 -1.004,0.711 -1.443,1.026c-0.439,0.314 -0.874,0.645 -1.305,0.991c-1.233,0.888 -2.429,1.475 -3.585,1.76c-0.7,0.173 -1.39,0.257 -2.069,0.253c-0.679,-0.005 -1.355,-0.13 -2.029,-0.376l0.1,-2.344l-1.607,-0.428c-0.085,-4.273 1.486,-7.134 4.712,-8.582l2.318,0.562c0.295,-0.244 0.553,-0.505 0.775,-0.784c0.222,-0.278 0.393,-0.569 0.512,-0.873c0.118,-0.304 0.155,-0.648 0.108,-1.031c-0.046,-0.384 -0.209,-0.816 -0.489,-1.297l-0.057,-0.037c-1.153,-0.094 -2.156,-0.036 -3.008,0.175c-1.978,0.487 -3.695,1.838 -5.151,4.052c-0.96,1.474 -1.599,3.074 -1.916,4.801c-0.316,1.727 -0.348,3.693 -0.095,5.898l1.641,2.532c1.311,1.257 3.031,1.623 5.162,1.098Z" style="fill:#37123c;fill-rule:nonzero;"/><path d="M116.248,40.03l-1.052,5.361c-0.241,-0.456 -0.429,-0.925 -0.564,-1.407c-0.135,-0.482 -0.274,-0.946 -0.416,-1.392l-0.347,-1.409c-0.072,-0.291 -0.142,-0.574 -0.21,-0.85c-0.068,-0.275 -0.181,-0.539 -0.341,-0.792c-0.159,-0.252 -0.373,-0.466 -0.642,-0.64c-0.269,-0.174 -0.621,-0.294 -1.056,-0.358l-1.528,2.644c2.024,3.623 3.196,7.268 3.519,10.933c0.192,0.124 0.311,0.215 0.358,0.272c0.161,0.132 0.348,0.267 0.559,0.403c0.211,0.137 0.401,0.219 0.569,0.247l0.24,-0.008c0.324,-0.389 0.582,-0.719 0.773,-0.989c0.192,-0.271 0.355,-0.56 0.489,-0.868c0.134,-0.308 0.268,-0.71 0.404,-1.208c0.136,-0.497 0.306,-1.183 0.51,-2.058l1.651,2.376l0.033,-0.06c1.032,-0.529 1.776,-1.245 2.231,-2.147c0.456,-0.903 0.869,-1.846 1.239,-2.831c0.215,-0.568 0.425,-1.126 0.629,-1.675c0.203,-0.548 0.466,-1.085 0.789,-1.611c0.241,0.455 0.445,0.921 0.61,1.395c0.166,0.475 0.319,0.935 0.462,1.381c0.401,1.103 0.847,2.161 1.339,3.174c0.492,1.012 1.294,1.81 2.406,2.395c0.795,-0.574 1.141,-1.2 1.038,-1.879c-0.102,-0.679 -0.359,-1.328 -0.771,-1.949c-0.761,-1.255 -1.363,-2.549 -1.804,-3.883c-0.442,-1.334 -0.839,-2.713 -1.19,-4.138c-0.24,-0.972 -0.546,-1.626 -0.92,-1.964c-0.374,-0.337 -1.048,-0.385 -2.021,-0.145l-2.887,8.131l-0.492,-0.033l-1.234,-5.003l-2.373,0.585Zm0.612,-3.603l0.08,-0.072c0.12,-0.167 0.229,-0.314 0.327,-0.441c0.098,-0.127 0.211,-0.258 0.339,-0.393c0.195,-0.254 0.385,-0.498 0.57,-0.733c0.184,-0.234 0.32,-0.5 0.409,-0.796c0.155,-0.416 0.349,-0.842 0.581,-1.277c0.231,-0.435 0.551,-0.875 0.958,-1.318c0.407,-0.444 0.925,-0.898 1.553,-1.362c0.628,-0.464 1.405,-0.914 2.331,-1.348c0.41,-0.17 0.798,-0.394 1.165,-0.674c0.367,-0.279 0.744,-0.552 1.13,-0.819c0.167,-0.11 0.329,-0.236 0.488,-0.378c0.159,-0.143 0.336,-0.272 0.534,-0.39l0.045,-0.011l-0.319,-0.9c-0.528,-0.179 -1.027,-0.271 -1.496,-0.275c-0.469,-0.005 -0.932,0.049 -1.389,0.161c-0.7,0.173 -1.364,0.457 -1.993,0.853c-0.629,0.395 -1.242,0.821 -1.84,1.278c-2.435,1.906 -4.108,4.156 -5.018,6.751l1.545,2.144Z" style="fill:#37123c;fill-rule:nonzero;"/><path d="M137.496,42.933l0.462,1.484c0.286,1.029 0.619,1.986 0.999,2.871c0.379,0.886 1.042,1.607 1.986,2.164c0.16,-0.005 0.303,-0.014 0.429,-0.028c0.126,-0.014 0.249,-0.036 0.371,-0.066c0.304,-0.075 0.545,-0.212 0.722,-0.41c0.177,-0.198 0.294,-0.51 0.35,-0.936l-2.419,-2.547l-0.455,-1.846c-0.192,-0.777 -0.393,-1.561 -0.604,-2.351c-0.211,-0.789 -0.386,-1.596 -0.524,-2.421c-0.072,-0.291 -0.116,-0.599 -0.131,-0.921c-0.015,-0.323 -0.012,-0.641 0.007,-0.955l-0.069,-1.065l-0.007,-0.617c-0.028,-0.508 -0.066,-1.023 -0.114,-1.544c-0.047,-0.52 -0.101,-1.031 -0.16,-1.532c-0.055,-0.226 -0.249,-0.488 -0.58,-0.784l-0.476,-0.553l-1.459,1.545c0.126,1.034 0.186,2.162 0.18,3.382c-0.005,1.221 -0.072,2.423 -0.201,3.606c-0.128,1.182 -0.308,2.283 -0.541,3.302c-0.233,1.019 -0.51,1.861 -0.831,2.524c-1.239,-2.409 -2.134,-4.859 -2.684,-7.351c-0.55,-2.493 -0.97,-4.854 -1.262,-7.084l-0.058,-0.037c-0.429,-0.169 -0.775,-0.298 -1.039,-0.388c-0.265,-0.089 -0.488,-0.112 -0.671,-0.067c-0.213,0.053 -0.404,0.195 -0.573,0.425c-0.169,0.231 -0.392,0.569 -0.67,1.016c0.547,1.823 1.087,3.622 1.622,5.397c0.534,1.775 1.101,3.55 1.7,5.326c0.221,0.633 0.455,1.254 0.702,1.863c0.247,0.609 0.526,1.218 0.838,1.829c0.102,0.284 0.218,0.59 0.347,0.919c0.13,0.328 0.293,0.632 0.491,0.909c0.198,0.278 0.423,0.506 0.677,0.684c0.254,0.178 0.556,0.258 0.907,0.24c0.735,-0.422 1.221,-0.971 1.458,-1.648c0.236,-0.677 0.427,-1.376 0.572,-2.099c0.095,-0.401 0.193,-0.786 0.296,-1.155c0.103,-0.369 0.24,-0.729 0.412,-1.081Z" style="fill:#37123c;fill-rule:nonzero;"/><path d="M150.199,42.996c0.73,-0.18 1.5,-0.198 2.311,-0.054c0.176,0.06 0.37,0.063 0.583,0.011c0.092,-0.023 0.173,-0.052 0.245,-0.087c0.073,-0.035 0.154,-0.063 0.246,-0.086l0.091,-0.022c0.091,-0.023 0.171,-0.06 0.239,-0.111c0.068,-0.051 0.155,-0.124 0.261,-0.219l0.329,-0.235l0.091,-0.023l-0.976,-2.387l-5.38,-0.22l1.643,-4.527l2.017,-0.858c0.213,-0.705 0.369,-1.251 0.468,-1.636c0.099,-0.385 0.114,-0.715 0.046,-0.99c-0.068,-0.275 -0.232,-0.518 -0.494,-0.729c-0.262,-0.21 -0.646,-0.493 -1.154,-0.849l-0.091,0.023c-1.115,0.584 -1.911,1.381 -2.388,2.392c-0.477,1.011 -0.893,2.11 -1.246,3.296c-0.162,0.521 -0.339,1.045 -0.532,1.574c-0.192,0.528 -0.4,1.061 -0.623,1.596c-0.298,-0.682 -0.48,-1.358 -0.549,-2.029c-0.068,-0.67 -0.121,-1.344 -0.159,-2.021c0.008,-0.621 -0.019,-1.224 -0.083,-1.809c-0.064,-0.586 -0.213,-1.159 -0.448,-1.719l-1.931,-0.761l-0.034,0.06c-0.253,0.543 -0.444,1.08 -0.571,1.609c-0.128,0.53 -0.112,1.119 0.048,1.766c0.238,0.835 0.441,1.661 0.61,2.478c0.17,0.817 0.343,1.65 0.52,2.5l0.096,0.388c0.105,0.558 0.214,1.098 0.327,1.62c0.112,0.522 0.214,1.098 0.305,1.729c0.071,0.291 0.136,0.585 0.192,0.88c0.057,0.295 0.11,0.608 0.159,0.94l0.012,0.048l1.292,0.918l0.046,-0.011l0.903,-0.558c0.103,-0.042 0.207,-0.111 0.313,-0.205c0.522,-0.37 1.045,-0.705 1.568,-1.005c0.523,-0.301 1.089,-0.527 1.698,-0.677Z" style="fill:#37123c;fill-rule:nonzero;"/><path d="M156.224,22.651c-0.579,0.143 -1.043,0.549 -1.394,1.22c0.218,3.244 0.483,6.477 0.792,9.698c0.056,0.88 0.171,1.805 0.346,2.775c0.174,0.97 0.499,1.895 0.974,2.774c0.577,1.163 1.291,1.863 2.14,2.101c0.85,0.237 1.792,0.228 2.826,-0.027c2.374,-0.586 4.182,-2.027 5.423,-4.326c0.119,-0.304 0.137,-0.755 0.054,-1.353c-0.01,-0.169 -0.029,-0.345 -0.057,-0.527c-0.029,-0.182 -0.041,-0.394 -0.036,-0.635l0.01,-0.157l-0.113,0.131c-0.242,0.197 -0.479,0.384 -0.709,0.561c-0.231,0.177 -0.452,0.36 -0.664,0.55c-0.642,0.536 -1.257,1.023 -1.843,1.459c-0.587,0.437 -1.23,0.741 -1.93,0.914c-0.243,0.06 -0.47,0.09 -0.68,0.09c-0.21,0.001 -0.444,-0.002 -0.704,-0.006c-0.422,-0.274 -0.753,-0.502 -0.991,-0.684c-0.239,-0.181 -0.418,-0.386 -0.539,-0.614c-0.121,-0.228 -0.225,-0.52 -0.313,-0.876c-0.088,-0.356 -0.192,-0.846 -0.314,-1.469c0.414,-0.548 0.888,-0.983 1.422,-1.303c0.534,-0.321 1.105,-0.625 1.712,-0.912c0.752,-0.357 1.466,-0.765 2.144,-1.224c0.678,-0.459 1.229,-1.136 1.654,-2.031l-0.024,-0.097c-0.568,-0.341 -1.108,-0.535 -1.62,-0.58c-0.511,-0.046 -1.011,-0.009 -1.497,0.111c-0.609,0.151 -1.175,0.342 -1.699,0.574c-0.289,0.14 -0.573,0.261 -0.855,0.365c-0.281,0.104 -0.558,0.189 -0.832,0.257c-0.365,0.09 -0.773,0.139 -1.223,0.147c0.212,-0.843 0.534,-1.566 0.966,-2.171c0.432,-0.604 0.945,-1.109 1.54,-1.513c0.594,-0.404 1.237,-0.743 1.928,-1.017c0.692,-0.273 1.402,-0.5 2.133,-0.68c0.722,-0.212 1.452,-0.461 2.189,-0.746c0.737,-0.284 1.395,-0.756 1.975,-1.414l0.034,-0.06l-0.804,-1.296l-9.815,2.419c-0.553,-0.413 -1.089,-0.555 -1.606,-0.428Z" style="fill:#37123c;fill-rule:nonzero;"/><path d="M185.395,64.567c-0.811,-1.586 -1.509,-3.209 -2.096,-4.868c-0.587,-1.659 -1.103,-3.327 -1.548,-5.003c-0.446,-1.677 -0.844,-3.356 -1.194,-5.039c-0.35,-1.683 -0.684,-3.361 -0.999,-5.036c-0.275,-1.375 -0.549,-2.75 -0.824,-4.125c-0.274,-1.375 -0.579,-2.743 -0.915,-4.103l1.223,-0.147c0.282,-0.035 0.555,-0.076 0.817,-0.124c0.263,-0.048 0.531,-0.105 0.805,-0.173c0.761,-0.187 1.466,-0.602 2.115,-1.243c0.649,-0.64 1.19,-1.392 1.623,-2.255c0.433,-0.862 0.753,-1.757 0.96,-2.684c0.208,-0.927 0.231,-1.783 0.07,-2.568c-0.082,-0.461 -0.236,-0.921 -0.462,-1.381c-0.226,-0.459 -0.497,-0.805 -0.812,-1.036c-0.853,-0.58 -1.635,-1.031 -2.344,-1.355c-0.709,-0.323 -1.404,-0.555 -2.085,-0.697c-0.68,-0.141 -1.4,-0.213 -2.159,-0.214c-0.759,-0.002 -1.634,0.016 -2.626,0.054l-0.973,-0.017c-0.16,0.005 -0.31,0.016 -0.451,0.034c-0.141,0.017 -0.288,0.045 -0.44,0.082c-1.004,0.248 -1.531,0.859 -1.582,1.833c0.237,0.698 0.462,1.381 0.675,2.05c0.213,0.668 0.43,1.319 0.651,1.952c0.527,1.484 1.01,2.92 1.449,4.306c0.438,1.386 0.837,2.808 1.197,4.265c0.511,2.073 1.001,4.159 1.47,6.259c0.469,2.1 0.925,4.178 1.367,6.233c0.323,1.57 0.67,3.142 1.042,4.716c0.372,1.575 0.738,3.159 1.099,4.753c0.201,0.947 0.494,1.871 0.877,2.773c0.384,0.901 0.771,1.751 1.161,2.548c0.157,0.373 0.378,0.68 0.662,0.919c0.285,0.239 0.626,0.309 1.021,0.212c0.365,-0.09 0.782,-0.365 1.25,-0.824l-0.024,-0.097Zm-8.692,-36.041c0.492,-0.361 0.907,-0.644 1.244,-0.847c0.337,-0.204 0.658,-0.343 0.962,-0.418c0.487,-0.12 0.969,-0.067 1.444,0.159c0.476,0.227 1.109,0.637 1.902,1.232l-0.302,2.703c-0.198,0.117 -0.385,0.24 -0.563,0.37c-0.178,0.13 -0.346,0.266 -0.505,0.408c-0.242,0.197 -0.488,0.378 -0.737,0.543c-0.25,0.164 -0.528,0.284 -0.832,0.359c-0.517,0.128 -1.11,0.016 -1.777,-0.335l-0.836,-4.174Z" style="fill:#37123c;fill-rule:nonzero;"/></g><path d="M102.665,4.231c59.248,-8.646 110.207,3.92 113.727,28.042c3.52,24.122 -41.724,50.725 -100.972,59.37c-59.248,8.646 -110.208,-3.919 -113.728,-28.042c-3.52,-24.122 41.725,-50.725 100.973,-59.37Z" style="fill:none;stroke:#37123c;stroke-width:3px;"/><path d="M112.085,5.508c59.248,-8.646 110.208,3.919 113.728,28.042c3.52,24.122 -41.724,50.725 -100.972,59.37c-59.248,8.646 -110.208,-3.92 -113.728,-28.042c-3.52,-24.122 41.724,-50.725 100.972,-59.37Z" style="fill:none;stroke:#ff7900;stroke-width:3px;"/></svg>