<?xml version="1.0" encoding="UTF-8" standalone="no"?><!DOCTYPE svg PUBLIC "-//W3C//DTD SVG 1.1//EN" "http://www.w3.org/Graphics/SVG/1.1/DTD/svg11.dtd"><svg width="100%" height="100%" viewBox="0 0 241 231" version="1.1" xmlns="http://www.w3.org/2000/svg" xmlns:xlink="http://www.w3.org/1999/xlink" xml:space="preserve" xmlns:serif="http://www.serif.com/" style="fill-rule:evenodd;clip-rule:evenodd;stroke-linecap:round;stroke-linejoin:round;stroke-miterlimit:90;"><path d="M65.38,60.295c-5.066,13.769 -1.004,29.266 8.459,40.144c4.554,5.234 10.133,9.483 16.213,12.798c6.207,3.384 13.638,6.694 20.845,6.518c5.027,-0.123 12.914,-3.422 11.286,-9.821c-1.433,-5.631 -8.612,-10.121 -14.238,-9.602c-6.299,0.581 -10.102,6.778 -10.387,12.627c-0.341,6.98 3.149,14.04 7.013,19.659c8.459,12.299 22.465,20.613 37.365,21.807c1.421,0.114 1.851,-2.073 0.412,-2.202c-10.805,-0.966 -20.971,-5.531 -28.943,-12.883c-4.063,-3.748 -7.512,-8.214 -10.03,-13.14c-2.884,-5.642 -5.399,-12.873 -2.109,-18.874c3.632,-6.622 11.342,-5.774 16.189,-1.02c2.83,2.776 4.106,6.41 0.477,9.218c-2.946,2.281 -7.12,2.457 -10.658,1.909c-11.338,-1.754 -23.064,-8.812 -30.822,-17.109c-9.729,-10.404 -14.582,-25.611 -9.741,-39.395c0.311,-0.883 -1.001,-1.529 -1.331,-0.634Z" style="fill:#37123c;fill-rule:nonzero;"/><path d="M128.568,143.868c7.337,3.819 14.695,7.601 21.988,11.501c0.036,-0.785 0.072,-1.57 0.109,-2.356c-3.473,1.757 -6.945,3.482 -10.537,4.985c-3.304,1.383 -7.091,2.232 -10.149,4.082c-0.966,0.585 -0.32,2.107 0.732,2.015c3.685,-0.32 7.464,-2.285 10.826,-3.74c3.516,-1.522 6.978,-3.194 10.307,-5.094c0.855,-0.488 0.622,-1.821 -0.186,-2.202c-7.477,-3.525 -14.895,-7.174 -22.33,-10.785c-1.027,-0.498 -1.766,1.071 -0.76,1.594Z" style="fill:#37123c;fill-rule:nonzero;"/><g transform="matrix(0.970928,-0.239371,0.239371,0.970928,1236.52,-1184.73)"><text x="-1494.59px" y="903.144px" style="font-family:'SKPencil-Regular', 'SK Pencil';font-size:50.032px;fill:#37123c;">в<tspan x="-1481.38px -1470.05px -1450.91px -1436.81px -1417.67px -1402.39px -1383.26px " y="903.144px 903.144px 903.144px 903.144px 903.144px 903.144px 903.144px ">от туть</tspan></text></g><path d="M156.254,133.303l24.618,95.303l58.308,0" style="fill:none;stroke:#37123c;stroke-width:3px;"/><path d="M62.256,133.303l24.618,95.303l58.307,0" style="fill:none;stroke:#37123c;stroke-width:3px;"/><path d="M159.656,132.135l23.857,92.356l55.538,-0.185" style="fill:none;stroke:#ff7900;stroke-width:3px;"/><path d="M65.657,132.135l23.858,92.356l55.538,-0.185" style="fill:none;stroke:#ff7900;stroke-width:3px;"/></svg>