<svg width="100%" height="100%" viewBox="0 0 490 270" fill="#ccc" version="1.1" xmlns="http://www.w3.org/2000/svg" xmlns:xlink="http://www.w3.org/1999/xlink" xml:space="preserve" xmlns:serif="http://www.serif.com/" style="fill-rule:evenodd;clip-rule:evenodd;stroke-linejoin:round;stroke-miterlimit:2;">
    <g transform="matrix(1,0,0,1,-11.025,-121)">
        <path d="M496.4,243.1C432.5,164.4 347.1,121 256,121C164.9,121 79.5,164.4 15.6,243.1C9.5,250.6 9.5,261.3 15.6,268.8C79.5,347.6 164.9,391 256,391C347.1,391 432.5,347.6 496.4,268.9C502.5,261.4 502.5,250.6 496.4,243.1ZM256,322.9C219.1,322.9 189.1,292.9 189.1,256C189.1,219.1 219.1,189.1 256,189.1C292.9,189.1 322.9,219.1 322.9,256C322.9,292.9 292.9,322.9 256,322.9ZM58.2,256C96,213.8 141.1,184.9 189.7,171.1C164.5,190.8 148.2,221.5 148.2,256C148.2,290.4 164.4,321.1 189.7,340.9C141.1,327.1 96.1,298.2 58.2,256ZM322.3,340.9C347.5,321.2 363.8,290.5 363.8,256C363.8,221.6 347.6,190.9 322.3,171.1C370.9,184.9 416,213.8 453.8,256C415.9,298.2 370.9,327.1 322.3,340.9Z" style="fill-rule:nonzero;"/>
    </g>
</svg>
