<?xml version="1.0" encoding="UTF-8" standalone="no"?>
<!DOCTYPE svg PUBLIC "-//W3C//DTD SVG 1.1//EN" "http://www.w3.org/Graphics/SVG/1.1/DTD/svg11.dtd">
<svg width="100%" height="100%" viewBox="0 0 802 271" version="1.1" xmlns="http://www.w3.org/2000/svg" xmlns:xlink="http://www.w3.org/1999/xlink" xml:space="preserve" xmlns:serif="http://www.serif.com/" style="fill-rule:evenodd;clip-rule:evenodd;stroke-linecap:round;stroke-linejoin:round;stroke-miterlimit:90;">
    <g transform="matrix(1,0,0,1,-2371.74,-117.236)">
        <g transform="matrix(1,0,0,1,1916,0)">
            <g transform="matrix(0.962654,-0.270734,0.270734,0.962654,-203.621,332.918)">
                <g id="Логотип-МТВ-2016" serif:id="Логотип МТВ 2016" transform="matrix(0.115274,-0.00275234,0.00275234,0.115274,1165.19,262.237)">
                    <g transform="matrix(1,0,0,1,-913.5,-246.5)">
                        <clipPath id="_clip1">
                            <rect x="0" y="0" width="1827" height="493"/>
                        </clipPath>
                        <g clip-path="url(#_clip1)">
                            <g transform="matrix(1,0,0,1,-0.279172,-3.85412)">
                                <g transform="matrix(4.16667,0,0,4.16667,0,0)">
                                    <path d="M56.732,74.325L53.263,74.325C51.39,74.325 50.458,74.046 50.458,72.512L50.458,33.173L33.927,72.459C33.509,73.454 32.563,73.799 31.512,73.799L27.387,73.799C26.184,73.799 25.284,73.298 24.926,72.427L8.809,33.173L8.809,72.494C8.809,73.748 7.825,74.339 6.509,74.325L4.877,74.325L2.796,74.325C1.26,74.254 0.067,73.636 0.067,72.465L0.067,25.239C0.067,22.801 1.468,21.967 3.86,21.967L9.86,21.967C12.17,21.967 13.948,22.873 14.938,25.237L29.936,61.044L45.187,25.281C46.14,23.045 47.492,21.967 49.274,21.967L56.342,21.967C58.036,21.967 59.47,23.332 59.47,25.268L59.47,72.475C59.47,73.731 58.119,74.23 56.732,74.325ZM234.272,54.208C234.272,67.186 228.431,75.21 216.903,75.093C213.527,75.059 210.622,73.91 207.166,70.939L207.166,86.37C207.166,87.921 206.135,88.813 204.241,88.813L202.329,88.813C200.211,88.813 199.135,88.194 199.135,86.294L199.135,36.737C199.135,35.668 199.593,35.05 200.753,35.05L204.503,35.05C206.136,35.05 206.883,35.667 206.883,36.774L206.883,39.156C210.537,36.077 213.847,33.958 218.688,33.958C230.153,33.958 234.272,44.44 234.272,54.208ZM225.186,54.388C225.186,47.529 223.351,41.949 217.008,41.949C212.912,41.949 209.966,45.328 207.166,47.831L207.166,61.582C209.485,64.397 212.675,67.41 216.305,67.451C222.704,67.524 225.186,62.165 225.186,54.388ZM304.724,43.116L295.111,43.116L295.111,72.343C295.111,73.632 294.425,74.325 292.518,74.325L288.956,74.325C287.098,74.325 286.229,73.827 286.229,72.362L286.229,43.116L277.124,43.116C274.411,43.116 273.718,42.387 273.718,40.036L273.718,37.786C273.718,35.507 274.868,35.05 277.275,35.05L304.574,35.05C306.747,35.05 307.622,36.126 307.622,38.086L307.622,40.411C307.622,42.215 306.847,43.116 304.724,43.116ZM271.258,38.596L253.162,85.052C252.1,87.779 251.013,88.813 249.504,88.813L245.812,88.813C243.133,88.813 243.439,86.316 244.803,82.91L248.547,73.562L234.331,37.938C233.544,35.963 234.288,35.05 236.362,35.05L240.563,35.05C241.676,35.05 242.748,35.398 243.257,36.7L253.542,63.037L263.144,36.658C263.438,35.849 263.889,35.05 264.919,35.05L269.569,35.05C271.282,35.05 271.828,36.558 271.258,38.596ZM189.856,74.325L145.297,74.325C143.741,74.325 142.334,73.059 142.334,71.869L142.334,37.335C142.334,35.87 142.997,35.05 144.372,35.05L148.743,35.05C150.311,35.05 150.932,35.635 150.932,37.26L150.932,66.639L163.221,66.639L163.221,37.195C163.221,35.988 164.014,35.05 165.288,35.05L169.994,35.05C171.159,35.05 171.82,35.705 171.82,37.176L171.82,66.639L183.826,66.639L183.826,37.185C183.826,35.732 184.539,35.05 185.744,35.05L190.882,35.05C192.216,35.05 192.991,35.714 192.991,37.204L192.991,71.907C192.991,73.239 191.456,74.325 189.856,74.325ZM138.271,54.208C138.271,67.186 132.431,75.21 120.902,75.093C117.527,75.059 114.622,73.91 111.166,70.939L111.166,86.37C111.166,87.921 110.134,88.813 108.241,88.813L106.328,88.813C104.21,88.813 103.135,88.194 103.135,86.294L103.135,36.737C103.135,35.668 103.592,35.05 104.753,35.05L108.503,35.05C110.135,35.05 110.882,35.667 110.882,36.774L110.882,39.156C114.536,36.077 117.846,33.958 122.688,33.958C134.153,33.958 138.271,44.44 138.271,54.208ZM129.186,54.388C129.186,47.529 127.351,41.949 121.008,41.949C116.912,41.949 113.966,45.328 111.166,47.831L111.166,61.582C113.485,64.397 116.675,67.41 120.305,67.451C126.703,67.524 129.186,62.165 129.186,54.388ZM94.346,74.325L90.727,74.325C89.605,74.325 89.002,73.648 88.84,72.514L88.636,71.086C86.648,72.942 84.7,74.776 76.42,74.817C68.909,74.855 64.322,70.588 64.117,62.934C63.817,51.803 77.063,50.693 87.661,50.699C88.032,36.43 74.235,43.135 67.971,45.509C67.522,45.749 66.858,45.386 66.132,43.761C65.406,42.135 65.95,39.388 67.031,38.43C72.416,33.802 96.352,28.749 96.352,47.666L96.352,72.494C96.352,73.646 95.725,74.273 94.346,74.325ZM87.736,63.488L87.736,57.316C81.22,57.703 73.101,56.951 73.176,62.478C73.246,67.668 77.277,67.995 79.146,68.003C81.477,68.013 83.987,66.389 87.736,63.488Z" style="fill:rgb(255,121,1);fill-rule:nonzero;"/>
                                </g>
                                <g transform="matrix(4.16667,0,0,4.16667,0,0)">
                                    <path d="M379.386,0.925C412.026,0.925 438.486,27.385 438.486,60.025C438.486,92.665 412.026,119.125 379.386,119.125C346.746,119.125 320.286,92.665 320.286,60.025C320.286,27.385 346.746,0.925 379.386,0.925Z" style="fill:rgb(255,121,1);"/>
                                </g>
                                <g transform="matrix(4.16667,0,0,4.16667,0,0)">
                                    <path d="M365.848,49.355L365.848,85.939C365.848,90.598 362.035,94.414 357.373,94.414C352.712,94.414 348.898,90.6 348.898,85.939L348.898,49.355L338.218,49.355C334.03,49.355 330.605,45.93 330.605,41.743C330.605,37.557 334.032,34.13 338.218,34.13L373.207,34.13C378.354,34.13 387.465,33.52 389.796,40.167L399.524,67.899L409.544,38.749C410.941,34.687 415.323,32.382 419.425,33.715C423.527,35.048 425.861,39.517 424.459,43.596L409.07,88.363C406.519,95.786 392.375,94.892 389.987,88.08L376.189,48.743C375.272,49.137 374.264,49.355 373.207,49.355L365.848,49.355Z" style="fill:white;"/>
                                </g>
                                <g transform="matrix(4.16667,0,0,4.16667,0,0)">
                                    <path d="M0.896,104.636L0.896,88.171L6.228,88.171C8.248,88.171 9.567,88.256 10.18,88.421C11.123,88.666 11.917,89.203 12.553,90.031C13.189,90.859 13.507,91.928 13.507,93.235C13.507,94.247 13.323,95.098 12.956,95.784C12.587,96.474 12.124,97.015 11.556,97.41C10.993,97.801 10.418,98.061 9.835,98.188C9.041,98.345 7.891,98.425 6.385,98.425L4.219,98.425L4.219,104.636L0.896,104.636ZM4.219,90.958L4.219,95.627L6.036,95.627C7.347,95.627 8.225,95.543 8.666,95.371C9.107,95.198 9.452,94.93 9.705,94.562C9.954,94.194 10.08,93.768 10.08,93.281C10.08,92.683 9.904,92.189 9.551,91.798C9.202,91.411 8.754,91.165 8.217,91.07C7.819,90.993 7.021,90.958 5.825,90.958L4.219,90.958ZM22.547,100.841L25.694,101.366C25.287,102.52 24.651,103.397 23.777,103.999C22.907,104.605 21.814,104.904 20.503,104.904C18.429,104.904 16.896,104.229 15.9,102.872C15.114,101.787 14.719,100.415 14.719,98.763C14.719,96.785 15.236,95.236 16.271,94.117C17.302,92.998 18.609,92.438 20.189,92.438C21.964,92.438 23.363,93.024 24.39,94.197C25.414,95.371 25.904,97.164 25.862,99.583L17.954,99.583C17.977,100.519 18.23,101.247 18.717,101.764C19.204,102.286 19.813,102.546 20.538,102.546C21.032,102.546 21.446,102.412 21.784,102.144C22.121,101.872 22.378,101.439 22.547,100.841ZM22.727,97.651C22.704,96.735 22.47,96.041 22.021,95.566C21.573,95.091 21.025,94.853 20.381,94.853C19.691,94.853 19.123,95.106 18.675,95.608C18.226,96.106 18.004,96.789 18.012,97.651L22.727,97.651ZM28.308,92.71L31.455,92.71L31.455,97.582C31.977,97.525 32.348,97.364 32.567,97.099C32.782,96.839 33.046,96.263 33.353,95.382C33.755,94.205 34.2,93.454 34.679,93.124C35.158,92.794 35.787,92.629 36.565,92.629C36.803,92.629 37.221,92.649 37.811,92.687L37.822,94.776C36.99,94.776 36.458,94.853 36.228,95.01C35.994,95.175 35.745,95.666 35.476,96.482C35.108,97.582 34.579,98.261 33.893,98.514C34.886,98.794 35.729,99.656 36.419,101.109C36.454,101.186 36.496,101.262 36.542,101.347L38.305,104.636L34.913,104.636L33.341,101.19C33.019,100.492 32.739,100.043 32.505,99.844C32.268,99.648 31.919,99.549 31.455,99.549L31.455,104.636L28.308,104.636L28.308,92.71ZM41.077,92.71L51.645,92.71L51.645,104.636L48.502,104.636L48.502,95.271L44.201,95.271L44.201,100.626C44.201,101.991 44.044,102.945 43.73,103.497C43.415,104.045 43.066,104.406 42.683,104.578C42.303,104.751 41.69,104.839 40.843,104.839C40.341,104.839 39.678,104.77 38.853,104.636L38.853,102.313C38.923,102.313 39.099,102.316 39.382,102.332C39.712,102.355 39.965,102.366 40.145,102.366C40.571,102.366 40.835,102.228 40.931,101.945C41.031,101.665 41.077,100.883 41.077,99.602L41.077,92.71ZM57.196,96.348L54.332,95.83C54.654,94.677 55.206,93.826 55.992,93.27C56.782,92.718 57.947,92.438 59.496,92.438C60.907,92.438 61.953,92.607 62.643,92.94C63.329,93.273 63.816,93.695 64.096,94.209C64.376,94.723 64.517,95.662 64.517,97.034L64.483,100.718C64.483,101.764 64.533,102.539 64.636,103.037C64.736,103.531 64.928,104.068 65.204,104.636L62.08,104.636C61.999,104.425 61.896,104.114 61.777,103.704C61.727,103.516 61.688,103.393 61.665,103.332C61.125,103.858 60.55,104.248 59.937,104.513C59.324,104.774 58.668,104.904 57.97,104.904C56.743,104.904 55.774,104.57 55.068,103.907C54.359,103.24 54.007,102.397 54.007,101.377C54.007,100.707 54.168,100.105 54.49,99.575C54.812,99.047 55.264,98.644 55.843,98.364C56.422,98.084 57.261,97.839 58.353,97.628C59.826,97.352 60.849,97.091 61.416,96.854L61.416,96.54C61.416,95.93 61.267,95.501 60.968,95.24C60.669,94.983 60.105,94.853 59.274,94.853C58.71,94.853 58.273,94.964 57.959,95.186C57.644,95.405 57.391,95.792 57.196,96.348ZM61.416,98.908C61.014,99.043 60.374,99.204 59.496,99.392C58.622,99.579 58.051,99.763 57.779,99.94C57.368,100.235 57.162,100.603 57.162,101.051C57.162,101.496 57.326,101.876 57.656,102.198C57.986,102.52 58.403,102.681 58.913,102.681C59.485,102.681 60.025,102.493 60.542,102.121C60.926,101.837 61.175,101.488 61.294,101.074C61.378,100.806 61.416,100.292 61.416,99.537L61.416,98.908ZM67.719,92.71L71.628,92.71L74.592,101.021L77.578,92.71L81.476,92.71L81.476,104.636L78.793,104.636L78.793,96.785L75.884,104.636L73.189,104.636L70.413,96.785L70.413,104.636L67.719,104.636L67.719,92.71ZM86.697,96.348L83.834,95.83C84.156,94.677 84.708,93.826 85.494,93.27C86.284,92.718 87.449,92.438 88.997,92.438C90.408,92.438 91.454,92.607 92.145,92.94C92.831,93.273 93.318,93.695 93.597,94.209C93.877,94.723 94.019,95.662 94.019,97.034L93.985,100.718C93.985,101.764 94.035,102.539 94.138,103.037C94.238,103.531 94.429,104.068 94.705,104.636L91.581,104.636C91.501,104.425 91.397,104.114 91.278,103.704C91.229,103.516 91.19,103.393 91.167,103.332C90.626,103.858 90.052,104.248 89.438,104.513C88.825,104.774 88.169,104.904 87.472,104.904C86.245,104.904 85.275,104.57 84.57,103.907C83.861,103.24 83.508,102.397 83.508,101.377C83.508,100.707 83.669,100.105 83.991,99.575C84.313,99.047 84.766,98.644 85.344,98.364C85.923,98.084 86.763,97.839 87.855,97.628C89.327,97.352 90.351,97.091 90.918,96.854L90.918,96.54C90.918,95.93 90.769,95.501 90.469,95.24C90.17,94.983 89.607,94.853 88.775,94.853C88.212,94.853 87.775,94.964 87.46,95.186C87.146,95.405 86.893,95.792 86.697,96.348ZM90.918,98.908C90.515,99.043 89.875,99.204 88.997,99.392C88.124,99.579 87.552,99.763 87.28,99.94C86.87,100.235 86.663,100.603 86.663,101.051C86.663,101.496 86.828,101.876 87.157,102.198C87.487,102.52 87.905,102.681 88.415,102.681C88.986,102.681 89.526,102.493 90.044,102.121C90.427,101.837 90.676,101.488 90.795,101.074C90.88,100.806 90.918,100.292 90.918,99.537L90.918,98.908ZM103.395,92.71L106.543,92.71L106.543,97.582C107.064,97.525 107.436,97.364 107.654,97.099C107.869,96.839 108.134,96.263 108.44,95.382C108.843,94.205 109.287,93.454 109.767,93.124C110.246,92.794 110.874,92.629 111.652,92.629C111.89,92.629 112.308,92.649 112.898,92.687L112.91,94.776C112.078,94.776 111.545,94.853 111.315,95.01C111.081,95.175 110.832,95.666 110.564,96.482C110.196,97.582 109.667,98.261 108.981,98.514C109.974,98.794 110.817,99.656 111.507,101.109C111.541,101.186 111.584,101.262 111.63,101.347L113.393,104.636L110,104.636L108.429,101.19C108.107,100.492 107.827,100.043 107.593,99.844C107.355,99.648 107.006,99.549 106.543,99.549L106.543,104.636L103.395,104.636L103.395,92.71ZM113.999,98.502C113.999,97.456 114.259,96.44 114.773,95.459C115.29,94.481 116.023,93.73 116.969,93.216C117.916,92.699 118.974,92.438 120.143,92.438C121.945,92.438 123.425,93.024 124.579,94.197C125.732,95.371 126.307,96.85 126.307,98.64C126.307,100.442 125.725,101.937 124.563,103.125C123.398,104.314 121.934,104.904 120.166,104.904C119.07,104.904 118.031,104.659 117.038,104.164C116.046,103.67 115.29,102.945 114.773,101.991C114.259,101.036 113.999,99.875 113.999,98.502ZM117.234,98.671C117.234,99.856 117.514,100.76 118.077,101.389C118.637,102.018 119.331,102.332 120.155,102.332C120.979,102.332 121.669,102.018 122.225,101.389C122.785,100.76 123.064,99.848 123.064,98.648C123.064,97.483 122.785,96.582 122.225,95.953C121.669,95.324 120.979,95.01 120.155,95.01C119.331,95.01 118.637,95.324 118.077,95.953C117.514,96.582 117.234,97.49 117.234,98.671ZM126.794,92.71L137.585,92.71L137.585,95.259L133.767,95.259L133.767,104.636L130.612,104.636L130.612,95.259L126.794,95.259L126.794,92.71ZM138.436,98.502C138.436,97.456 138.697,96.44 139.21,95.459C139.728,94.481 140.46,93.73 141.407,93.216C142.354,92.699 143.412,92.438 144.581,92.438C146.383,92.438 147.862,93.024 149.016,94.197C150.17,95.371 150.745,96.85 150.745,98.64C150.745,100.442 150.162,101.937 149.001,103.125C147.835,104.314 146.371,104.904 144.604,104.904C143.508,104.904 142.469,104.659 141.476,104.164C140.483,103.67 139.728,102.945 139.21,101.991C138.697,101.036 138.436,99.875 138.436,98.502ZM141.671,98.671C141.671,99.856 141.951,100.76 142.515,101.389C143.075,102.018 143.768,102.332 144.592,102.332C145.417,102.332 146.106,102.018 146.662,101.389C147.222,100.76 147.502,99.848 147.502,98.648C147.502,97.483 147.222,96.582 146.662,95.953C146.106,95.324 145.417,95.01 144.592,95.01C143.768,95.01 143.075,95.324 142.515,95.953C141.951,96.582 141.671,97.49 141.671,98.671ZM153.125,92.71L156.069,92.71L156.069,94.462C156.449,93.86 156.966,93.373 157.618,93.001C158.27,92.626 158.994,92.438 159.788,92.438C161.171,92.438 162.348,92.982 163.31,94.067C164.277,95.152 164.76,96.666 164.76,98.606C164.76,100.595 164.273,102.144 163.303,103.248C162.329,104.352 161.149,104.904 159.765,104.904C159.105,104.904 158.507,104.774 157.971,104.513C157.438,104.248 156.874,103.8 156.28,103.164L156.28,109.174L153.125,109.174L153.125,92.71ZM156.249,98.472C156.249,99.809 156.514,100.802 157.047,101.439C157.576,102.079 158.224,102.401 158.99,102.401C159.722,102.401 160.332,102.106 160.819,101.519C161.306,100.933 161.551,99.967 161.551,98.629C161.551,97.375 161.298,96.448 160.796,95.842C160.294,95.236 159.673,94.933 158.933,94.933C158.162,94.933 157.522,95.229 157.012,95.827C156.503,96.421 156.249,97.302 156.249,98.472ZM165.469,92.71L168.827,92.71L171.679,101.178L174.465,92.71L177.731,92.71L173.523,104.187L172.767,106.265C172.491,106.959 172.227,107.492 171.978,107.859C171.725,108.227 171.437,108.522 171.111,108.753C170.785,108.979 170.387,109.159 169.912,109.286C169.436,109.412 168.9,109.477 168.298,109.477C167.692,109.477 167.098,109.412 166.511,109.286L166.232,106.813C166.726,106.913 167.171,106.959 167.569,106.959C168.301,106.959 168.846,106.744 169.198,106.315C169.547,105.885 169.819,105.337 170.007,104.67L165.469,92.71ZM179.732,92.71L182.887,92.71L182.887,97.525L185.402,97.525C185.567,95.999 186.146,94.768 187.139,93.837C188.132,92.906 189.458,92.438 191.121,92.438C192.796,92.438 194.169,92.982 195.242,94.067C196.312,95.152 196.848,96.72 196.848,98.763C196.848,99.959 196.645,101.009 196.247,101.906C195.844,102.803 195.235,103.528 194.411,104.08C193.586,104.632 192.513,104.904 191.187,104.904C189.278,104.904 187.855,104.386 186.92,103.351C185.985,102.313 185.479,101.205 185.402,100.032L182.887,100.032L182.887,104.636L179.732,104.636L179.732,92.71ZM191.075,94.899C190.198,94.899 189.561,95.179 189.159,95.742C188.76,96.302 188.561,97.199 188.561,98.425C188.561,99.997 188.775,101.059 189.205,101.607C189.634,102.159 190.29,102.435 191.163,102.435C191.972,102.435 192.578,102.125 192.984,101.508C193.387,100.89 193.59,99.963 193.59,98.728C193.59,97.214 193.372,96.199 192.935,95.681C192.494,95.16 191.877,94.899 191.075,94.899ZM216.188,96.237L213.075,96.796C212.972,96.175 212.734,95.708 212.362,95.394C211.99,95.079 211.511,94.922 210.921,94.922C210.131,94.922 209.506,95.194 209.038,95.735C208.571,96.279 208.337,97.187 208.337,98.46C208.337,99.875 208.575,100.875 209.05,101.458C209.525,102.04 210.162,102.332 210.963,102.332C211.565,102.332 212.051,102.163 212.435,101.822C212.818,101.481 213.087,100.894 213.244,100.066L216.345,100.591C216.023,102.014 215.402,103.091 214.489,103.815C213.577,104.543 212.354,104.904 210.817,104.904C209.073,104.904 207.681,104.356 206.647,103.256C205.608,102.156 205.09,100.63 205.09,98.683C205.09,96.716 205.611,95.183 206.65,94.086C207.693,92.986 209.1,92.438 210.875,92.438C212.327,92.438 213.481,92.752 214.34,93.377C215.195,94.002 215.812,94.956 216.188,96.237ZM218.668,92.71L222.578,92.71L225.541,101.021L228.527,92.71L232.426,92.71L232.426,104.636L229.742,104.636L229.742,96.785L226.833,104.636L224.138,104.636L221.363,96.785L221.363,104.636L218.668,104.636L218.668,92.71ZM234.557,98.502C234.557,97.456 234.818,96.44 235.331,95.459C235.849,94.481 236.581,93.73 237.528,93.216C238.475,92.699 239.533,92.438 240.702,92.438C242.504,92.438 243.983,93.024 245.137,94.197C246.291,95.371 246.866,96.85 246.866,98.64C246.866,100.442 246.283,101.937 245.122,103.125C243.956,104.314 242.492,104.904 240.725,104.904C239.629,104.904 238.59,104.659 237.597,104.164C236.604,103.67 235.849,102.945 235.331,101.991C234.818,101.036 234.557,99.875 234.557,98.502ZM237.793,98.671C237.793,99.856 238.072,100.76 238.636,101.389C239.196,102.018 239.889,102.332 240.714,102.332C241.538,102.332 242.228,102.018 242.783,101.389C243.343,100.76 243.623,99.848 243.623,98.648C243.623,97.483 243.343,96.582 242.783,95.953C242.228,95.324 241.538,95.01 240.714,95.01C239.889,95.01 239.196,95.324 238.636,95.953C238.072,96.582 237.793,97.49 237.793,98.671ZM247.353,92.71L258.144,92.71L258.144,95.259L254.326,95.259L254.326,104.636L251.171,104.636L251.171,95.259L247.353,95.259L247.353,92.71ZM259.938,92.71L262.882,92.71L262.882,94.462C263.261,93.86 263.779,93.373 264.43,93.001C265.082,92.626 265.806,92.438 266.6,92.438C267.984,92.438 269.161,92.982 270.123,94.067C271.089,95.152 271.572,96.666 271.572,98.606C271.572,100.595 271.085,102.144 270.115,103.248C269.141,104.352 267.961,104.904 266.577,104.904C265.918,104.904 265.319,104.774 264.783,104.513C264.25,104.248 263.687,103.8 263.092,103.164L263.092,109.174L259.938,109.174L259.938,92.71ZM263.062,98.472C263.062,99.809 263.326,100.802 263.859,101.439C264.388,102.079 265.036,102.401 265.802,102.401C266.535,102.401 267.144,102.106 267.631,101.519C268.118,100.933 268.363,99.967 268.363,98.629C268.363,97.375 268.11,96.448 267.608,95.842C267.106,95.236 266.485,94.933 265.745,94.933C264.974,94.933 264.334,95.229 263.824,95.827C263.315,96.421 263.062,97.302 263.062,98.472ZM283.996,92.71L283.996,104.636L280.86,104.636L280.86,99.683L280.569,99.683C279.886,99.683 279.388,99.771 279.07,99.947C278.752,100.124 278.399,100.496 278.008,101.063L277.816,101.301L275.738,104.636L272.066,104.636L274.324,101.178C274.968,100.189 275.555,99.618 276.076,99.468C275.194,99.418 274.477,99.081 273.925,98.464C273.377,97.847 273.101,97.057 273.101,96.099C273.101,95.328 273.281,94.669 273.646,94.124C274.01,93.577 274.493,93.205 275.094,93.005C275.697,92.81 276.593,92.71 277.786,92.71L283.996,92.71ZM280.86,94.742L278.602,94.742C277.774,94.742 277.188,94.861 276.85,95.094C276.517,95.332 276.348,95.723 276.348,96.267C276.348,96.816 276.536,97.207 276.919,97.448C277.303,97.686 277.927,97.808 278.794,97.808L280.86,97.808L280.86,94.742ZM285.782,92.71L296.573,92.71L296.573,95.259L292.755,95.259L292.755,104.636L289.6,104.636L289.6,95.259L285.782,95.259L285.782,92.71ZM299.693,100.392L298.873,92.035L298.873,88.171L302.288,88.171L302.288,92.035L301.48,100.392L299.693,100.392ZM299.007,104.636L299.007,101.481L302.162,101.481L302.162,104.636L299.007,104.636Z" style="fill:rgb(255,121,1);fill-rule:nonzero;"/>
                                </g>
                            </g>
                        </g>
                    </g>
                </g>
                <g id="Логотип-МТВ-20161" serif:id="Логотип МТВ 2016" transform="matrix(0.0648358,-0.0199982,0.0199982,0.0648358,1367.88,307.834)">
                    <g transform="matrix(1,0,0,1,-913.5,-246.5)">
                        <clipPath id="_clip2">
                            <rect x="0" y="0" width="1827" height="493"/>
                        </clipPath>
                        <g clip-path="url(#_clip2)">
                            <g transform="matrix(1,0,0,1,-0.279172,-3.85412)">
                                <g transform="matrix(4.16667,0,0,4.16667,0,0)">
                                    <path d="M56.732,74.325L53.263,74.325C51.39,74.325 50.458,74.046 50.458,72.512L50.458,33.173L33.927,72.459C33.509,73.454 32.563,73.799 31.512,73.799L27.387,73.799C26.184,73.799 25.284,73.298 24.926,72.427L8.809,33.173L8.809,72.494C8.809,73.748 7.825,74.339 6.509,74.325L4.877,74.325L2.796,74.325C1.26,74.254 0.067,73.636 0.067,72.465L0.067,25.239C0.067,22.801 1.468,21.967 3.86,21.967L9.86,21.967C12.17,21.967 13.948,22.873 14.938,25.237L29.936,61.044L45.187,25.281C46.14,23.045 47.492,21.967 49.274,21.967L56.342,21.967C58.036,21.967 59.47,23.332 59.47,25.268L59.47,72.475C59.47,73.731 58.119,74.23 56.732,74.325ZM234.272,54.208C234.272,67.186 228.431,75.21 216.903,75.093C213.527,75.059 210.622,73.91 207.166,70.939L207.166,86.37C207.166,87.921 206.135,88.813 204.241,88.813L202.329,88.813C200.211,88.813 199.135,88.194 199.135,86.294L199.135,36.737C199.135,35.668 199.593,35.05 200.753,35.05L204.503,35.05C206.136,35.05 206.883,35.667 206.883,36.774L206.883,39.156C210.537,36.077 213.847,33.958 218.688,33.958C230.153,33.958 234.272,44.44 234.272,54.208ZM225.186,54.388C225.186,47.529 223.351,41.949 217.008,41.949C212.912,41.949 209.966,45.328 207.166,47.831L207.166,61.582C209.485,64.397 212.675,67.41 216.305,67.451C222.704,67.524 225.186,62.165 225.186,54.388ZM304.724,43.116L295.111,43.116L295.111,72.343C295.111,73.632 294.425,74.325 292.518,74.325L288.956,74.325C287.098,74.325 286.229,73.827 286.229,72.362L286.229,43.116L277.124,43.116C274.411,43.116 273.718,42.387 273.718,40.036L273.718,37.786C273.718,35.507 274.868,35.05 277.275,35.05L304.574,35.05C306.747,35.05 307.622,36.126 307.622,38.086L307.622,40.411C307.622,42.215 306.847,43.116 304.724,43.116ZM271.258,38.596L253.162,85.052C252.1,87.779 251.013,88.813 249.504,88.813L245.812,88.813C243.133,88.813 243.439,86.316 244.803,82.91L248.547,73.562L234.331,37.938C233.544,35.963 234.288,35.05 236.362,35.05L240.563,35.05C241.676,35.05 242.748,35.398 243.257,36.7L253.542,63.037L263.144,36.658C263.438,35.849 263.889,35.05 264.919,35.05L269.569,35.05C271.282,35.05 271.828,36.558 271.258,38.596ZM189.856,74.325L145.297,74.325C143.741,74.325 142.334,73.059 142.334,71.869L142.334,37.335C142.334,35.87 142.997,35.05 144.372,35.05L148.743,35.05C150.311,35.05 150.932,35.635 150.932,37.26L150.932,66.639L163.221,66.639L163.221,37.195C163.221,35.988 164.014,35.05 165.288,35.05L169.994,35.05C171.159,35.05 171.82,35.705 171.82,37.176L171.82,66.639L183.826,66.639L183.826,37.185C183.826,35.732 184.539,35.05 185.744,35.05L190.882,35.05C192.216,35.05 192.991,35.714 192.991,37.204L192.991,71.907C192.991,73.239 191.456,74.325 189.856,74.325ZM138.271,54.208C138.271,67.186 132.431,75.21 120.902,75.093C117.527,75.059 114.622,73.91 111.166,70.939L111.166,86.37C111.166,87.921 110.134,88.813 108.241,88.813L106.328,88.813C104.21,88.813 103.135,88.194 103.135,86.294L103.135,36.737C103.135,35.668 103.592,35.05 104.753,35.05L108.503,35.05C110.135,35.05 110.882,35.667 110.882,36.774L110.882,39.156C114.536,36.077 117.846,33.958 122.688,33.958C134.153,33.958 138.271,44.44 138.271,54.208ZM129.186,54.388C129.186,47.529 127.351,41.949 121.008,41.949C116.912,41.949 113.966,45.328 111.166,47.831L111.166,61.582C113.485,64.397 116.675,67.41 120.305,67.451C126.703,67.524 129.186,62.165 129.186,54.388ZM94.346,74.325L90.727,74.325C89.605,74.325 89.002,73.648 88.84,72.514L88.636,71.086C86.648,72.942 84.7,74.776 76.42,74.817C68.909,74.855 64.322,70.588 64.117,62.934C63.817,51.803 77.063,50.693 87.661,50.699C88.032,36.43 74.235,43.135 67.971,45.509C67.522,45.749 66.858,45.386 66.132,43.761C65.406,42.135 65.95,39.388 67.031,38.43C72.416,33.802 96.352,28.749 96.352,47.666L96.352,72.494C96.352,73.646 95.725,74.273 94.346,74.325ZM87.736,63.488L87.736,57.316C81.22,57.703 73.101,56.951 73.176,62.478C73.246,67.668 77.277,67.995 79.146,68.003C81.477,68.013 83.987,66.389 87.736,63.488Z" style="fill:rgb(255,121,1);fill-rule:nonzero;"/>
                                </g>
                                <g transform="matrix(4.16667,0,0,4.16667,0,0)">
                                    <path d="M379.386,0.925C412.026,0.925 438.486,27.385 438.486,60.025C438.486,92.665 412.026,119.125 379.386,119.125C346.746,119.125 320.286,92.665 320.286,60.025C320.286,27.385 346.746,0.925 379.386,0.925Z" style="fill:rgb(255,121,1);"/>
                                </g>
                                <g transform="matrix(4.16667,0,0,4.16667,0,0)">
                                    <path d="M365.848,49.355L365.848,85.939C365.848,90.598 362.035,94.414 357.373,94.414C352.712,94.414 348.898,90.6 348.898,85.939L348.898,49.355L338.218,49.355C334.03,49.355 330.605,45.93 330.605,41.743C330.605,37.557 334.032,34.13 338.218,34.13L373.207,34.13C378.354,34.13 387.465,33.52 389.796,40.167L399.524,67.899L409.544,38.749C410.941,34.687 415.323,32.382 419.425,33.715C423.527,35.048 425.861,39.517 424.459,43.596L409.07,88.363C406.519,95.786 392.375,94.892 389.987,88.08L376.189,48.743C375.272,49.137 374.264,49.355 373.207,49.355L365.848,49.355Z" style="fill:white;"/>
                                </g>
                                <g transform="matrix(4.16667,0,0,4.16667,0,0)">
                                    <path d="M0.896,104.636L0.896,88.171L6.228,88.171C8.248,88.171 9.567,88.256 10.18,88.421C11.123,88.666 11.917,89.203 12.553,90.031C13.189,90.859 13.507,91.928 13.507,93.235C13.507,94.247 13.323,95.098 12.956,95.784C12.587,96.474 12.124,97.015 11.556,97.41C10.993,97.801 10.418,98.061 9.835,98.188C9.041,98.345 7.891,98.425 6.385,98.425L4.219,98.425L4.219,104.636L0.896,104.636ZM4.219,90.958L4.219,95.627L6.036,95.627C7.347,95.627 8.225,95.543 8.666,95.371C9.107,95.198 9.452,94.93 9.705,94.562C9.954,94.194 10.08,93.768 10.08,93.281C10.08,92.683 9.904,92.189 9.551,91.798C9.202,91.411 8.754,91.165 8.217,91.07C7.819,90.993 7.021,90.958 5.825,90.958L4.219,90.958ZM22.547,100.841L25.694,101.366C25.287,102.52 24.651,103.397 23.777,103.999C22.907,104.605 21.814,104.904 20.503,104.904C18.429,104.904 16.896,104.229 15.9,102.872C15.114,101.787 14.719,100.415 14.719,98.763C14.719,96.785 15.236,95.236 16.271,94.117C17.302,92.998 18.609,92.438 20.189,92.438C21.964,92.438 23.363,93.024 24.39,94.197C25.414,95.371 25.904,97.164 25.862,99.583L17.954,99.583C17.977,100.519 18.23,101.247 18.717,101.764C19.204,102.286 19.813,102.546 20.538,102.546C21.032,102.546 21.446,102.412 21.784,102.144C22.121,101.872 22.378,101.439 22.547,100.841ZM22.727,97.651C22.704,96.735 22.47,96.041 22.021,95.566C21.573,95.091 21.025,94.853 20.381,94.853C19.691,94.853 19.123,95.106 18.675,95.608C18.226,96.106 18.004,96.789 18.012,97.651L22.727,97.651ZM28.308,92.71L31.455,92.71L31.455,97.582C31.977,97.525 32.348,97.364 32.567,97.099C32.782,96.839 33.046,96.263 33.353,95.382C33.755,94.205 34.2,93.454 34.679,93.124C35.158,92.794 35.787,92.629 36.565,92.629C36.803,92.629 37.221,92.649 37.811,92.687L37.822,94.776C36.99,94.776 36.458,94.853 36.228,95.01C35.994,95.175 35.745,95.666 35.476,96.482C35.108,97.582 34.579,98.261 33.893,98.514C34.886,98.794 35.729,99.656 36.419,101.109C36.454,101.186 36.496,101.262 36.542,101.347L38.305,104.636L34.913,104.636L33.341,101.19C33.019,100.492 32.739,100.043 32.505,99.844C32.268,99.648 31.919,99.549 31.455,99.549L31.455,104.636L28.308,104.636L28.308,92.71ZM41.077,92.71L51.645,92.71L51.645,104.636L48.502,104.636L48.502,95.271L44.201,95.271L44.201,100.626C44.201,101.991 44.044,102.945 43.73,103.497C43.415,104.045 43.066,104.406 42.683,104.578C42.303,104.751 41.69,104.839 40.843,104.839C40.341,104.839 39.678,104.77 38.853,104.636L38.853,102.313C38.923,102.313 39.099,102.316 39.382,102.332C39.712,102.355 39.965,102.366 40.145,102.366C40.571,102.366 40.835,102.228 40.931,101.945C41.031,101.665 41.077,100.883 41.077,99.602L41.077,92.71ZM57.196,96.348L54.332,95.83C54.654,94.677 55.206,93.826 55.992,93.27C56.782,92.718 57.947,92.438 59.496,92.438C60.907,92.438 61.953,92.607 62.643,92.94C63.329,93.273 63.816,93.695 64.096,94.209C64.376,94.723 64.517,95.662 64.517,97.034L64.483,100.718C64.483,101.764 64.533,102.539 64.636,103.037C64.736,103.531 64.928,104.068 65.204,104.636L62.08,104.636C61.999,104.425 61.896,104.114 61.777,103.704C61.727,103.516 61.688,103.393 61.665,103.332C61.125,103.858 60.55,104.248 59.937,104.513C59.324,104.774 58.668,104.904 57.97,104.904C56.743,104.904 55.774,104.57 55.068,103.907C54.359,103.24 54.007,102.397 54.007,101.377C54.007,100.707 54.168,100.105 54.49,99.575C54.812,99.047 55.264,98.644 55.843,98.364C56.422,98.084 57.261,97.839 58.353,97.628C59.826,97.352 60.849,97.091 61.416,96.854L61.416,96.54C61.416,95.93 61.267,95.501 60.968,95.24C60.669,94.983 60.105,94.853 59.274,94.853C58.71,94.853 58.273,94.964 57.959,95.186C57.644,95.405 57.391,95.792 57.196,96.348ZM61.416,98.908C61.014,99.043 60.374,99.204 59.496,99.392C58.622,99.579 58.051,99.763 57.779,99.94C57.368,100.235 57.162,100.603 57.162,101.051C57.162,101.496 57.326,101.876 57.656,102.198C57.986,102.52 58.403,102.681 58.913,102.681C59.485,102.681 60.025,102.493 60.542,102.121C60.926,101.837 61.175,101.488 61.294,101.074C61.378,100.806 61.416,100.292 61.416,99.537L61.416,98.908ZM67.719,92.71L71.628,92.71L74.592,101.021L77.578,92.71L81.476,92.71L81.476,104.636L78.793,104.636L78.793,96.785L75.884,104.636L73.189,104.636L70.413,96.785L70.413,104.636L67.719,104.636L67.719,92.71ZM86.697,96.348L83.834,95.83C84.156,94.677 84.708,93.826 85.494,93.27C86.284,92.718 87.449,92.438 88.997,92.438C90.408,92.438 91.454,92.607 92.145,92.94C92.831,93.273 93.318,93.695 93.597,94.209C93.877,94.723 94.019,95.662 94.019,97.034L93.985,100.718C93.985,101.764 94.035,102.539 94.138,103.037C94.238,103.531 94.429,104.068 94.705,104.636L91.581,104.636C91.501,104.425 91.397,104.114 91.278,103.704C91.229,103.516 91.19,103.393 91.167,103.332C90.626,103.858 90.052,104.248 89.438,104.513C88.825,104.774 88.169,104.904 87.472,104.904C86.245,104.904 85.275,104.57 84.57,103.907C83.861,103.24 83.508,102.397 83.508,101.377C83.508,100.707 83.669,100.105 83.991,99.575C84.313,99.047 84.766,98.644 85.344,98.364C85.923,98.084 86.763,97.839 87.855,97.628C89.327,97.352 90.351,97.091 90.918,96.854L90.918,96.54C90.918,95.93 90.769,95.501 90.469,95.24C90.17,94.983 89.607,94.853 88.775,94.853C88.212,94.853 87.775,94.964 87.46,95.186C87.146,95.405 86.893,95.792 86.697,96.348ZM90.918,98.908C90.515,99.043 89.875,99.204 88.997,99.392C88.124,99.579 87.552,99.763 87.28,99.94C86.87,100.235 86.663,100.603 86.663,101.051C86.663,101.496 86.828,101.876 87.157,102.198C87.487,102.52 87.905,102.681 88.415,102.681C88.986,102.681 89.526,102.493 90.044,102.121C90.427,101.837 90.676,101.488 90.795,101.074C90.88,100.806 90.918,100.292 90.918,99.537L90.918,98.908ZM103.395,92.71L106.543,92.71L106.543,97.582C107.064,97.525 107.436,97.364 107.654,97.099C107.869,96.839 108.134,96.263 108.44,95.382C108.843,94.205 109.287,93.454 109.767,93.124C110.246,92.794 110.874,92.629 111.652,92.629C111.89,92.629 112.308,92.649 112.898,92.687L112.91,94.776C112.078,94.776 111.545,94.853 111.315,95.01C111.081,95.175 110.832,95.666 110.564,96.482C110.196,97.582 109.667,98.261 108.981,98.514C109.974,98.794 110.817,99.656 111.507,101.109C111.541,101.186 111.584,101.262 111.63,101.347L113.393,104.636L110,104.636L108.429,101.19C108.107,100.492 107.827,100.043 107.593,99.844C107.355,99.648 107.006,99.549 106.543,99.549L106.543,104.636L103.395,104.636L103.395,92.71ZM113.999,98.502C113.999,97.456 114.259,96.44 114.773,95.459C115.29,94.481 116.023,93.73 116.969,93.216C117.916,92.699 118.974,92.438 120.143,92.438C121.945,92.438 123.425,93.024 124.579,94.197C125.732,95.371 126.307,96.85 126.307,98.64C126.307,100.442 125.725,101.937 124.563,103.125C123.398,104.314 121.934,104.904 120.166,104.904C119.07,104.904 118.031,104.659 117.038,104.164C116.046,103.67 115.29,102.945 114.773,101.991C114.259,101.036 113.999,99.875 113.999,98.502ZM117.234,98.671C117.234,99.856 117.514,100.76 118.077,101.389C118.637,102.018 119.331,102.332 120.155,102.332C120.979,102.332 121.669,102.018 122.225,101.389C122.785,100.76 123.064,99.848 123.064,98.648C123.064,97.483 122.785,96.582 122.225,95.953C121.669,95.324 120.979,95.01 120.155,95.01C119.331,95.01 118.637,95.324 118.077,95.953C117.514,96.582 117.234,97.49 117.234,98.671ZM126.794,92.71L137.585,92.71L137.585,95.259L133.767,95.259L133.767,104.636L130.612,104.636L130.612,95.259L126.794,95.259L126.794,92.71ZM138.436,98.502C138.436,97.456 138.697,96.44 139.21,95.459C139.728,94.481 140.46,93.73 141.407,93.216C142.354,92.699 143.412,92.438 144.581,92.438C146.383,92.438 147.862,93.024 149.016,94.197C150.17,95.371 150.745,96.85 150.745,98.64C150.745,100.442 150.162,101.937 149.001,103.125C147.835,104.314 146.371,104.904 144.604,104.904C143.508,104.904 142.469,104.659 141.476,104.164C140.483,103.67 139.728,102.945 139.21,101.991C138.697,101.036 138.436,99.875 138.436,98.502ZM141.671,98.671C141.671,99.856 141.951,100.76 142.515,101.389C143.075,102.018 143.768,102.332 144.592,102.332C145.417,102.332 146.106,102.018 146.662,101.389C147.222,100.76 147.502,99.848 147.502,98.648C147.502,97.483 147.222,96.582 146.662,95.953C146.106,95.324 145.417,95.01 144.592,95.01C143.768,95.01 143.075,95.324 142.515,95.953C141.951,96.582 141.671,97.49 141.671,98.671ZM153.125,92.71L156.069,92.71L156.069,94.462C156.449,93.86 156.966,93.373 157.618,93.001C158.27,92.626 158.994,92.438 159.788,92.438C161.171,92.438 162.348,92.982 163.31,94.067C164.277,95.152 164.76,96.666 164.76,98.606C164.76,100.595 164.273,102.144 163.303,103.248C162.329,104.352 161.149,104.904 159.765,104.904C159.105,104.904 158.507,104.774 157.971,104.513C157.438,104.248 156.874,103.8 156.28,103.164L156.28,109.174L153.125,109.174L153.125,92.71ZM156.249,98.472C156.249,99.809 156.514,100.802 157.047,101.439C157.576,102.079 158.224,102.401 158.99,102.401C159.722,102.401 160.332,102.106 160.819,101.519C161.306,100.933 161.551,99.967 161.551,98.629C161.551,97.375 161.298,96.448 160.796,95.842C160.294,95.236 159.673,94.933 158.933,94.933C158.162,94.933 157.522,95.229 157.012,95.827C156.503,96.421 156.249,97.302 156.249,98.472ZM165.469,92.71L168.827,92.71L171.679,101.178L174.465,92.71L177.731,92.71L173.523,104.187L172.767,106.265C172.491,106.959 172.227,107.492 171.978,107.859C171.725,108.227 171.437,108.522 171.111,108.753C170.785,108.979 170.387,109.159 169.912,109.286C169.436,109.412 168.9,109.477 168.298,109.477C167.692,109.477 167.098,109.412 166.511,109.286L166.232,106.813C166.726,106.913 167.171,106.959 167.569,106.959C168.301,106.959 168.846,106.744 169.198,106.315C169.547,105.885 169.819,105.337 170.007,104.67L165.469,92.71ZM179.732,92.71L182.887,92.71L182.887,97.525L185.402,97.525C185.567,95.999 186.146,94.768 187.139,93.837C188.132,92.906 189.458,92.438 191.121,92.438C192.796,92.438 194.169,92.982 195.242,94.067C196.312,95.152 196.848,96.72 196.848,98.763C196.848,99.959 196.645,101.009 196.247,101.906C195.844,102.803 195.235,103.528 194.411,104.08C193.586,104.632 192.513,104.904 191.187,104.904C189.278,104.904 187.855,104.386 186.92,103.351C185.985,102.313 185.479,101.205 185.402,100.032L182.887,100.032L182.887,104.636L179.732,104.636L179.732,92.71ZM191.075,94.899C190.198,94.899 189.561,95.179 189.159,95.742C188.76,96.302 188.561,97.199 188.561,98.425C188.561,99.997 188.775,101.059 189.205,101.607C189.634,102.159 190.29,102.435 191.163,102.435C191.972,102.435 192.578,102.125 192.984,101.508C193.387,100.89 193.59,99.963 193.59,98.728C193.59,97.214 193.372,96.199 192.935,95.681C192.494,95.16 191.877,94.899 191.075,94.899ZM216.188,96.237L213.075,96.796C212.972,96.175 212.734,95.708 212.362,95.394C211.99,95.079 211.511,94.922 210.921,94.922C210.131,94.922 209.506,95.194 209.038,95.735C208.571,96.279 208.337,97.187 208.337,98.46C208.337,99.875 208.575,100.875 209.05,101.458C209.525,102.04 210.162,102.332 210.963,102.332C211.565,102.332 212.051,102.163 212.435,101.822C212.818,101.481 213.087,100.894 213.244,100.066L216.345,100.591C216.023,102.014 215.402,103.091 214.489,103.815C213.577,104.543 212.354,104.904 210.817,104.904C209.073,104.904 207.681,104.356 206.647,103.256C205.608,102.156 205.09,100.63 205.09,98.683C205.09,96.716 205.611,95.183 206.65,94.086C207.693,92.986 209.1,92.438 210.875,92.438C212.327,92.438 213.481,92.752 214.34,93.377C215.195,94.002 215.812,94.956 216.188,96.237ZM218.668,92.71L222.578,92.71L225.541,101.021L228.527,92.71L232.426,92.71L232.426,104.636L229.742,104.636L229.742,96.785L226.833,104.636L224.138,104.636L221.363,96.785L221.363,104.636L218.668,104.636L218.668,92.71ZM234.557,98.502C234.557,97.456 234.818,96.44 235.331,95.459C235.849,94.481 236.581,93.73 237.528,93.216C238.475,92.699 239.533,92.438 240.702,92.438C242.504,92.438 243.983,93.024 245.137,94.197C246.291,95.371 246.866,96.85 246.866,98.64C246.866,100.442 246.283,101.937 245.122,103.125C243.956,104.314 242.492,104.904 240.725,104.904C239.629,104.904 238.59,104.659 237.597,104.164C236.604,103.67 235.849,102.945 235.331,101.991C234.818,101.036 234.557,99.875 234.557,98.502ZM237.793,98.671C237.793,99.856 238.072,100.76 238.636,101.389C239.196,102.018 239.889,102.332 240.714,102.332C241.538,102.332 242.228,102.018 242.783,101.389C243.343,100.76 243.623,99.848 243.623,98.648C243.623,97.483 243.343,96.582 242.783,95.953C242.228,95.324 241.538,95.01 240.714,95.01C239.889,95.01 239.196,95.324 238.636,95.953C238.072,96.582 237.793,97.49 237.793,98.671ZM247.353,92.71L258.144,92.71L258.144,95.259L254.326,95.259L254.326,104.636L251.171,104.636L251.171,95.259L247.353,95.259L247.353,92.71ZM259.938,92.71L262.882,92.71L262.882,94.462C263.261,93.86 263.779,93.373 264.43,93.001C265.082,92.626 265.806,92.438 266.6,92.438C267.984,92.438 269.161,92.982 270.123,94.067C271.089,95.152 271.572,96.666 271.572,98.606C271.572,100.595 271.085,102.144 270.115,103.248C269.141,104.352 267.961,104.904 266.577,104.904C265.918,104.904 265.319,104.774 264.783,104.513C264.25,104.248 263.687,103.8 263.092,103.164L263.092,109.174L259.938,109.174L259.938,92.71ZM263.062,98.472C263.062,99.809 263.326,100.802 263.859,101.439C264.388,102.079 265.036,102.401 265.802,102.401C266.535,102.401 267.144,102.106 267.631,101.519C268.118,100.933 268.363,99.967 268.363,98.629C268.363,97.375 268.11,96.448 267.608,95.842C267.106,95.236 266.485,94.933 265.745,94.933C264.974,94.933 264.334,95.229 263.824,95.827C263.315,96.421 263.062,97.302 263.062,98.472ZM283.996,92.71L283.996,104.636L280.86,104.636L280.86,99.683L280.569,99.683C279.886,99.683 279.388,99.771 279.07,99.947C278.752,100.124 278.399,100.496 278.008,101.063L277.816,101.301L275.738,104.636L272.066,104.636L274.324,101.178C274.968,100.189 275.555,99.618 276.076,99.468C275.194,99.418 274.477,99.081 273.925,98.464C273.377,97.847 273.101,97.057 273.101,96.099C273.101,95.328 273.281,94.669 273.646,94.124C274.01,93.577 274.493,93.205 275.094,93.005C275.697,92.81 276.593,92.71 277.786,92.71L283.996,92.71ZM280.86,94.742L278.602,94.742C277.774,94.742 277.188,94.861 276.85,95.094C276.517,95.332 276.348,95.723 276.348,96.267C276.348,96.816 276.536,97.207 276.919,97.448C277.303,97.686 277.927,97.808 278.794,97.808L280.86,97.808L280.86,94.742ZM285.782,92.71L296.573,92.71L296.573,95.259L292.755,95.259L292.755,104.636L289.6,104.636L289.6,95.259L285.782,95.259L285.782,92.71ZM299.693,100.392L298.873,92.035L298.873,88.171L302.288,88.171L302.288,92.035L301.48,100.392L299.693,100.392ZM299.007,104.636L299.007,101.481L302.162,101.481L302.162,104.636L299.007,104.636Z" style="fill:rgb(255,121,1);fill-rule:nonzero;"/>
                                </g>
                            </g>
                        </g>
                    </g>
                </g>
                <g transform="matrix(7.87551,-0.187457,0.187457,7.87551,-6059.72,-14016.6)">
                    <g transform="matrix(12.8335,0,0,12.8335,808.195,1824.55)">
                        <path d="M0.101,0.087C0.112,0.08 0.122,0.074 0.129,0.069C0.136,0.064 0.141,0.059 0.145,0.054C0.148,0.049 0.151,0.043 0.152,0.036C0.153,0.029 0.153,0.02 0.153,0.009C0.154,-0.041 0.154,-0.091 0.154,-0.141C0.153,-0.191 0.152,-0.243 0.151,-0.298C0.151,-0.301 0.15,-0.305 0.149,-0.308L0.138,-0.327L0.135,-0.332L0.135,-0.326C0.134,-0.311 0.133,-0.296 0.134,-0.281C0.134,-0.266 0.134,-0.25 0.134,-0.235C0.135,-0.204 0.135,-0.172 0.134,-0.141C0.133,-0.11 0.127,-0.078 0.117,-0.047C0.11,-0.064 0.106,-0.08 0.105,-0.097C0.103,-0.114 0.103,-0.13 0.103,-0.147C0.104,-0.162 0.104,-0.178 0.103,-0.195C0.102,-0.212 0.101,-0.23 0.1,-0.248C0.099,-0.266 0.097,-0.284 0.096,-0.303L0.093,-0.353C0.098,-0.352 0.103,-0.352 0.108,-0.352C0.112,-0.351 0.116,-0.351 0.12,-0.351C0.165,-0.351 0.204,-0.369 0.237,-0.404C0.239,-0.406 0.241,-0.408 0.243,-0.409C0.245,-0.411 0.247,-0.413 0.249,-0.414C0.254,-0.416 0.258,-0.419 0.261,-0.423C0.292,-0.453 0.314,-0.483 0.329,-0.514C0.344,-0.545 0.352,-0.577 0.353,-0.611C0.354,-0.654 0.338,-0.683 0.305,-0.699C0.287,-0.709 0.268,-0.718 0.249,-0.727C0.23,-0.735 0.21,-0.743 0.191,-0.75L0.109,-0.733C0.105,-0.743 0.1,-0.752 0.095,-0.759C0.089,-0.766 0.08,-0.77 0.068,-0.77C0.061,-0.77 0.054,-0.769 0.047,-0.766L0.025,-0.656C0.026,-0.651 0.027,-0.647 0.028,-0.643C0.029,-0.639 0.03,-0.635 0.031,-0.631C0.032,-0.623 0.034,-0.615 0.035,-0.608C0.037,-0.601 0.038,-0.593 0.038,-0.586C0.039,-0.554 0.04,-0.522 0.041,-0.491C0.042,-0.459 0.043,-0.427 0.044,-0.396C0.045,-0.326 0.048,-0.257 0.051,-0.188C0.054,-0.119 0.059,-0.05 0.064,0.019C0.067,0.051 0.078,0.074 0.099,0.087L0.101,0.087ZM0.18,-0.674C0.209,-0.674 0.241,-0.661 0.278,-0.635C0.291,-0.61 0.296,-0.584 0.291,-0.559C0.285,-0.533 0.271,-0.505 0.247,-0.476C0.24,-0.467 0.233,-0.459 0.224,-0.45C0.215,-0.441 0.206,-0.434 0.195,-0.427C0.184,-0.42 0.173,-0.415 0.161,-0.41C0.148,-0.406 0.134,-0.404 0.119,-0.404L0.108,-0.404C0.104,-0.404 0.1,-0.405 0.097,-0.406L0.082,-0.521L0.115,-0.506L0.102,-0.64C0.127,-0.663 0.153,-0.674 0.18,-0.674Z" style="fill:rgb(255,121,1);fill-rule:nonzero;"/>
                    </g>
                    <g transform="matrix(12.8335,0,0,12.8335,813.046,1824.55)">
                        <path d="M0.1,-0.369C0.087,-0.369 0.076,-0.363 0.065,-0.352C0.053,-0.288 0.042,-0.224 0.032,-0.16C0.029,-0.143 0.026,-0.124 0.025,-0.105C0.024,-0.085 0.026,-0.065 0.031,-0.046C0.037,-0.021 0.048,-0.004 0.065,0.005C0.081,0.014 0.1,0.018 0.123,0.018C0.175,0.018 0.22,-0.001 0.257,-0.04C0.261,-0.045 0.264,-0.054 0.265,-0.066C0.266,-0.069 0.266,-0.073 0.267,-0.077C0.267,-0.08 0.268,-0.084 0.269,-0.089L0.27,-0.092L0.267,-0.09C0.261,-0.087 0.255,-0.085 0.25,-0.083C0.244,-0.08 0.238,-0.078 0.233,-0.075C0.217,-0.068 0.202,-0.061 0.188,-0.056C0.173,-0.05 0.158,-0.047 0.143,-0.047C0.138,-0.047 0.133,-0.048 0.129,-0.049C0.124,-0.05 0.119,-0.051 0.114,-0.052C0.107,-0.059 0.101,-0.065 0.097,-0.07C0.093,-0.075 0.09,-0.08 0.089,-0.085C0.088,-0.09 0.087,-0.096 0.087,-0.103C0.087,-0.11 0.087,-0.12 0.088,-0.133C0.099,-0.142 0.111,-0.148 0.124,-0.152C0.137,-0.155 0.15,-0.158 0.164,-0.161C0.181,-0.164 0.198,-0.169 0.215,-0.174C0.231,-0.18 0.246,-0.191 0.259,-0.206L0.259,-0.208C0.249,-0.217 0.239,-0.224 0.229,-0.227C0.218,-0.23 0.208,-0.232 0.197,-0.232C0.184,-0.232 0.171,-0.231 0.159,-0.229C0.152,-0.228 0.146,-0.227 0.14,-0.226C0.133,-0.225 0.127,-0.225 0.121,-0.225C0.113,-0.225 0.104,-0.226 0.095,-0.228C0.104,-0.243 0.114,-0.256 0.126,-0.266C0.138,-0.275 0.151,-0.282 0.166,-0.288C0.18,-0.293 0.195,-0.296 0.211,-0.298C0.226,-0.3 0.242,-0.301 0.258,-0.301C0.274,-0.302 0.29,-0.303 0.307,-0.305C0.324,-0.307 0.34,-0.313 0.355,-0.323L0.356,-0.324L0.346,-0.353L0.131,-0.353C0.122,-0.364 0.111,-0.369 0.1,-0.369Z" style="fill:rgb(255,121,1);fill-rule:nonzero;"/>
                    </g>
                    <g transform="matrix(12.8335,0,0,12.8335,817.936,1824.55)">
                        <path d="M0.153,-0.003C0.169,-0.003 0.185,0 0.201,0.007C0.204,0.009 0.208,0.01 0.213,0.01C0.215,0.01 0.217,0.01 0.219,0.009C0.22,0.009 0.222,0.009 0.224,0.009L0.226,0.009C0.228,0.009 0.23,0.009 0.232,0.008C0.233,0.007 0.235,0.006 0.238,0.005L0.246,0.002L0.248,0.002L0.24,-0.049L0.13,-0.079L0.187,-0.159L0.233,-0.166C0.241,-0.179 0.247,-0.189 0.251,-0.196C0.255,-0.203 0.257,-0.209 0.257,-0.215C0.257,-0.22 0.255,-0.226 0.251,-0.231C0.246,-0.236 0.24,-0.244 0.231,-0.253L0.229,-0.253C0.203,-0.247 0.183,-0.235 0.168,-0.218C0.153,-0.201 0.138,-0.181 0.125,-0.16C0.119,-0.151 0.113,-0.141 0.106,-0.132C0.099,-0.123 0.092,-0.113 0.085,-0.104C0.082,-0.119 0.082,-0.133 0.084,-0.146C0.086,-0.159 0.088,-0.173 0.091,-0.186C0.094,-0.198 0.097,-0.21 0.099,-0.222C0.1,-0.233 0.1,-0.245 0.098,-0.257L0.062,-0.281L0.061,-0.28C0.053,-0.271 0.046,-0.261 0.041,-0.252C0.036,-0.242 0.033,-0.23 0.033,-0.217C0.034,-0.2 0.034,-0.183 0.033,-0.166C0.032,-0.149 0.032,-0.132 0.031,-0.115L0.031,-0.107C0.03,-0.096 0.03,-0.085 0.029,-0.074C0.029,-0.063 0.028,-0.052 0.027,-0.039C0.027,-0.033 0.027,-0.027 0.027,-0.021C0.026,-0.015 0.026,-0.009 0.025,-0.002L0.025,-0.001L0.047,0.023L0.048,0.023L0.07,0.016C0.072,0.016 0.074,0.015 0.077,0.014C0.09,0.009 0.102,0.005 0.115,0.002C0.127,-0.001 0.14,-0.003 0.153,-0.003Z" style="fill:rgb(255,121,1);fill-rule:nonzero;"/>
                    </g>
                    <g transform="matrix(12.8335,0,0,12.8335,821.542,1824.55)">
                        <path d="M0.03,0.06L0.065,0.038C0.067,0.023 0.069,0.007 0.07,-0.008C0.07,-0.023 0.072,-0.037 0.073,-0.052C0.075,-0.076 0.077,-0.1 0.079,-0.123C0.081,-0.146 0.084,-0.169 0.087,-0.192C0.102,-0.176 0.116,-0.159 0.127,-0.141C0.138,-0.123 0.149,-0.104 0.158,-0.085C0.167,-0.065 0.176,-0.045 0.184,-0.024C0.191,-0.003 0.199,0.019 0.206,0.041C0.208,0.047 0.21,0.053 0.213,0.059C0.215,0.065 0.217,0.071 0.219,0.078L0.22,0.08L0.221,0.078C0.228,0.064 0.233,0.051 0.235,0.038C0.237,0.026 0.237,0.014 0.236,0.002C0.235,-0.009 0.233,-0.021 0.23,-0.032C0.227,-0.043 0.223,-0.053 0.219,-0.064C0.218,-0.069 0.216,-0.073 0.215,-0.076L0.193,-0.081C0.186,-0.126 0.173,-0.168 0.154,-0.204C0.135,-0.242 0.116,-0.278 0.095,-0.314C0.092,-0.319 0.089,-0.323 0.086,-0.328C0.084,-0.332 0.082,-0.336 0.079,-0.341L0.078,-0.342L0.077,-0.342C0.05,-0.325 0.037,-0.302 0.036,-0.273L0.032,-0.168C0.031,-0.137 0.029,-0.105 0.029,-0.074C0.028,-0.042 0.026,-0.01 0.025,0.022C0.025,0.025 0.025,0.028 0.025,0.031C0.026,0.034 0.026,0.038 0.027,0.042L0.03,0.058L0.03,0.06Z" style="fill:rgb(255,121,1);fill-rule:nonzero;"/>
                    </g>
                    <g transform="matrix(12.8335,0,0,12.8335,824.904,1824.55)">
                        <path d="M0.161,-0.031C0.163,-0.033 0.167,-0.036 0.172,-0.04L0.175,-0.021C0.176,-0.012 0.178,-0.003 0.18,0.006C0.182,0.015 0.185,0.024 0.189,0.032C0.192,0.04 0.197,0.047 0.203,0.053C0.21,0.06 0.218,0.065 0.229,0.069L0.23,0.069C0.24,0.06 0.245,0.05 0.245,0.041C0.244,0.032 0.243,0.023 0.24,0.014L0.239,0.01C0.221,-0.055 0.225,-0.123 0.251,-0.194C0.248,-0.207 0.245,-0.221 0.242,-0.235C0.239,-0.249 0.234,-0.262 0.227,-0.275C0.22,-0.288 0.211,-0.299 0.2,-0.31C0.189,-0.32 0.173,-0.328 0.154,-0.334L0.153,-0.334C0.15,-0.333 0.148,-0.331 0.146,-0.33C0.144,-0.328 0.141,-0.326 0.138,-0.325C0.112,-0.31 0.092,-0.294 0.077,-0.276C0.062,-0.257 0.05,-0.237 0.043,-0.216C0.035,-0.194 0.03,-0.171 0.028,-0.146C0.026,-0.121 0.025,-0.094 0.025,-0.066C0.025,-0.047 0.03,-0.03 0.041,-0.017C0.051,-0.004 0.066,0.003 0.086,0.003C0.101,0.003 0.114,0 0.126,-0.007C0.138,-0.014 0.15,-0.022 0.161,-0.031ZM0.072,-0.117L0.08,-0.15C0.083,-0.162 0.086,-0.174 0.09,-0.187C0.093,-0.199 0.096,-0.211 0.101,-0.223C0.104,-0.23 0.108,-0.237 0.113,-0.244C0.118,-0.251 0.125,-0.254 0.134,-0.254C0.145,-0.254 0.159,-0.249 0.176,-0.238L0.176,-0.225C0.175,-0.208 0.174,-0.192 0.173,-0.175C0.172,-0.158 0.17,-0.142 0.165,-0.128C0.16,-0.113 0.152,-0.099 0.141,-0.086C0.131,-0.073 0.117,-0.061 0.098,-0.051L0.072,-0.117Z" style="fill:rgb(255,121,1);fill-rule:nonzero;"/>
                    </g>
                    <g transform="matrix(12.8335,0,0,12.8335,828.446,1824.55)">
                        <path d="M0.266,-0.184C0.267,-0.149 0.268,-0.123 0.269,-0.103C0.27,-0.085 0.271,-0.069 0.274,-0.058C0.276,-0.046 0.279,-0.036 0.284,-0.029C0.289,-0.022 0.295,-0.013 0.304,-0.002L0.305,-0.001C0.312,0 0.318,0 0.323,0C0.328,0.001 0.332,0.001 0.336,0.001C0.347,0.001 0.354,-0.002 0.358,-0.007C0.362,-0.012 0.367,-0.021 0.374,-0.036L0.375,-0.037L0.332,-0.079C0.329,-0.088 0.328,-0.096 0.328,-0.104L0.328,-0.127C0.329,-0.139 0.328,-0.151 0.327,-0.162C0.325,-0.172 0.318,-0.182 0.307,-0.191L0.317,-0.197C0.318,-0.202 0.319,-0.206 0.32,-0.211C0.321,-0.215 0.321,-0.219 0.322,-0.223C0.324,-0.232 0.326,-0.241 0.328,-0.249C0.33,-0.257 0.332,-0.265 0.334,-0.274L0.334,-0.277C0.335,-0.284 0.337,-0.292 0.338,-0.299C0.339,-0.306 0.34,-0.314 0.339,-0.321C0.338,-0.328 0.335,-0.335 0.331,-0.342C0.327,-0.348 0.32,-0.355 0.311,-0.361L0.268,-0.324C0.265,-0.289 0.256,-0.258 0.241,-0.231C0.226,-0.204 0.204,-0.177 0.175,-0.15C0.174,-0.154 0.172,-0.158 0.172,-0.162C0.171,-0.165 0.169,-0.169 0.168,-0.172C0.163,-0.185 0.16,-0.197 0.158,-0.206C0.155,-0.216 0.154,-0.228 0.154,-0.241C0.154,-0.248 0.154,-0.256 0.154,-0.264C0.153,-0.271 0.152,-0.279 0.15,-0.286C0.149,-0.298 0.146,-0.31 0.142,-0.321C0.138,-0.332 0.128,-0.342 0.113,-0.349L0.112,-0.349C0.081,-0.34 0.065,-0.32 0.063,-0.288C0.06,-0.236 0.055,-0.187 0.05,-0.141C0.044,-0.094 0.036,-0.049 0.027,-0.005C0.026,0.002 0.025,0.011 0.027,0.02C0.028,0.03 0.034,0.038 0.047,0.045L0.049,0.045C0.076,0.033 0.09,0.01 0.092,-0.023L0.1,-0.089L0.104,-0.116L0.171,-0.075C0.174,-0.078 0.178,-0.081 0.181,-0.084C0.184,-0.086 0.188,-0.088 0.191,-0.091C0.209,-0.106 0.223,-0.121 0.234,-0.135C0.244,-0.148 0.255,-0.165 0.266,-0.184Z" style="fill:rgb(255,121,1);fill-rule:nonzero;"/>
                    </g>
                    <g transform="matrix(12.8335,0,0,12.8335,833.58,1824.55)">
                        <path d="M0.093,-0.209C0.092,-0.214 0.091,-0.22 0.091,-0.225C0.09,-0.23 0.09,-0.236 0.091,-0.241C0.092,-0.25 0.092,-0.26 0.091,-0.269C0.09,-0.278 0.085,-0.287 0.076,-0.295L0.075,-0.295C0.062,-0.294 0.052,-0.289 0.046,-0.281C0.039,-0.274 0.034,-0.266 0.03,-0.258L0.025,-0.249C0.032,-0.226 0.037,-0.204 0.039,-0.182C0.041,-0.159 0.043,-0.136 0.044,-0.113C0.045,-0.091 0.047,-0.069 0.05,-0.047C0.052,-0.024 0.056,-0.001 0.062,0.022L0.062,0.024L0.104,-0.009L0.104,-0.087L0.142,-0.075L0.209,-0.14L0.212,-0.114C0.213,-0.103 0.214,-0.09 0.215,-0.076C0.216,-0.062 0.218,-0.049 0.222,-0.035C0.225,-0.023 0.23,-0.011 0.237,0C0.244,0.011 0.253,0.02 0.265,0.025C0.288,0.02 0.306,0.01 0.319,-0.005C0.332,-0.019 0.342,-0.039 0.349,-0.066L0.35,-0.069L0.285,-0.029C0.274,-0.043 0.267,-0.058 0.266,-0.073C0.264,-0.087 0.263,-0.103 0.264,-0.118C0.265,-0.128 0.265,-0.138 0.265,-0.147C0.264,-0.156 0.262,-0.165 0.259,-0.174L0.267,-0.207C0.27,-0.22 0.274,-0.233 0.277,-0.245C0.28,-0.257 0.282,-0.269 0.285,-0.281C0.289,-0.302 0.281,-0.314 0.262,-0.318C0.253,-0.315 0.246,-0.311 0.241,-0.305C0.236,-0.299 0.232,-0.292 0.229,-0.283C0.217,-0.251 0.204,-0.223 0.191,-0.2C0.178,-0.177 0.162,-0.155 0.145,-0.135L0.093,-0.209Z" style="fill:rgb(255,121,1);fill-rule:nonzero;"/>
                    </g>
                    <g transform="matrix(12.8335,0,0,12.8335,838.392,1824.55)">
                        <path d="M0.126,-0.293C0.123,-0.292 0.12,-0.291 0.116,-0.29C0.095,-0.284 0.079,-0.278 0.067,-0.272C0.055,-0.266 0.046,-0.259 0.04,-0.251C0.034,-0.242 0.03,-0.232 0.028,-0.219C0.026,-0.205 0.025,-0.189 0.025,-0.168C0.025,-0.157 0.025,-0.145 0.025,-0.134C0.026,-0.122 0.027,-0.11 0.03,-0.099C0.032,-0.086 0.034,-0.073 0.037,-0.061C0.039,-0.048 0.042,-0.037 0.047,-0.026C0.052,-0.015 0.058,-0.006 0.067,0.003C0.075,0.012 0.086,0.019 0.1,0.025L0.101,0.024C0.103,0.023 0.105,0.021 0.108,0.02C0.11,0.019 0.112,0.018 0.115,0.017C0.148,0.002 0.171,-0.019 0.186,-0.048C0.2,-0.076 0.21,-0.107 0.215,-0.142C0.216,-0.15 0.217,-0.161 0.217,-0.174C0.216,-0.188 0.213,-0.202 0.207,-0.217C0.202,-0.232 0.193,-0.246 0.18,-0.26C0.167,-0.274 0.149,-0.285 0.126,-0.294L0.126,-0.293ZM0.121,-0.045C0.108,-0.054 0.1,-0.066 0.097,-0.079C0.094,-0.092 0.092,-0.105 0.091,-0.118C0.09,-0.137 0.09,-0.152 0.09,-0.164C0.089,-0.175 0.09,-0.185 0.092,-0.193C0.093,-0.201 0.096,-0.208 0.1,-0.214C0.103,-0.22 0.108,-0.227 0.114,-0.235C0.14,-0.226 0.155,-0.206 0.16,-0.174C0.167,-0.128 0.154,-0.085 0.121,-0.045Z" style="fill:rgb(255,121,1);fill-rule:nonzero;"/>
                    </g>
                    <g transform="matrix(12.8335,0,0,12.8335,841.485,1824.55)">
                        <path d="M0.1,-0.369C0.087,-0.369 0.076,-0.363 0.065,-0.352C0.053,-0.288 0.042,-0.224 0.032,-0.16C0.029,-0.143 0.026,-0.124 0.025,-0.105C0.024,-0.085 0.026,-0.065 0.031,-0.046C0.037,-0.021 0.048,-0.004 0.065,0.005C0.081,0.014 0.1,0.018 0.123,0.018C0.175,0.018 0.22,-0.001 0.257,-0.04C0.261,-0.045 0.264,-0.054 0.265,-0.066C0.266,-0.069 0.266,-0.073 0.267,-0.077C0.267,-0.08 0.268,-0.084 0.269,-0.089L0.27,-0.092L0.267,-0.09C0.261,-0.087 0.255,-0.085 0.25,-0.083C0.244,-0.08 0.238,-0.078 0.233,-0.075C0.217,-0.068 0.202,-0.061 0.188,-0.056C0.173,-0.05 0.158,-0.047 0.143,-0.047C0.138,-0.047 0.133,-0.048 0.129,-0.049C0.124,-0.05 0.119,-0.051 0.114,-0.052C0.107,-0.059 0.101,-0.065 0.097,-0.07C0.093,-0.075 0.09,-0.08 0.089,-0.085C0.088,-0.09 0.087,-0.096 0.087,-0.103C0.087,-0.11 0.087,-0.12 0.088,-0.133C0.099,-0.142 0.111,-0.148 0.124,-0.152C0.137,-0.155 0.15,-0.158 0.164,-0.161C0.181,-0.164 0.198,-0.169 0.215,-0.174C0.231,-0.18 0.246,-0.191 0.259,-0.206L0.259,-0.208C0.249,-0.217 0.239,-0.224 0.229,-0.227C0.218,-0.23 0.208,-0.232 0.197,-0.232C0.184,-0.232 0.171,-0.231 0.159,-0.229C0.152,-0.228 0.146,-0.227 0.14,-0.226C0.133,-0.225 0.127,-0.225 0.121,-0.225C0.113,-0.225 0.104,-0.226 0.095,-0.228C0.104,-0.243 0.114,-0.256 0.126,-0.266C0.138,-0.275 0.151,-0.282 0.166,-0.288C0.18,-0.293 0.195,-0.296 0.211,-0.298C0.226,-0.3 0.242,-0.301 0.258,-0.301C0.274,-0.302 0.29,-0.303 0.307,-0.305C0.324,-0.307 0.34,-0.313 0.355,-0.323L0.356,-0.324L0.346,-0.353L0.131,-0.353C0.122,-0.364 0.111,-0.369 0.1,-0.369Z" style="fill:rgb(255,121,1);fill-rule:nonzero;"/>
                    </g>
                    <g transform="matrix(12.8335,0,0,12.8335,850.225,1824.55)">
                        <path d="M0.161,-0.031C0.163,-0.033 0.167,-0.036 0.172,-0.04L0.175,-0.021C0.176,-0.012 0.178,-0.003 0.18,0.006C0.182,0.015 0.185,0.024 0.189,0.032C0.192,0.04 0.197,0.047 0.203,0.053C0.21,0.06 0.218,0.065 0.229,0.069L0.23,0.069C0.24,0.06 0.245,0.05 0.245,0.041C0.244,0.032 0.243,0.023 0.24,0.014L0.239,0.01C0.221,-0.055 0.225,-0.123 0.251,-0.194C0.248,-0.207 0.245,-0.221 0.242,-0.235C0.239,-0.249 0.234,-0.262 0.227,-0.275C0.22,-0.288 0.211,-0.299 0.2,-0.31C0.189,-0.32 0.173,-0.328 0.154,-0.334L0.153,-0.334C0.15,-0.333 0.148,-0.331 0.146,-0.33C0.144,-0.328 0.141,-0.326 0.138,-0.325C0.112,-0.31 0.092,-0.294 0.077,-0.276C0.062,-0.257 0.05,-0.237 0.043,-0.216C0.035,-0.194 0.03,-0.171 0.028,-0.146C0.026,-0.121 0.025,-0.094 0.025,-0.066C0.025,-0.047 0.03,-0.03 0.041,-0.017C0.051,-0.004 0.066,0.003 0.086,0.003C0.101,0.003 0.114,0 0.126,-0.007C0.138,-0.014 0.15,-0.022 0.161,-0.031ZM0.072,-0.117L0.08,-0.15C0.083,-0.162 0.086,-0.174 0.09,-0.187C0.093,-0.199 0.096,-0.211 0.101,-0.223C0.104,-0.23 0.108,-0.237 0.113,-0.244C0.118,-0.251 0.125,-0.254 0.134,-0.254C0.145,-0.254 0.159,-0.249 0.176,-0.238L0.176,-0.225C0.175,-0.208 0.174,-0.192 0.173,-0.175C0.172,-0.158 0.17,-0.142 0.165,-0.128C0.16,-0.113 0.152,-0.099 0.141,-0.086C0.131,-0.073 0.117,-0.061 0.098,-0.051L0.072,-0.117Z" style="fill:rgb(255,121,1);fill-rule:nonzero;"/>
                    </g>
                    <g transform="matrix(12.8335,0,0,12.8335,853.767,1824.55)">
                        <path d="M0.164,0.017L0.203,-0.009C0.226,-0.023 0.249,-0.038 0.271,-0.055C0.293,-0.071 0.313,-0.091 0.33,-0.114C0.338,-0.112 0.346,-0.111 0.354,-0.111C0.384,-0.111 0.411,-0.127 0.436,-0.16L0.437,-0.162L0.436,-0.162C0.427,-0.165 0.421,-0.168 0.416,-0.17C0.41,-0.172 0.406,-0.173 0.401,-0.173C0.396,-0.173 0.39,-0.171 0.384,-0.168C0.377,-0.165 0.368,-0.159 0.357,-0.152L0.356,-0.152C0.333,-0.143 0.31,-0.133 0.287,-0.124C0.264,-0.114 0.242,-0.103 0.219,-0.092C0.211,-0.087 0.202,-0.082 0.192,-0.077C0.191,-0.086 0.19,-0.095 0.19,-0.103C0.189,-0.112 0.188,-0.12 0.187,-0.129C0.185,-0.157 0.181,-0.183 0.176,-0.208C0.171,-0.233 0.157,-0.255 0.135,-0.275L0.134,-0.275C0.118,-0.274 0.106,-0.268 0.099,-0.259C0.091,-0.25 0.084,-0.239 0.079,-0.228C0.074,-0.221 0.07,-0.214 0.066,-0.207C0.062,-0.2 0.056,-0.195 0.049,-0.191C0.044,-0.188 0.041,-0.183 0.039,-0.178C0.036,-0.173 0.034,-0.166 0.032,-0.159C0.031,-0.156 0.03,-0.153 0.029,-0.15C0.028,-0.147 0.027,-0.145 0.026,-0.142L0.025,-0.141L0.062,-0.11L0.115,-0.145C0.118,-0.136 0.12,-0.126 0.121,-0.116C0.122,-0.106 0.122,-0.096 0.122,-0.087C0.122,-0.078 0.122,-0.069 0.123,-0.06C0.124,-0.051 0.125,-0.042 0.128,-0.033C0.131,-0.024 0.135,-0.015 0.14,-0.007C0.145,0.002 0.152,0.01 0.162,0.017L0.164,0.017ZM0.37,-0.142L0.364,-0.147L0.372,-0.145L0.37,-0.142Z" style="fill:rgb(255,121,1);fill-rule:nonzero;"/>
                    </g>
                    <g transform="matrix(12.8335,0,0,12.8335,859.696,1824.55)">
                        <path d="M0.1,-0.369C0.087,-0.369 0.076,-0.363 0.065,-0.352C0.053,-0.288 0.042,-0.224 0.032,-0.16C0.029,-0.143 0.026,-0.124 0.025,-0.105C0.024,-0.085 0.026,-0.065 0.031,-0.046C0.037,-0.021 0.048,-0.004 0.065,0.005C0.081,0.014 0.1,0.018 0.123,0.018C0.175,0.018 0.22,-0.001 0.257,-0.04C0.261,-0.045 0.264,-0.054 0.265,-0.066C0.266,-0.069 0.266,-0.073 0.267,-0.077C0.267,-0.08 0.268,-0.084 0.269,-0.089L0.27,-0.092L0.267,-0.09C0.261,-0.087 0.255,-0.085 0.25,-0.083C0.244,-0.08 0.238,-0.078 0.233,-0.075C0.217,-0.068 0.202,-0.061 0.188,-0.056C0.173,-0.05 0.158,-0.047 0.143,-0.047C0.138,-0.047 0.133,-0.048 0.129,-0.049C0.124,-0.05 0.119,-0.051 0.114,-0.052C0.107,-0.059 0.101,-0.065 0.097,-0.07C0.093,-0.075 0.09,-0.08 0.089,-0.085C0.088,-0.09 0.087,-0.096 0.087,-0.103C0.087,-0.11 0.087,-0.12 0.088,-0.133C0.099,-0.142 0.111,-0.148 0.124,-0.152C0.137,-0.155 0.15,-0.158 0.164,-0.161C0.181,-0.164 0.198,-0.169 0.215,-0.174C0.231,-0.18 0.246,-0.191 0.259,-0.206L0.259,-0.208C0.249,-0.217 0.239,-0.224 0.229,-0.227C0.218,-0.23 0.208,-0.232 0.197,-0.232C0.184,-0.232 0.171,-0.231 0.159,-0.229C0.152,-0.228 0.146,-0.227 0.14,-0.226C0.133,-0.225 0.127,-0.225 0.121,-0.225C0.113,-0.225 0.104,-0.226 0.095,-0.228C0.104,-0.243 0.114,-0.256 0.126,-0.266C0.138,-0.275 0.151,-0.282 0.166,-0.288C0.18,-0.293 0.195,-0.296 0.211,-0.298C0.226,-0.3 0.242,-0.301 0.258,-0.301C0.274,-0.302 0.29,-0.303 0.307,-0.305C0.324,-0.307 0.34,-0.313 0.355,-0.323L0.356,-0.324L0.346,-0.353L0.131,-0.353C0.122,-0.364 0.111,-0.369 0.1,-0.369Z" style="fill:rgb(255,121,1);fill-rule:nonzero;"/>
                    </g>
                    <g transform="matrix(12.8335,0,0,12.8335,864.585,1824.55)">
                        <path d="M0.093,-0.209C0.092,-0.214 0.091,-0.22 0.091,-0.225C0.09,-0.23 0.09,-0.236 0.091,-0.241C0.092,-0.25 0.092,-0.26 0.091,-0.269C0.09,-0.278 0.085,-0.287 0.076,-0.295L0.075,-0.295C0.062,-0.294 0.052,-0.289 0.046,-0.281C0.039,-0.274 0.034,-0.266 0.03,-0.258L0.025,-0.249C0.032,-0.226 0.037,-0.204 0.039,-0.182C0.041,-0.159 0.043,-0.136 0.044,-0.113C0.045,-0.091 0.047,-0.069 0.05,-0.047C0.052,-0.024 0.056,-0.001 0.062,0.022L0.062,0.024L0.104,-0.009L0.104,-0.087L0.142,-0.075L0.209,-0.14L0.212,-0.114C0.213,-0.103 0.214,-0.09 0.215,-0.076C0.216,-0.062 0.218,-0.049 0.222,-0.035C0.225,-0.023 0.23,-0.011 0.237,0C0.244,0.011 0.253,0.02 0.265,0.025C0.288,0.02 0.306,0.01 0.319,-0.005C0.332,-0.019 0.342,-0.039 0.349,-0.066L0.35,-0.069L0.285,-0.029C0.274,-0.043 0.267,-0.058 0.266,-0.073C0.264,-0.087 0.263,-0.103 0.264,-0.118C0.265,-0.128 0.265,-0.138 0.265,-0.147C0.264,-0.156 0.262,-0.165 0.259,-0.174L0.267,-0.207C0.27,-0.22 0.274,-0.233 0.277,-0.245C0.28,-0.257 0.282,-0.269 0.285,-0.281C0.289,-0.302 0.281,-0.314 0.262,-0.318C0.253,-0.315 0.246,-0.311 0.241,-0.305C0.236,-0.299 0.232,-0.292 0.229,-0.283C0.217,-0.251 0.204,-0.223 0.191,-0.2C0.178,-0.177 0.162,-0.155 0.145,-0.135L0.093,-0.209Z" style="fill:rgb(255,121,1);fill-rule:nonzero;"/>
                    </g>
                    <g transform="matrix(12.8335,0,0,12.8335,869.398,1824.55)">
                        <path d="M0.147,0.012C0.188,0.012 0.227,0.004 0.265,-0.011C0.303,-0.026 0.337,-0.048 0.367,-0.075C0.37,-0.077 0.372,-0.083 0.374,-0.092C0.375,-0.095 0.375,-0.097 0.376,-0.1C0.376,-0.103 0.377,-0.106 0.378,-0.109L0.378,-0.112L0.376,-0.111C0.369,-0.108 0.362,-0.105 0.356,-0.103C0.349,-0.101 0.343,-0.099 0.338,-0.096C0.325,-0.091 0.314,-0.087 0.303,-0.083C0.292,-0.079 0.282,-0.075 0.271,-0.07C0.241,-0.059 0.213,-0.053 0.188,-0.053C0.173,-0.053 0.158,-0.055 0.144,-0.058C0.13,-0.061 0.117,-0.067 0.104,-0.075L0.118,-0.12L0.087,-0.136C0.107,-0.219 0.154,-0.267 0.228,-0.28L0.273,-0.258C0.28,-0.261 0.287,-0.265 0.293,-0.27C0.299,-0.274 0.304,-0.279 0.308,-0.284C0.312,-0.289 0.315,-0.296 0.316,-0.304C0.317,-0.311 0.315,-0.32 0.312,-0.331L0.311,-0.332C0.288,-0.339 0.267,-0.343 0.248,-0.343C0.205,-0.343 0.162,-0.325 0.121,-0.289C0.094,-0.265 0.072,-0.237 0.057,-0.205C0.042,-0.173 0.031,-0.135 0.025,-0.091L0.046,-0.034C0.067,-0.003 0.1,0.012 0.147,0.012Z" style="fill:rgb(255,121,1);fill-rule:nonzero;"/>
                    </g>
                    <g transform="matrix(12.8335,0,0,12.8335,874.57,1824.55)">
                        <path d="M0.158,-0.223L0.109,-0.124C0.106,-0.134 0.105,-0.144 0.105,-0.154C0.104,-0.164 0.104,-0.174 0.103,-0.183L0.103,-0.212L0.103,-0.23C0.103,-0.235 0.102,-0.241 0.1,-0.247C0.098,-0.252 0.095,-0.257 0.09,-0.262C0.085,-0.267 0.079,-0.271 0.07,-0.274L0.025,-0.23C0.048,-0.15 0.054,-0.074 0.042,-0.001C0.045,0.002 0.047,0.005 0.048,0.006C0.051,0.009 0.054,0.013 0.058,0.016C0.061,0.02 0.065,0.023 0.068,0.024L0.073,0.025C0.082,0.019 0.089,0.014 0.094,0.009C0.099,0.005 0.104,0 0.109,-0.005C0.113,-0.01 0.118,-0.018 0.123,-0.027C0.128,-0.035 0.135,-0.048 0.144,-0.064L0.166,-0.01L0.167,-0.011C0.191,-0.016 0.21,-0.027 0.224,-0.042C0.238,-0.057 0.251,-0.074 0.264,-0.091C0.271,-0.101 0.279,-0.111 0.285,-0.121C0.293,-0.13 0.301,-0.139 0.31,-0.148C0.313,-0.138 0.315,-0.128 0.316,-0.118C0.317,-0.108 0.317,-0.098 0.318,-0.089C0.321,-0.066 0.325,-0.043 0.33,-0.021C0.335,0.001 0.347,0.02 0.367,0.037C0.386,0.03 0.397,0.019 0.398,0.005C0.399,-0.008 0.397,-0.022 0.392,-0.036C0.383,-0.064 0.377,-0.092 0.375,-0.12C0.372,-0.148 0.371,-0.177 0.371,-0.206C0.371,-0.226 0.368,-0.24 0.362,-0.249C0.356,-0.257 0.342,-0.261 0.321,-0.261L0.22,-0.117L0.21,-0.12L0.21,-0.223L0.158,-0.223ZM0.189,-0.29L0.191,-0.291C0.194,-0.294 0.197,-0.296 0.2,-0.298C0.203,-0.3 0.206,-0.302 0.209,-0.304C0.214,-0.308 0.22,-0.312 0.225,-0.316C0.23,-0.319 0.234,-0.324 0.237,-0.329C0.242,-0.336 0.249,-0.344 0.256,-0.351C0.263,-0.358 0.271,-0.365 0.282,-0.372C0.293,-0.379 0.306,-0.385 0.321,-0.391C0.336,-0.397 0.355,-0.402 0.376,-0.406C0.385,-0.407 0.395,-0.41 0.404,-0.413C0.412,-0.417 0.422,-0.421 0.431,-0.424C0.435,-0.425 0.439,-0.427 0.443,-0.429C0.447,-0.431 0.451,-0.433 0.456,-0.434L0.457,-0.434L0.455,-0.453C0.445,-0.459 0.435,-0.463 0.426,-0.466C0.416,-0.468 0.406,-0.469 0.396,-0.469C0.381,-0.469 0.366,-0.467 0.35,-0.462C0.336,-0.457 0.321,-0.452 0.306,-0.446C0.246,-0.421 0.2,-0.385 0.168,-0.339L0.189,-0.29Z" style="fill:rgb(255,121,1);fill-rule:nonzero;"/>
                    </g>
                    <g transform="matrix(12.8335,0,0,12.8335,879.793,1824.55)">
                        <path d="M0.237,-0.1C0.246,-0.125 0.25,-0.15 0.249,-0.174C0.248,-0.2 0.241,-0.224 0.23,-0.247L0.152,-0.247L0.161,-0.28C0.164,-0.293 0.168,-0.305 0.172,-0.318C0.175,-0.33 0.179,-0.342 0.184,-0.354C0.197,-0.388 0.21,-0.423 0.222,-0.458C0.234,-0.493 0.244,-0.529 0.251,-0.567C0.252,-0.574 0.253,-0.581 0.254,-0.588C0.254,-0.594 0.254,-0.601 0.255,-0.608L0.255,-0.618C0.255,-0.621 0.255,-0.625 0.256,-0.628L0.256,-0.629L0.218,-0.642C0.191,-0.619 0.169,-0.595 0.15,-0.569C0.131,-0.543 0.116,-0.516 0.102,-0.487C0.09,-0.458 0.079,-0.428 0.07,-0.397C0.061,-0.366 0.053,-0.334 0.046,-0.301C0.044,-0.29 0.042,-0.28 0.04,-0.27C0.037,-0.259 0.035,-0.249 0.032,-0.239C0.027,-0.217 0.025,-0.194 0.025,-0.17C0.027,-0.146 0.028,-0.122 0.03,-0.099L0.031,-0.092C0.037,-0.031 0.065,0.005 0.116,0.018C0.144,0.007 0.169,-0.008 0.19,-0.029C0.211,-0.049 0.226,-0.073 0.237,-0.1ZM0.11,-0.139C0.113,-0.144 0.117,-0.149 0.122,-0.156C0.127,-0.163 0.132,-0.169 0.138,-0.175C0.144,-0.182 0.15,-0.187 0.157,-0.192C0.164,-0.196 0.17,-0.198 0.176,-0.198L0.189,-0.195C0.19,-0.195 0.191,-0.195 0.192,-0.194C0.196,-0.177 0.198,-0.162 0.197,-0.149C0.196,-0.136 0.193,-0.123 0.188,-0.112C0.183,-0.1 0.175,-0.089 0.164,-0.078C0.153,-0.067 0.14,-0.056 0.123,-0.045L0.106,-0.056C0.102,-0.058 0.1,-0.06 0.099,-0.063C0.096,-0.073 0.095,-0.085 0.097,-0.099C0.098,-0.112 0.103,-0.126 0.11,-0.139ZM0.184,-0.521C0.173,-0.476 0.16,-0.434 0.146,-0.395C0.132,-0.355 0.111,-0.318 0.084,-0.284C0.094,-0.375 0.127,-0.454 0.184,-0.521ZM0.099,-0.207L0.071,-0.155C0.072,-0.161 0.072,-0.167 0.071,-0.173C0.071,-0.179 0.071,-0.185 0.071,-0.191C0.07,-0.206 0.07,-0.221 0.071,-0.234C0.072,-0.247 0.075,-0.259 0.081,-0.271L0.099,-0.207Z" style="fill:rgb(255,121,1);fill-rule:nonzero;"/>
                    </g>
                    <g transform="matrix(12.8335,0,0,12.8335,883.399,1824.55)">
                        <path d="M0.126,-0.293C0.123,-0.292 0.12,-0.291 0.116,-0.29C0.095,-0.284 0.079,-0.278 0.067,-0.272C0.055,-0.266 0.046,-0.259 0.04,-0.251C0.034,-0.242 0.03,-0.232 0.028,-0.219C0.026,-0.205 0.025,-0.189 0.025,-0.168C0.025,-0.157 0.025,-0.145 0.025,-0.134C0.026,-0.122 0.027,-0.11 0.03,-0.099C0.032,-0.086 0.034,-0.073 0.037,-0.061C0.039,-0.048 0.042,-0.037 0.047,-0.026C0.052,-0.015 0.058,-0.006 0.067,0.003C0.075,0.012 0.086,0.019 0.1,0.025L0.101,0.024C0.103,0.023 0.105,0.021 0.108,0.02C0.11,0.019 0.112,0.018 0.115,0.017C0.148,0.002 0.171,-0.019 0.186,-0.048C0.2,-0.076 0.21,-0.107 0.215,-0.142C0.216,-0.15 0.217,-0.161 0.217,-0.174C0.216,-0.188 0.213,-0.202 0.207,-0.217C0.202,-0.232 0.193,-0.246 0.18,-0.26C0.167,-0.274 0.149,-0.285 0.126,-0.294L0.126,-0.293ZM0.121,-0.045C0.108,-0.054 0.1,-0.066 0.097,-0.079C0.094,-0.092 0.092,-0.105 0.091,-0.118C0.09,-0.137 0.09,-0.152 0.09,-0.164C0.089,-0.175 0.09,-0.185 0.092,-0.193C0.093,-0.201 0.096,-0.208 0.1,-0.214C0.103,-0.22 0.108,-0.227 0.114,-0.235C0.14,-0.226 0.155,-0.206 0.16,-0.174C0.167,-0.128 0.154,-0.085 0.121,-0.045Z" style="fill:rgb(255,121,1);fill-rule:nonzero;"/>
                    </g>
                </g>
            </g>
        </g>
        <g transform="matrix(1,0,0,1,1916,0)">
            <g transform="matrix(0.950769,0,0,0.949474,21.5936,24.6322)">
                <path d="M478.552,369.643C478.552,369.643 1019.94,205.703 1106.35,176.474" style="fill:none;stroke:rgb(55,18,60);stroke-width:3.16px;"/>
            </g>
        </g>
        <g transform="matrix(1,0,0,1,1916,0)">
            <g transform="matrix(0.504657,0.0127218,-0.0135736,0.538445,244.069,180.706)">
                <path d="M478.552,369.643C478.552,369.643 1019.94,205.703 1106.35,176.474" style="fill:none;stroke:rgb(255,121,0);stroke-width:5.75px;"/>
            </g>
        </g>
    </g>
</svg>
