<svg version="1.1" xmlns="http://www.w3.org/2000/svg" xmlns:xlink="http://www.w3.org/1999/xlink" fill="#37123C" x="0px" y="0px"
	viewBox="0 0 40.459 40.459" style="enable-background:new 0 0 40.459 40.459;"
	 xml:space="preserve">
<g>
	<g>
		<path d="M37.094,19.542c-0.054-0.046-0.12-0.081-0.176-0.125c-0.037-0.049-0.06-0.099-0.102-0.148
			c-0.287-0.293-0.562-0.536-0.914-0.79c-0.18-0.114-0.378-0.246-0.564-0.351c-0.196-0.098-0.331-0.186-0.592-0.296
			c-0.43-0.188-0.899-0.336-1.397-0.428c-1.055-0.168-1.948-0.125-2.96-0.167c-1.987-0.038-4.084-0.009-6.079,0.111
			c-0.489-0.139,0.386-0.268-1.266-0.414c-3.259-0.098-6.667,0.015-10.111,0.179c-1.745,0.093-3.401,0.153-5.23,0.289
			c-0.949,0.112-1.859,0.449-2.651,0.914c-0.397,0.218-0.81,0.537-1.112,0.799c-0.42,0.367-0.634,0.736-0.884,1.105
			c-0.342,0.284-0.805,0.816-1.274,1.595l-0.057,0.094l-0.017,0.218c-0.158,2.149-0.111,5.229,0.155,6.706
			c0.231,0.129,0.067-3.351,0.242-3.259c0.253,1.22,0.19,3.37,0.141,5.419c-0.024,0.996-0.044,1.965-0.024,2.796l-0.001,0.033
			c0.001,0.612-0.065,1.219,0.017,1.873c0.158,1.303,0.919,2.473,1.927,3.292c0.488,0.406,1.11,0.765,1.677,0.982
			c0.625,0.255,1.261,0.397,1.924,0.451c1.298,0.051,2.529,0.026,3.804,0.039l7.626-0.002l7.666-0.039l3.832-0.025l1.92-0.019
			c0.661-0.023,1.316-0.139,1.946-0.356c0.219-0.078,0.426-0.189,0.636-0.291c0.013-0.004,0.025-0.006,0.037-0.011
			c0.122-0.046,0.229-0.111,0.346-0.164c0.559-0.249,1.073-0.547,1.518-0.933c0.54-0.465,0.964-1.008,1.277-1.628
			c0.31-0.616,0.469-1.29,0.469-2.025V23.181c0-0.699-0.159-1.365-0.469-2C38.058,20.545,37.634,19.998,37.094,19.542z
			 M6.715,23.796c-0.701,0-1.265-0.4-1.276-0.898c0.012-0.01,0.024-0.021,0.036-0.03c0.3-0.228,0.629-0.408,0.97-0.541
			c0.34-0.133,0.698-0.22,1.043-0.25l1.08-0.03c-0.025-0.02-0.138-0.044-0.334-0.072c0.037,0,0.073-0.003,0.11-0.003h2.158
			c1.607,0,2.91,0.42,2.91,0.938c0,0.521-0.661,0.939-1.477,0.939c-0.815,0-1.476,1.303-1.476,2.909v6.611
			c0,1.607-0.553,2.91-1.233,2.91c-0.681,0-1.233-1.303-1.233-2.91v-6.664C7.993,25.1,7.421,23.796,6.715,23.796z M6.186,22.331
			C5.993,22.4,5.784,22.5,5.574,22.62c0.131-0.135,0.351-0.256,0.649-0.356C6.176,22.3,6.156,22.329,6.186,22.331z M12.954,28.584
			c-0.014-1.606,0.527-2.909,1.209-2.909c0.683,0,1.245,1.304,1.256,2.909l0.029,3.776c0,0.449-0.003,0.812-0.021,1.09
			c-0.006,0.101-0.01,0.189-0.01,0.263c-0.002,0.146,0.085,0.524,0.307,0.741c0.146,0.144,0.316,0.174,0.514,0.098
			c0.167-0.062,0.299-0.143,0.402-0.237c0.189-0.175,0.321-0.484,0.34-0.629c0.009-0.072,0.01-0.16,0.003-0.264
			c-0.018-0.257-0.021-0.632-0.021-1.11v-3.728c0-1.606,0.553-2.909,1.233-2.909c0.68,0,1.232,1.304,1.232,2.909v4.786
			c0,1.607-0.455,2.898-1.02,2.883c-0.562-0.015-1.008-0.319-0.994-0.684c0.014-0.362-0.086-0.459-0.279-0.264
			c-0.107,0.11-0.235,0.218-0.381,0.319c-0.314,0.224-0.649,0.396-1.016,0.521c-0.367,0.126-0.744,0.191-1.132,0.191
			c-0.382,0-0.718-0.093-1.003-0.271c-0.31-0.196-0.48-0.463-0.512-0.793c-0.018-0.16-0.035-0.315-0.053-0.464
			c-0.028-0.257-0.088-0.64-0.091-0.858c-0.001-0.117,0.001-0.248,0.01-0.396c0.018-0.351,0.028-0.781,0.028-1.3L12.954,28.584z
			 M20.906,24.879c0-1.606,0.554-2.909,1.234-2.909c0.683,0,1.235,0.926,1.235,2.067c0,1.143,0.396,1.752,0.96,1.497
			c0.387-0.174,0.746-0.262,1.08-0.262c0.319,0,0.608,0.074,0.859,0.216c0.752,0.446,1.125,1.2,1.125,2.255v5.504
			c0,0.66-0.106,1.251-0.311,1.76c-0.205,0.514-0.49,0.879-0.856,1.101c-0.368,0.226-0.812,0.272-1.345,0.149
			c-0.292-0.069-0.607-0.207-0.944-0.409c-0.489-0.298-0.875-0.412-0.919-0.168c-0.045,0.243-0.537,0.452-1.102,0.469
			c-0.562,0.015-1.019-1.275-1.019-2.883L20.906,24.879L20.906,24.879z M28.877,29.25c0-0.985,0.108-1.758,0.323-2.309
			c0.219-0.557,0.567-0.996,1.045-1.32c0.382-0.268,0.821-0.436,1.331-0.508c0.511-0.072,1.012-0.056,1.503,0.055
			c0.497,0.105,0.924,0.31,1.287,0.603c0.373,0.296,0.59,0.685,0.663,1.171c0.069,0.284,0.111,0.681,0.131,1.192
			c0.018,0.51,0.023,1.043,0.023,1.597v0.737c0,0.408-0.956,0.738-2.135,0.738s-2.135,0.313-2.135,0.699c0,0.387,0,0.699,0,0.699
			v1.048v0.106c0,0.287,0.1,0.51,0.286,0.671c0.189,0.163,0.423,0.24,0.71,0.24h0.381c0.285,0,0.527-0.077,0.732-0.24
			c0.209-0.161,0.312-0.384,0.312-0.671V32.82v-0.133c0-0.074,0.414-0.135,0.924-0.135c0.512,0,0.962,0.187,0.991,0.415
			c0.029,0.23,0.077,0.9-0.119,1.444c-0.121,0.333-0.307,0.627-0.56,0.878c-0.645,0.662-1.387,1.022-2.229,1.073
			c-0.074,0-0.146,0-0.219,0c-0.752,0-1.465-0.28-2.143-0.831c-0.736-0.59-1.106-1.588-1.106-2.98V29.25H28.877z M2.824,29.07
			c0.067-2.243,0.088-4.518,0.082-6.812c-0.016,0.03-0.035,0.061-0.05,0.091l0.051-0.221c0,0.043-0.001,0.086,0,0.13
			c0.094-0.182,0.204-0.363,0.308-0.547c-0.165,0.474-0.248,0.962-0.248,1.47v6.018c-0.097,1.318-0.208,2.642-0.32,3.968
			l0.041-0.694C2.745,31.347,2.791,30.212,2.824,29.07z M30.431,40.13l-7.354,0.039c-4.896,0.018-9.766,0.012-14.539-0.046
			c-1.356,0.045-2.71-0.387-3.794-1.153c0.073-0.026,0.581,0.256,0.5,0.11c-1.185-0.896-1.962-2.067-2-1.806
			c-0.185-0.444-0.308-0.931-0.319-1.43c-0.015-0.254,0.009-0.514,0.045-0.786c0.012,0.699,0.163,1.345,0.464,1.935
			c0.313,0.62,0.744,1.163,1.276,1.628c0.537,0.467,1.158,0.83,1.867,1.098c0.709,0.269,1.464,0.404,2.265,0.404h22.436
			C30.996,40.122,30.712,40.121,30.431,40.13z"/>
		<path d="M30.988,29.039c-0.062,0.02,0.01,0.045,0.148,0.064c0.203,0.18,0.545,0.306,0.961,0.306c0.653,0,1.194-0.294,1.21-0.656
			s0.028-0.655,0.028-0.655c0-0.308-0.116-0.549-0.335-0.729c-0.227-0.178-0.497-0.27-0.818-0.27h-0.105
			c-0.077,0-0.142,0.023-0.213,0.035c-0.029-0.009-0.058-0.022-0.089-0.029c0.005,0.005,0.025,0.016,0.062,0.032
			c0.001,0,0.002,0.002,0.003,0.002c-0.204,0.037-0.393,0.108-0.548,0.243c-0.216,0.193-0.321,0.429-0.321,0.716l-0.028,0.655
			c-0.005,0.106,0.047,0.203,0.124,0.291C31.042,29.042,31.014,29.041,30.988,29.039z"/>
		<path d="M28.274,15.812c0.513-0.033,0.851-0.224,1.188-0.433c0.21,0.044,0.461,0.071,0.731,0.071c0.757,0,1.368-1.303,1.368-2.909
			V7.403c0-1.606-0.479-2.909-1.071-2.909c-0.016,0-0.03,0.011-0.047,0.013C30.314,4.329,29.919,4.06,29.5,4.33
			c-0.408,0.266-0.579,0.678-0.722,1.076c-0.264,0.802-0.254,1.688-0.164,2.146c0.056,0.026,0.053-0.348,0.087-0.745
			c0.029-0.39,0.108-0.779,0.143-0.75L28.788,8.53C28.776,9,28.766,9.455,28.777,9.84l-0.051,3.44
			c-0.222,0.173-0.495,0.349-0.739,0.399c-0.043-0.029-0.092-0.047-0.131-0.083c-0.162-0.163-0.239-0.347-0.239-0.563V7.404
			c0-1.606-0.518-2.909-1.155-2.909c-0.048,0-0.093,0.021-0.14,0.035c-0.138-0.104-0.32-0.178-0.502-0.146
			c-0.231,0.037-0.399,0.192-0.521,0.345c-0.241,0.317-0.366,0.681-0.462,1.042c-0.189,0.726-0.196,1.482-0.183,2.203l0.013,4.125
			c-0.011,0.1-0.014,0.215-0.011,0.34c-0.038,0.918,0.44,2.69,0.203,1.207c-0.007-0.063-0.017-0.137-0.027-0.218
			c-0.065-1.487-0.025-3.023-0.051-4.56c0.013-0.778-0.051-1.565,0.038-2.342c0.048-0.388,0.128-0.774,0.265-1.143
			c0.142-0.349,0.327-0.762,0.722-0.875c0.142-0.024,0.261,0.02,0.371,0.085c-0.5,0.319-0.872,1.452-0.872,2.811v4.472v1.179
			c0,0.305,0.021,0.548,0.052,0.729c0.039,0.143,0.065,0.291,0.084,0.442c0.02,0.148,0.068,0.3,0.131,0.444
			c0.179,0.32,0.384,0.565,0.618,0.723c0.058,0.038,0.131,0.056,0.194,0.085c-0.235-0.048-0.458-0.119-0.628-0.226
			c-0.211-0.197-0.379-0.655-0.538-1.021c-0.242-0.228-0.256-0.019-0.125,0.448c0.097,0.233,0.115,0.542,0.479,0.886
			c0.386,0.249,0.822,0.344,1.339,0.389l0.031,0.003l0.048-0.014c0.346-0.102,0.605-0.243,0.893-0.425
			c0.008-0.004,0.016-0.006,0.023-0.01l-0.02,0.328L28.274,15.812z M28.327,15.452l-0.053-0.055c0.017-0.002,0.032-0.01,0.048-0.012
			c-0.001-0.054-0.007-0.107-0.013-0.16c0.088-0.075,0.17-0.152,0.231-0.224c0.196-0.232,0.324-0.239,0.312,0.005
			c-0.004,0.065,0.037,0.125,0.11,0.181c-0.207,0.094-0.42,0.169-0.641,0.198C28.323,15.408,28.327,15.429,28.327,15.452z
			 M29.585,5.016c0.16-0.248,0.309-0.348,0.467-0.261c-0.372,0.456-0.633,1.468-0.633,2.649v5.628c0,0.218-0.095,0.401-0.274,0.563
			c-0.178,0.159-0.392,0.243-0.642,0.243c-0.127,0-0.238-0.022-0.34-0.058c0.016-0.006,0.029-0.017,0.047-0.023
			c0.012-0.003,0.021-0.003,0.035-0.008c0.039-0.017,0.073-0.044,0.111-0.064c0.184-0.091,0.357-0.203,0.518-0.326l0.004-0.003
			V13.35c0.004-0.271,0.012-0.535,0.017-0.804c0.031-0.006,0.047,0.28,0.083,0.212c0.109-0.697,0.044-1.388-0.031-1.284
			c0.138-0.878,0.339-2.045,0.375-3.066c-0.023-0.16-0.078,0.282-0.098,0.016c0.126-0.607,0.133-1.389,0.213-1.959
			c0.067-0.596,0.175-1.027,0.124-1.083c-0.462,1.103-0.426,2.515-0.568,3.884c-0.007,0.069-0.011,0.138-0.017,0.207
			c0.005-0.164,0.011-0.328,0.018-0.491c0.01-0.198,0.026-0.39,0.034-0.589c0.036-0.789,0.018-1.573,0.183-2.325
			C29.291,5.695,29.398,5.315,29.585,5.016z"/>
		<polygon points="22.869,33.897 22.872,33.903 22.873,33.9 		"/>
		<path d="M22.906,33.128c-0.002,0.253-0.017,0.512-0.034,0.771l0.076,0.062C22.975,33.566,22.948,33.151,22.906,33.128z"/>
		<path d="M24.135,34.469c0.094,0.021,0.186,0.045,0.289,0.045c0.286,0,0.536-0.084,0.762-0.245c0.227-0.161,0.335-0.35,0.335-0.562
			v-6.231c0-0.214-0.108-0.405-0.335-0.574c-0.226-0.172-0.476-0.257-0.762-0.257c-0.29,0-0.54,0.085-0.772,0.257
			c-0.219,0.169-0.327,0.36-0.327,0.574v6.231c0,0.213,0.108,0.4,0.327,0.562c0.107,0.073,0.219,0.127,0.335,0.168
			c-0.287,0.003-0.601-0.235-0.88-0.391c-0.056-0.02,0.076,0.075-0.013,0.035l-0.144-0.119c-0.003,0.027-0.003,0.054-0.005,0.08
			l-0.072-0.139c-0.002,0.03-0.002,0.06-0.004,0.09c0.301,0.218,0.629,0.454,1.011,0.521C23.966,34.507,24.05,34.49,24.135,34.469z"
			/>
		<path d="M22.868,33.993c-0.015-0.01-0.03-0.021-0.045-0.032l0.042,0.081C22.867,34.026,22.867,34.009,22.868,33.993z"/>
		<path d="M16.648,13.957l0.486,1.05l0.024,0.052l0.034,0.023c0.219,0.147,0.43,0.274,0.652,0.401
			c0.211,0.129,0.486,0.247,0.733,0.277c0.317,0.183,1.321,0.322,2.046,0.279l0.054-0.003l0.024-0.011
			c0.193-0.091,0.337-0.185,0.447-0.266c0.305-0.052,0.595-0.129,0.857-0.254c0.374-0.145,0.724-0.441,1.045-0.886
			c0.146-0.227,0.263-0.446,0.35-0.655c0.157-0.378,0.288-1.201,0.323-1.812c0.02-0.322,0.028-0.691,0.028-1.109V8.228
			c0-0.753-0.061-1.353-0.161-1.801c-0.106-0.412-0.269-0.776-0.485-1.099c-0.288-0.449-0.653-0.762-1.1-0.942
			c-0.317-0.15-0.703-0.229-1.124-0.275c-0.07-0.033-0.137-0.074-0.208-0.106L20.663,4H20.65c-0.485,0.009-0.964,0.03-1.442,0.071
			c-0.085-0.002-0.163,0.023-0.243,0.039c-0.036,0.002-0.087,0.007-0.165,0.027c-0.073,0.019-0.157,0.047-0.264,0.105
			c-0.006,0.004-0.012,0.009-0.018,0.012c-0.167,0.093-0.322,0.204-0.47,0.321c-0.006,0.005-0.013,0.008-0.019,0.013
			c-0.018,0.013-0.04,0.034-0.059,0.049c-0.016,0.013-0.034,0.026-0.05,0.04c-0.02,0.014-0.043,0.037-0.064,0.055
			c-0.007,0.006-0.015,0.013-0.023,0.019c-0.455,0.386-1.084,1.301-0.496,0.61c0.033-0.035,0.071-0.077,0.116-0.127
			c0.149-0.155,0.305-0.303,0.468-0.443C17.947,4.768,17.973,4.744,18,4.72c0.03-0.025,0.059-0.051,0.09-0.076
			c0.227-0.182,0.47-0.339,0.74-0.439c0.288-0.048,0.583-0.074,0.879-0.091c-0.117,0.019-0.234,0.037-0.343,0.066
			c-0.522,0.141-1.249,0.623-1.536,1.032c-0.16,0.229-0.293,0.5-0.394,0.812c-0.174,0.639-0.269,1.456-0.269,2.441v2.899
			c0,0.987,0.057,1.716,0.162,2.202c0.063,0.234,0.135,0.443,0.214,0.629c0.146,0.34,0.464,0.85,0.748,1.066
			c0.146,0.113,0.324,0.196,0.517,0.265c-0.251-0.042-0.492-0.089-0.695-0.219c-0.243-0.138-0.487-0.298-0.716-0.459
			c0.007,0.012,0.011,0.024,0.018,0.035l-0.036-0.047c0.006,0.004,0.013,0.008,0.018,0.012c-0.812-1.397-0.741-3.016-0.759-4.58
			c0.006-0.786-0.024-1.573,0.049-2.331c0.092-0.758,0.291-1.488,0.54-2.177c-0.019-0.348-0.307,0.124-0.571,1.013
			c-0.127,0.445-0.25,0.994-0.273,1.601c-0.015,0.591-0.004,1.2,0.031,1.787c-0.041,0.144-0.079-0.113-0.122,0.372
			c-0.019,0.717-0.022,1.473,0.072,2.246C16.419,13.147,16.467,13.596,16.648,13.957z M20.669,15.935l-0.022,0.008h-0.022
			c-0.24-0.004-0.468-0.018-0.454-0.041c0.124-0.02,0.279-0.028,0.454-0.035h0.011l0.005-0.003c0.044-0.02,0.097-0.048,0.143-0.07
			c0.099-0.007,0.199-0.014,0.294-0.029C20.987,15.796,20.835,15.87,20.669,15.935z M20.65,4.079
			c0.008,0.004,0.016,0.008,0.024,0.012c-0.035-0.002-0.067-0.008-0.103-0.009C20.597,4.081,20.623,4.08,20.65,4.079z M19.372,7.016
			c0-0.323,0.116-0.592,0.338-0.815c0.219-0.225,0.476-0.34,0.762-0.34c0.287,0,0.544,0.115,0.77,0.34
			c0.227,0.224,0.33,0.492,0.33,0.815v5.827c0,0.303-0.104,0.566-0.33,0.777c-0.227,0.219-0.483,0.322-0.77,0.322
			c-0.303,0-0.564-0.111-0.775-0.332c-0.219-0.227-0.324-0.482-0.324-0.768L19.372,7.016L19.372,7.016z"/>
		<path d="M10.66,11.539c0.006,1.276-0.225,2.936,0.986,4.27c0.092,0.076,0.186,0.15,0.308,0.206
			c0.104,0.06,0.333,0.109,0.383,0.101c0.305,0.02,0.554-0.11,0.731-0.262c0.045-0.04,0.078-0.084,0.117-0.126
			c0.629-0.219,1.11-1.413,1.11-2.865v-2.59c0-1.606,0.514-4.107,1.146-5.584l0.802-1.872c0.634-1.477,0.503-2.674-0.29-2.674
			c-0.056,0-0.115,0.019-0.173,0.031c-0.097-0.104-0.264-0.184-0.39-0.172c-0.153,0.009-0.305,0.039-0.436,0.101
			c-0.268,0.116-0.487,0.293-0.683,0.486c-0.389,0.39-0.68,0.854-0.913,1.339c-0.253,0.481-0.343,1.033-0.57,1.471
			c-0.07,0.137-0.165,0.269-0.271,0.354c-0.167-0.181-0.326-0.474-0.459-0.911c-0.453-1.49-1.465-2.699-2.259-2.699
			c-0.039,0-0.068,0.015-0.103,0.021C9.445,0.052,9.167,0.019,8.879,0.161C8.612,0.322,8.535,0.631,8.506,0.89
			c-0.025,0.27,0.007,0.535,0.06,0.792c0.01,0.053,0.033,0.101,0.045,0.153c0.021,0.09,0.047,0.193,0.081,0.324
			c0.02,0.064,0.047,0.124,0.07,0.186c0.024,0.065,0.047,0.13,0.073,0.194c0.052,0.13,0.106,0.258,0.164,0.384
			c0.005,0.011,0.008,0.023,0.014,0.034c0.012,0.026,0.026,0.056,0.039,0.084C9.066,3.071,9.08,3.104,9.095,3.135
			c0.328,0.717,1.287,2.527,0.561,0.94C9.649,4.059,9.64,4.042,9.633,4.025C9.614,3.982,9.597,3.946,9.575,3.897l-0.13-0.283
			L9.3,3.297L9.22,3.123c-0.005-0.01-0.012-0.025-0.017-0.035C8.941,2.525,8.698,1.955,8.627,1.333
			C8.603,1.089,8.605,0.838,8.679,0.606C8.751,0.378,8.942,0.184,9.19,0.175C9.298,0.17,9.402,0.19,9.503,0.219
			c-0.506,0.277-0.501,1.318,0.07,2.567l0.884,1.931c0.669,1.461,1.212,3.948,1.212,5.555v2.59c0,1.272,0.371,2.343,0.885,2.738
			c-0.232,0.06-0.488-0.022-0.671-0.26c-0.542-0.698-0.7-1.672-0.715-2.574l-0.024-2.753c-0.095-1.828-0.43-3.585-0.952-5.269
			c-0.352-0.369-0.148,0.394,0.087,1.641c0.237,1.266,0.531,2.99,0.556,4.63C10.773,11.217,10.721,10.856,10.66,11.539z
			 M12.905,3.411c0.221-0.453,0.31-0.962,0.544-1.415c0.218-0.458,0.491-0.891,0.839-1.261c0.176-0.183,0.372-0.349,0.597-0.469
			c0.217-0.107,0.497-0.222,0.735-0.074c0.005,0.004,0.007,0.009,0.011,0.013c-0.727,0.261-1.541,1.341-1.934,2.637
			c-0.298,0.983-0.718,1.304-1.101,0.989C12.73,3.721,12.826,3.562,12.905,3.411z"/>
	</g>
	</g>
</svg>